<svg xmlns="http://www.w3.org/2000/svg" viewBox="0 0 32 32"><defs><style></style></defs><g id="Layer_2" data-name="Layer 2"><g id="Layer_1-2" data-name="Layer 1"><rect class="cls-1" x="9.92" y="30.28" width="2" height="1.72"/><path class="cls-1" d="M1.4,2.83A2,2,0,0,0,1,4V15.88h.5a1.5,1.5,0,1,1,0,3H1V30a1.93,1.93,0,0,0,.22.9c2.45-3,4.11-8.3,4.11-14.14S3.75,5.91,1.4,2.83Z"/><path class="cls-1" d="M0,16.88v1a1,1,0,0,0,1,1v-3A1,1,0,0,0,0,16.88Z"/><path class="cls-1" d="M16.59,18.57a9.14,9.14,0,0,1,2.56-1.83,1.5,1.5,0,0,1,1.35-.86H21V4a2,2,0,0,0-.47-1.28c-2.39,3.08-4,8.27-4,14C16.53,17.37,16.56,18,16.59,18.57Z"/><path class="cls-1" d="M14,24.92a9,9,0,0,1,1.33-4.72,32.12,32.12,0,0,1-.2-3.44c0-6,1.65-11.37,4.19-14.71A1.73,1.73,0,0,0,19,2H13.42V1a1,1,0,0,0-1-1h-3a1,1,0,0,0-1,1V2H3a2.12,2.12,0,0,0-.44,0c2.53,3.34,4.17,8.67,4.17,14.69C6.73,23,5,28.55,2.25,31.85A1.86,1.86,0,0,0,3,32H8.92V30.28a1,1,0,0,1,1-1h2a1,1,0,0,1,1,1V32h4.49A9.09,9.09,0,0,1,14,24.92ZM10.94,18a1,1,0,1,1,1-1A1,1,0,0,1,10.94,18ZM12,2H9.82V1.2H12Z"/><path class="cls-1" d="M31.43,20.87a1.07,1.07,0,0,0-1.44.45l-.41.78a7.08,7.08,0,1,0-6.5,9.9,7,7,0,0,0,5.14-2.21,1.06,1.06,0,0,0-1.54-1.47,5.17,5.17,0,0,1-1.58,1.12,4.95,4.95,0,1,1,2.5-6.53l-1-.54a1.07,1.07,0,0,0-1.44.45,1.11,1.11,0,0,0-.12.5,1.08,1.08,0,0,0,.59,1l2.86,1.5a1.59,1.59,0,0,0,.29.15,1.07,1.07,0,0,0,1.44-.45l1.67-3.17A1.07,1.07,0,0,0,31.43,20.87Z"/></g></g></svg>