<svg xmlns="http://www.w3.org/2000/svg" viewBox="0 0 32 28"><defs><style></style></defs><g id="Layer_2" data-name="Layer 2"><g id="Layer_1-2" data-name="Layer 1"><path class="cls-1" d="M28,1.33A1.34,1.34,0,0,0,26.67,0H21.33A1.34,1.34,0,0,0,20,1.33V4h8Z"/><path class="cls-1" d="M12,1.33A1.34,1.34,0,0,0,10.67,0H5.33A1.34,1.34,0,0,0,4,1.33V4h8Z"/><path class="cls-1" d="M0,7.33v18a1.34,1.34,0,0,0,1.33,1.34H4V28H6.67V26.67H25.33V28H28V26.67h2.67A1.34,1.34,0,0,0,32,25.33v-18a2,2,0,0,0-2-2H2A2,2,0,0,0,0,7.33ZM10.67,24l2.66-8h-4l9.34-8L16,16h4Z"/></g></g></svg>