<svg xmlns="http://www.w3.org/2000/svg" viewBox="0 0 32 32"><defs><style></style></defs><g id="Layer_2" data-name="Layer 2"><g id="Layer_1-2" data-name="Layer 1"><rect class="cls-1" x="9.92" y="30.28" width="2" height="1.72"/><path class="cls-1" d="M1.4,2.83A2,2,0,0,0,1,4V15.88h.5a1.5,1.5,0,1,1,0,3H1V30a1.93,1.93,0,0,0,.22.9c2.45-3,4.11-8.3,4.11-14.14S3.75,5.91,1.4,2.83Z"/><path class="cls-1" d="M0,16.88v1a1,1,0,0,0,1,1v-3A1,1,0,0,0,0,16.88Z"/><path class="cls-1" d="M20.73,15.3l.27,0V4a2,2,0,0,0-.47-1.28c-2.39,3.07-4,8.25-4,14A6.73,6.73,0,0,1,20.73,15.3Z"/><path class="cls-1" d="M14,22a6.7,6.7,0,0,1,1.18-3.85c0-.47,0-.94,0-1.42,0-6,1.65-11.37,4.19-14.71A1.73,1.73,0,0,0,19,2H13.42V1a1,1,0,0,0-1-1h-3a1,1,0,0,0-1,1V2H3a2.12,2.12,0,0,0-.44,0c2.53,3.34,4.17,8.67,4.17,14.69C6.73,23,5,28.55,2.25,31.85A1.86,1.86,0,0,0,3,32H8.92V30.28a1,1,0,0,1,1-1h2a1,1,0,0,1,1,1V32H19a2.32,2.32,0,0,0,.64-.11,15.12,15.12,0,0,1-1.39-2.06C15.76,27.51,14,25.3,14,22Zm-3.06-4a1,1,0,1,1,1-1A1,1,0,0,1,10.94,18ZM12,2H9.82V1.2H12Z"/><path class="cls-1" d="M27.27,17.3A5.07,5.07,0,0,0,24,18.53a5.07,5.07,0,0,0-3.27-1.23A4.68,4.68,0,0,0,16,22c0,3.2,2.23,5.16,5.61,8.12l.89.79h0l1,.88a.73.73,0,0,0,1,0l1-.88h0a43.18,43.18,0,0,0,4.63-4.49A6.93,6.93,0,0,0,32,22,4.68,4.68,0,0,0,27.27,17.3Zm-.36,7.84H25v1.93H23V25.14H21.09V23.2H23V21.26H25V23.2h1.94Z"/></g></g></svg>