<?xml version="1.0" encoding="UTF-8"?><svg id="Layer_2" xmlns="http://www.w3.org/2000/svg" viewBox="0 0 22 32"><g id="Layer_1-2"><g><rect class="cls-1" x="10.08" width="2" height="1.72"/><path class="cls-1" d="M2.68,29.95c.1,.02,.21,.03,.32,.03h5.58v1.02c0,.55,.45,1,1,1h3c.55,0,1-.45,1-1v-1.02h5.42c.15,0,.3-.02,.44-.05-2.53-3.34-4.17-8.67-4.17-14.69S17.04,3.45,19.75,.15c-.23-.09-.48-.15-.75-.15h-5.92V1.72c0,.55-.45,1-1,1h-2c-.55,0-1-.45-1-1V0H3c-.22,0-.43,.05-.64,.11,2.72,3.3,4.51,8.84,4.51,15.13s-1.65,11.37-4.19,14.71ZM11.06,13.99c.55,0,1,.45,1,1s-.45,1-1,1-1-.45-1-1,.45-1,1-1Zm-1.08,15.99h2.2v.82h-2.2v-.82Z"/><g><path class="cls-1" d="M21,27.98v-11.87h-.5c-.83,0-1.5-.67-1.5-1.5s.67-1.5,1.5-1.5h.5V2c0-.32-.08-.63-.22-.9-2.45,3.05-4.11,8.3-4.11,14.14s1.58,10.84,3.93,13.93c.25-.33,.4-.74,.4-1.18Z"/><path class="cls-1" d="M3,14.62c0,.83-.67,1.5-1.5,1.5h-.5v11.87c0,.49,.18,.93,.47,1.27,2.39-3.07,4-8.26,4-14.01S3.77,4.04,1.28,1c-.17,.29-.28,.63-.28,1V13.12h.5c.83,0,1.5,.67,1.5,1.5Z"/><path class="cls-1" d="M1,16.12v-3c-.55,0-1,.45-1,1v1c0,.55,.45,1,1,1Z"/><path class="cls-1" d="M22,15.12v-1c0-.55-.45-1-1-1v3c.55,0,1-.45,1-1Z"/></g></g></g></svg>