<svg xmlns="http://www.w3.org/2000/svg" viewBox="0 0 25.6 32"><defs><style></style></defs><g id="Layer_2" data-name="Layer 2"><g id="Layer_1-2" data-name="Layer 1"><path class="cls-1" d="M12.8,0A12.81,12.81,0,0,0,0,12.8c0,9.75,12,18.72,12.49,19.09a.48.48,0,0,0,.62,0c.52-.37,12.49-9.34,12.49-19.09A12.81,12.81,0,0,0,12.8,0Zm0,22.8a10,10,0,1,1,10-10A10,10,0,0,1,12.8,22.8Z"/><rect class="cls-1" x="12.31" y="19.26" width="0.9" height="0.78"/><path class="cls-1" d="M16.56,6.49H13.9V6a.47.47,0,0,0-.46-.46H12.09a.47.47,0,0,0-.46.46v.46H9.18L9,6.5a11.23,11.23,0,0,1,1.89,6.64,11,11,0,0,1-2,6.83,1,1,0,0,0,.34.07h2.68v-.78a.45.45,0,0,1,.45-.45h.91a.45.45,0,0,1,.45.45V20h2.75a.75.75,0,0,0,.29-.06,11,11,0,0,1-2-6.84A11.24,11.24,0,0,1,16.56,6.49Zm-3.79,7.22a.45.45,0,0,1-.45-.45.46.46,0,0,1,.45-.46.47.47,0,0,1,.46.46A.46.46,0,0,1,12.77,13.71Zm.49-7.23h-1V6.11h1Z"/><path class="cls-1" d="M8.46,6.85a.89.89,0,0,0-.18.53v5.37H8.5a.68.68,0,1,1,0,1.35H8.28v5a1,1,0,0,0,.1.41,10.61,10.61,0,0,0,1.86-6.4A10.78,10.78,0,0,0,8.46,6.85Z"/><path class="cls-1" d="M16.42,13.43a.67.67,0,0,1,.68-.68h.22V7.38a.87.87,0,0,0-.21-.57,10.68,10.68,0,0,0-1.81,6.33,10.52,10.52,0,0,0,1.9,6.44.94.94,0,0,0,.12-.45v-5H17.1A.67.67,0,0,1,16.42,13.43Z"/><path class="cls-1" d="M17.32,12.75V14.1a.45.45,0,0,0,.45-.45V13.2A.45.45,0,0,0,17.32,12.75Z"/><path class="cls-1" d="M7.83,13.2v.45a.45.45,0,0,0,.45.45V12.75A.45.45,0,0,0,7.83,13.2Z"/></g></g></svg>