<svg width="40" height="20" viewBox="0 0 40 20" fill="none" xmlns="http://www.w3.org/2000/svg">
<g clip-path="url(#clip0_697_10460)">
<g clip-path="url(#clip1_697_10460)">
<path d="M40 12.7434V7.26666H38.1818V12.7434H40Z" fill="#FAFAFA"/>
<path d="M2.72729 12.7273L2.72729 7.27274L1.90735e-05 7.27274L1.90735e-05 12.7273H2.72729Z" fill="#FAFAFA"/>
<path d="M34.5455 18.9778V1.02222C34.5455 0.457664 34.0878 0 33.5232 0L6.47678 0C5.91222 0 5.45456 0.457664 5.45456 1.02222L5.45456 18.9778C5.45456 19.5423 5.91222 20 6.47678 20L33.5232 20C34.0878 20 34.5455 19.5423 34.5455 18.9778Z" fill="#FAFAFA"/>
<path d="M24.5436 20L34.3294 20C34.5294 20 34.7244 19.9414 34.89 19.8303L39.5476 16.7253C39.8294 16.5374 39.9981 16.2222 39.9981 15.8848V12.7273H38.1799V7.27273H39.9981V4.17677C39.9981 3.83939 39.8294 3.52424 39.5486 3.33636L34.7981 0.169697C34.6325 0.0585858 34.4375 0 34.2375 0L24.5436 0L22.7254 1.81818L17.2708 1.81818L15.4527 0L5.66679 0C5.46679 0 5.27184 0.0585858 5.10619 0.169697L0.448613 3.27475C0.166795 3.46263 -0.00189131 3.77778 -0.00189131 4.11515V7.27273H2.72538V12.7273H-0.00189131V15.8232C-0.00189131 16.1606 0.166794 16.4758 0.447602 16.6636L5.19811 19.8303C5.36376 19.9414 5.55871 20 5.75871 20L15.4527 20L17.2708 18.1818H22.7254L24.5436 20ZM18.1799 10C18.1799 8.99596 18.9941 8.18182 19.9981 8.18182C21.0021 8.18182 21.8163 8.99596 21.8163 10C21.8163 11.004 21.0021 11.8182 19.9981 11.8182C18.9941 11.8182 18.1799 11.004 18.1799 10Z" fill="#1E88E5"/>
<path d="M40 11.8182V8.18182H39.0909V11.8182H40Z" fill="#1E88E5"/>
<path d="M1.81818 11.8182L1.81818 8.18182H-7.62939e-06L-7.62939e-06 11.8182H1.81818Z" fill="#1E88E5"/>
<path d="M22.2727 0.909091L17.7212 0.909091L16.8131 0L23.1818 0L22.2727 0.909091Z" fill="#1E88E5"/>
<path d="M23.1818 20H16.8131L17.7212 19.0909H22.2727L23.1818 20Z" fill="#1E88E5"/>
<path d="M34.4474 12.7495V7.25052L26.3636 5.45456L13.6363 5.45456L5.5525 7.25052V12.7495L13.6363 14.5455L26.3636 14.5455L34.4474 12.7495ZM13.6373 13.6364L6.36361 12.0202V7.97981L13.6353 6.36365L26.3656 6.36365L33.6363 7.97981V12.0202L26.3646 13.6364L13.6373 13.6364Z" fill="#FAFAFA"/>
</g>
</g>
<defs>
<clipPath id="clip0_697_10460">
<rect width="20" height="40" fill="white" transform="matrix(0 1 -1 0 40 0)"/>
</clipPath>
<clipPath id="clip1_697_10460">
<rect width="20" height="40" fill="white" transform="matrix(0 1 -1 0 40 0)"/>
</clipPath>
</defs>
</svg>
