<svg  viewBox="0 0 50 50" fill="none" xmlns="http://www.w3.org/2000/svg">
<mask id="mask0_68_146" style="mask-type:alpha" maskUnits="userSpaceOnUse" x="0" y="0" width="50" height="50">
<rect width="50" height="50" fill="#D9D9D9"/>
</mask>
<g mask="url(#mask0_68_146)">
<path d="M8 19.5V11C8 10.2 8.24 9.5 8.72 8.9C9.2 8.3 9.76 8 10.4 8H37.6C38.24 8 38.8 8.3 39.28 8.9C39.76 9.5 40 10.2 40 11V19.5H37.6V11H10.4V19.5H8ZM10.4 40C9.76 40 9.2 39.7 8.72 39.1C8.24 38.5 8 37.8 8 37V28.5H10.4V37H37.6V28.5H40V37C40 37.8 39.76 38.5 39.28 39.1C38.8 39.7 38.24 40 37.6 40H10.4ZM20.7924 33.5C21.0108 33.5 21.2213 33.4333 21.424 33.3C21.6267 33.1667 21.7787 32.9667 21.88 32.7L27.2 19.4L29.32 24.7C29.42 24.9667 29.57 25.1667 29.77 25.3C29.97 25.4333 30.18 25.5 30.4 25.5H40V22.5H31.16L28.28 15.35C28.1807 15.075 28.0318 14.8813 27.8332 14.7688C27.6346 14.6562 27.4261 14.6 27.2076 14.6C26.9892 14.6 26.7787 14.6562 26.576 14.7688C26.3733 14.8813 26.2213 15.075 26.12 15.35L20.8 28.6L18.68 23.3C18.58 23.0333 18.43 22.8333 18.23 22.7C18.03 22.5667 17.82 22.5 17.6 22.5H8V25.5H16.84L19.72 32.7C19.8193 32.9667 19.9682 33.1667 20.1668 33.3C20.3654 33.4333 20.5739 33.5 20.7924 33.5Z" fill="#0A0A0A"/>
</g>
</svg>
