<svg width="262" height="136" viewBox="0 0 262 136" fill="none" xmlns="http://www.w3.org/2000/svg">
<path d="M209.081 57.4843H185.99C184.962 57.4843 184.098 58.2121 184.096 59.1248C184.096 59.1301 184.096 59.1353 184.096 59.1405C184.092 74.2797 184.219 89.4202 184.035 104.558C183.952 111.318 188.564 114.904 195.721 114.992C202.307 115.073 208.895 115.012 215.481 115.014C215.504 115.014 215.527 115.014 215.55 115.014C216.596 115.014 217.445 115.767 217.445 116.695V135.033C216.958 135.06 216.47 135.11 215.982 135.11C206.693 135.114 197.403 135.187 188.115 135.092C179.585 135.004 172.013 132.758 165.907 127.581C160.23 122.767 157.188 115.992 157.141 109.023C157.031 92.4954 157.089 75.9665 157.078 59.4383C157.078 59.3646 157.078 59.2912 157.078 59.2172C157.077 58.2888 156.229 57.5355 155.183 57.5355H142.884C141.838 57.5355 140.989 56.7826 140.989 55.854V39.106C140.989 38.1773 141.838 37.4245 142.884 37.4245H155.663C156.472 37.4245 157.193 36.9641 157.456 36.2855C159.845 30.122 162.197 24.0502 164.552 17.9789C165.52 15.4844 166.454 12.9786 167.502 10.5113C167.682 10.0882 168.357 9.5492 168.812 9.54296C173.205 9.48226 177.6 9.4945 182.129 9.4985C183.174 9.4995 184.03 10.2513 184.03 11.1795V35.6453C184.03 36.574 184.878 37.3268 185.924 37.3268H209.082C210.128 37.3268 210.976 38.0796 210.976 39.0083V55.803C210.976 56.7317 210.127 57.4843 209.081 57.4843Z" fill="black"/>
<path d="M259.878 37.4812H236.935C235.888 37.4812 235.04 38.234 235.04 39.1627V133.383C235.04 134.312 235.888 135.065 236.935 135.065H259.878C260.925 135.065 261.773 134.312 261.773 133.383V39.1627C261.773 38.234 260.925 37.4812 259.878 37.4812Z" fill="black"/>
<path d="M261.773 25.9646C261.773 26.8933 260.923 27.6461 259.877 27.6461C258.304 27.6461 256.78 27.6461 255.257 27.6461C249.011 27.6461 242.766 27.6416 236.52 27.6509C235.63 27.6521 234.881 27.7106 234.886 26.5409C234.895 24.7882 234.905 21.648 234.908 20.4166C234.909 20.0789 235.025 19.7522 235.24 19.4734L248.023 2.91802C249.018 1.62992 250.664 0.859863 252.424 0.859863H259.879C260.926 0.859863 261.774 1.61269 261.774 2.54135L261.773 25.9646Z" fill="black"/>
<path d="M19.1036 83.9879L0.226105 134.679L14.261 134.789L28.3868 134.654L44.4826 91.4322L37.6373 72.0171L19.1036 83.9879Z" fill="#08B89D"/>
<path d="M133.273 133.466C133.273 134.39 132.43 135.139 131.388 135.139H106.593C105.75 135.139 105.017 134.665 104.764 133.94C103.864 131.268 96.4904 110.063 87.9635 85.4339H62.0985C60.8039 85.4339 59.9038 84.3106 60.2984 83.2361L64.9981 70.3472C65.8142 68.0994 68.1504 66.576 70.7959 66.576H81.406C76.6211 52.8383 71.8938 39.2005 68.0654 28.1107C62.9149 13.3484 59.3421 3.08313 59.3421 3.08313C58.9751 1.98311 59.8754 0.884097 61.1421 0.884097C66.0962 0.909824 71.0487 0.909824 75.9738 0.884097H76.0028C78.9848 0.884097 81.9681 0.884097 84.9516 0.859619C86.3587 0.859619 86.9784 1.18408 87.4279 2.40848C99.1362 33.7304 110.9 65.0269 122.636 96.3246C125.901 105.016 129.194 113.733 132.403 122.451C132.881 123.775 133.161 125.148 133.246 126.522C133.33 128.82 133.302 131.094 133.273 133.466Z" fill="black"/>
<path d="M59.3416 3.05864C59.3416 3.05864 62.9144 13.3242 68.0649 28.0862L56.1329 60.1071L37.6705 72.0459L37.6142 72.0716L37.5852 72.0216L30.7747 52.664L49.6878 2.00983C49.9405 1.33419 50.6731 0.859863 51.4892 0.859863H61.1416C59.8746 0.859863 58.9746 1.95838 59.3416 3.05864Z" fill="#00A99D"/>
<path d="M75.9735 0.883446C71.0484 0.908233 66.0957 0.908233 61.1419 0.883446L75.5793 0.859863C75.7208 0.859863 75.8334 0.859863 75.9735 0.883446Z" fill="#00A99D"/>
</svg>
