<svg xmlns="http://www.w3.org/2000/svg" viewBox="0 0 32 24"><defs><style></style></defs><g id="Layer_2" data-name="Layer 2"><g id="Layer_1-2" data-name="Layer 1"><path class="cls-1" d="M4,5.32A15.91,15.91,0,0,0,0,15H3.8A12.09,12.09,0,0,1,6.69,8Z"/><path class="cls-1" d="M15.58,16.93h0a.93.93,0,0,0-.52.83,1,1,0,0,0,1.64.63L20,14.73Z"/><path class="cls-1" d="M5.37,4,8,6.64a12.33,12.33,0,0,1,7-2.89V0A16,16,0,0,0,5.37,4Z"/><path class="cls-1" d="M16.94,0V3.75a12.28,12.28,0,0,1,7,2.9L26.63,4A16,16,0,0,0,16.94,0Z"/><path class="cls-1" d="M28,5.32,25.31,8a12.09,12.09,0,0,1,2.89,7H32A15.91,15.91,0,0,0,28,5.32Z"/><path class="cls-1" d="M3.64,24H28.36a2.27,2.27,0,0,0,2.06-1.19v0a16,16,0,0,0,1.57-6H28.17A12.32,12.32,0,0,1,27.56,20a.94.94,0,0,1-1.77-.62A10.36,10.36,0,0,0,23.35,8.6h0a10.45,10.45,0,0,0-14.7,0h0A10.3,10.3,0,0,0,6.21,19.33a.93.93,0,0,1-.57,1.19A.94.94,0,0,1,4.44,20a12.32,12.32,0,0,1-.61-3.12H0a15.44,15.44,0,0,0,1.57,6v0A2.27,2.27,0,0,0,3.64,24Zm11.1-8.75h0l8.85-4.4h0a.93.93,0,0,1,1.11,1.46L18.1,19.64a2.82,2.82,0,0,1-4.91-1.87A2.79,2.79,0,0,1,14.74,15.25Z"/></g></g></svg>