<svg  viewBox="0 0 48 48" xmlns="http://www.w3.org/2000/svg">
<mask id="mask0_70_162" style="mask-type:alpha" maskUnits="userSpaceOnUse" x="0" y="0" width="48" height="48">
<rect width="48" height="48"/>
</mask>
<g mask="url(#mask0_70_162)">
<path d="M24 31.1C26.9667 28.4 28.875 26.5083 29.725 25.425C30.575 24.3416 31 23.25 31 22.15C31 21.0833 30.625 20.175 29.875 19.425C29.125 18.675 28.2167 18.3 27.15 18.3C26.5167 18.3 25.925 18.425 25.375 18.675C24.825 18.925 24.3667 19.2666 24 19.7C23.6333 19.2666 23.175 18.925 22.625 18.675C22.075 18.425 21.4833 18.3 20.85 18.3C19.7833 18.3 18.875 18.675 18.125 19.425C17.375 20.175 17 21.0833 17 22.15C17 22.6833 17.075 23.1916 17.225 23.675C17.375 24.1583 17.7 24.7166 18.2 25.35C18.7 25.9833 19.4083 26.75 20.325 27.65C21.2417 28.55 22.4667 29.7 24 31.1ZM24 43.95C19.3333 42.7833 15.5 40.075 12.5 35.825C9.5 31.575 8 26.9166 8 21.85V9.94995L24 3.94995L40 9.94995V21.85C40 26.9166 38.5 31.575 35.5 35.825C32.5 40.075 28.6667 42.7833 24 43.95ZM24 40.85C27.8333 39.5833 30.9583 37.1916 33.375 33.675C35.7917 30.1583 37 26.2166 37 21.85V12.05L24 7.14995L11 12.05V21.85C11 26.2166 12.2083 30.1583 14.625 33.675C17.0417 37.1916 20.1667 39.5833 24 40.85Z" />
</g>
</svg>
