<svg  viewBox="0 0 48 48"  xmlns="http://www.w3.org/2000/svg">
<g clip-path="url(#clip0_31_1906)">
<path d="M24.0001 4.08008C13.0182 4.08008 4.08008 13.0182 4.08008 24.0001C4.08008 34.9819 13.0182 43.9201 24.0001 43.9201C34.9819 43.9201 43.9201 34.9819 43.9201 24.0001C43.9201 13.0182 34.9819 4.08008 24.0001 4.08008ZM24.0001 7.40008C33.1877 7.40008 40.6001 14.8125 40.6001 24.0001C40.6001 33.1877 33.1877 40.6001 24.0001 40.6001C14.8125 40.6001 7.40008 33.1877 7.40008 24.0001C7.40008 14.8125 14.8125 7.40008 24.0001 7.40008ZM24.0001 12.4222C22.0545 12.4222 20.2076 12.9031 18.5921 13.7515L20.1386 16.6922C21.292 16.0864 22.5991 15.7422 24.0001 15.7422C26.7443 15.7422 29.1512 17.0638 30.6628 19.0946L28.2409 21.1113L35.6201 22.3401V14.9609L33.2079 16.971C31.0842 14.2112 27.745 12.4222 24.0001 12.4222ZM16.3485 17.0391L10.0068 20.7709L12.62 21.7079C12.4678 22.458 12.3801 23.2316 12.3801 24.0228C12.3801 28.0685 14.4694 31.6485 17.6292 33.7202L19.448 30.9448C17.1896 29.4641 15.7001 26.9291 15.7001 24.0228C15.7001 23.6205 15.7391 23.2281 15.7941 22.8426L19.0201 24.0001L16.3485 17.0391ZM32.1866 25.3877C31.6602 28.5519 29.3325 31.0807 26.2826 31.9499L25.806 28.9801L21.0173 34.6604L27.3201 38.3954L26.8175 35.2667C31.2562 34.1576 34.7043 30.5014 35.4645 25.9324L32.1866 25.3877Z"/>
</g>
<defs>
<clipPath id="clip0_31_1906">
<rect width="48" height="48" />
</clipPath>
</defs>
</svg>
