<svg width="24" height="24" viewBox="0 0 24 24" fill="none" xmlns="http://www.w3.org/2000/svg">
<rect x="7" y="18" width="12" height="11" transform="rotate(-90 7 18)" fill="#FAFAFA"/>
<path fill-rule="evenodd" clip-rule="evenodd" d="M2 12C2 17.5228 6.47715 22 12 22C17.5228 22 22 17.5228 22 12C22 6.47715 17.5228 2 12 2C6.47715 2 2 6.47715 2 12ZM17.7912 11.7342L8.37769 6.81192C8.07665 6.65451 7.73938 7.0816 7.95158 7.34688C8.98749 8.64193 10.3221 10.585 10.3221 12.0001C10.3221 13.4152 8.98749 15.3582 7.95158 16.6533C7.73938 16.9186 8.07665 17.3456 8.37769 17.1882L17.7912 12.2659C18.0058 12.1537 18.0058 11.8465 17.7912 11.7342ZM12.9692 13.0132C12.4096 13.0132 11.956 12.5596 11.956 12C11.956 11.4404 12.4096 10.9868 12.9692 10.9868C13.5288 10.9868 13.9824 11.4404 13.9824 12C13.9824 12.5596 13.5288 13.0132 12.9692 13.0132Z" fill="black"/>
</svg>
