<svg  viewBox="0 0 48 48"  xmlns="http://www.w3.org/2000/svg">
<mask id="mask0_2190_46831" style="mask-type:alpha" maskUnits="userSpaceOnUse" x="0" y="0" width="48" height="48">
<rect width="48" height="48" />
</mask>
<g mask="url(#mask0_2190_46831)">
<path d="M12.2129 40C10.5462 40 9.12956 39.4167 7.96289 38.25C6.79622 37.0833 6.21289 35.6667 6.21289 34C6.21289 32.3333 6.79622 30.9167 7.96289 29.75C9.12956 28.5833 10.5462 28 12.2129 28C13.8796 28 15.2962 28.5833 16.4629 29.75C17.6296 30.9167 18.2129 32.3333 18.2129 34C18.2129 35.6667 17.6296 37.0833 16.4629 38.25C15.2962 39.4167 13.8796 40 12.2129 40ZM36.2129 40C34.5462 40 33.1296 39.4167 31.9629 38.25C30.7962 37.0833 30.2129 35.6667 30.2129 34C30.2129 32.3333 30.7962 30.9167 31.9629 29.75C33.1296 28.5833 34.5462 28 36.2129 28C37.8796 28 39.2962 28.5833 40.4629 29.75C41.6296 30.9167 42.2129 32.3333 42.2129 34C42.2129 35.6667 41.6296 37.0833 40.4629 38.25C39.2962 39.4167 37.8796 40 36.2129 40ZM24.2129 20C22.5462 20 21.1296 19.4167 19.9629 18.25C18.7962 17.0833 18.2129 15.6667 18.2129 14C18.2129 12.3333 18.7962 10.9167 19.9629 9.75C21.1296 8.58333 22.5462 8 24.2129 8C25.8796 8 27.2962 8.58333 28.4629 9.75C29.6296 10.9167 30.2129 12.3333 30.2129 14C30.2129 15.6667 29.6296 17.0833 28.4629 18.25C27.2962 19.4167 25.8796 20 24.2129 20Z"/>
</g>
</svg>