<?xml version="1.0" standalone="no"?>
<!DOCTYPE svg PUBLIC "-//W3C//DTD SVG 20010904//EN"
 "http://www.w3.org/TR/2001/REC-SVG-20010904/DTD/svg10.dtd">
<svg version="1.0" xmlns="http://www.w3.org/2000/svg"
 width="96.000000pt" height="96.000000pt" viewBox="0 0 96.000000 96.000000"
 preserveAspectRatio="xMidYMid meet">

<g transform="translate(0.000000,96.000000) scale(0.100000,-0.100000)" stroke="none">
<path d="M330 745 l0 -135 60 0 60 0 0 -50 0 -50 -105 0 -105 0 0 -80 0 -80
-60 0 -60 0 0 -135 0 -135 150 0 150 0 0 135 0 135 -60 0 -60 0 0 50 0 50 180
0 180 0 0 -50 0 -50 -60 0 -60 0 0 -135 0 -135 150 0 150 0 0 135 0 135 -60 0
-60 0 0 80 0 80 -105 0 -105 0 0 50 0 50 60 0 60 0 0 135 0 135 -150 0 -150 0
0 -135z m240 0 l0 -75 -90 0 -90 0 0 75 0 75 90 0 90 0 0 -75z m-210 -530 l0
-75 -90 0 -90 0 0 75 0 75 90 0 90 0 0 -75z m420 0 l0 -75 -90 0 -90 0 0 75 0
75 90 0 90 0 0 -75z"/>
</g>
</svg>
