<svg viewBox="0 0 48 48"  xmlns="http://www.w3.org/2000/svg">
<mask id="mask0_70_148" style="mask-type:alpha" maskUnits="userSpaceOnUse" x="0" y="0" width="48" height="48">
<rect y="48" width="48" height="48" transform="rotate(-90 0 48)" />
</mask>
<g mask="url(#mask0_70_148)">
<path d="M42 30.25C42 32.4167 41.2411 34.25 39.7234 35.75C38.2057 37.25 36.3813 38 34.25 38H16.8C16.3667 39.1667 15.6789 40.125 14.7368 40.875C13.7947 41.625 12.7213 42 11.5167 42C9.97222 42 8.66667 41.4583 7.6 40.375C6.53333 39.2917 6 37.9917 6 36.475C6 34.9583 6.53563 33.6667 7.6069 32.6C8.6782 31.5333 9.97905 31 11.5094 31C12.7031 31 13.775 31.375 14.725 32.125C15.675 32.875 16.3667 33.8333 16.8 35H34.25C35.5563 35 36.6745 34.5417 37.6047 33.625C38.5349 32.7083 39 31.575 39 30.225C39 28.875 38.5349 27.75 37.6047 26.85C36.6745 25.95 35.5563 25.5 34.25 25.5H13.75C11.5833 25.5 9.75 24.75 8.25 23.25C6.75 21.75 6 19.9167 6 17.75C6 15.5833 6.75 13.75 8.25 12.25C9.75 10.75 11.5833 10 13.75 10H31.2C31.6333 8.83333 32.3228 7.875 33.2682 7.125C34.2137 6.375 35.291 6 36.5 6C38 6 39.2917 6.53471 40.375 7.60415C41.4583 8.67361 42 9.97223 42 11.5C42 13 41.4583 14.2917 40.375 15.375C39.2917 16.4583 38 17 36.5 17C35.2901 17 34.2043 16.625 33.2426 15.875C32.2809 15.125 31.6 14.1667 31.2 13H13.75C12.4167 13 11.2917 13.4583 10.375 14.375C9.45833 15.2917 9 16.4167 9 17.75C9 19.0833 9.45833 20.2083 10.375 21.125C11.2917 22.0417 12.4167 22.5 13.75 22.5H34.25C36.3813 22.5 38.2057 23.25 39.7234 24.75C41.2411 26.25 42 28.0833 42 30.25ZM14 36.475C14 35.7917 13.75 35.2083 13.25 34.725C12.75 34.2417 12.1583 34 11.475 34C10.7917 34 10.2083 34.2396 9.725 34.7188C9.24167 35.1979 9 35.7917 9 36.5C9 37.1667 9.23958 37.75 9.71875 38.25C10.1979 38.75 10.7917 39 11.5 39C12.1667 39 12.75 38.75 13.25 38.25C13.75 37.75 14 37.1583 14 36.475ZM39 11.475C39 10.7917 38.75 10.2083 38.25 9.725C37.75 9.24166 37.1583 9 36.475 9C35.7917 9 35.2083 9.23958 34.725 9.71875C34.2417 10.1979 34 10.7917 34 11.5C34 12.1667 34.2396 12.75 34.7188 13.25C35.1979 13.75 35.7917 14 36.5 14C37.1667 14 37.75 13.75 38.25 13.25C38.75 12.75 39 12.1583 39 11.475Z" />
</g>
</svg>
