<svg  viewBox="0 0 50 50"  xmlns="http://www.w3.org/2000/svg">
<mask id="mask0_70_140" style="mask-type:alpha" maskUnits="userSpaceOnUse" x="0" y="0" width="50" height="50">
<rect width="50" height="50" />
</mask>
<g mask="url(#mask0_70_140)">
<path d="M39.7918 45.8334C39.5834 45.8334 39.3924 45.7987 39.2188 45.7292C39.0452 45.6598 38.8716 45.5382 38.698 45.3646L26.0938 32.7605C25.9202 32.5868 25.7987 32.4132 25.7292 32.2396C25.6598 32.066 25.6251 31.875 25.6251 31.6667C25.6251 31.4584 25.6598 31.2674 25.7292 31.0938C25.7987 30.9202 25.9202 30.7466 26.0938 30.573L30.5209 26.1459C30.6945 25.9723 30.8681 25.8507 31.0418 25.7813C31.2154 25.7118 31.4063 25.6771 31.6147 25.6771C31.823 25.6771 32.014 25.7118 32.1876 25.7813C32.3612 25.8507 32.5348 25.9723 32.7084 26.1459L45.3126 38.75C45.4862 38.9237 45.6077 39.0973 45.6772 39.2709C45.7466 39.4445 45.7813 39.6355 45.7813 39.8438C45.7813 40.0521 45.7466 40.2431 45.6772 40.4167C45.6077 40.5903 45.4862 40.7639 45.3126 40.9375L40.8855 45.3646C40.7119 45.5382 40.5383 45.6598 40.3647 45.7292C40.1911 45.7987 40.0001 45.8334 39.7918 45.8334ZM39.7918 42.0834L42.0313 39.8438L31.6147 29.4271L29.3751 31.6667L39.7918 42.0834ZM10.1563 45.8334C9.948 45.8334 9.74835 45.7987 9.55737 45.7292C9.3664 45.6598 9.18411 45.5382 9.0105 45.3646L4.6355 40.9896C4.46189 40.816 4.34036 40.6337 4.27091 40.4427C4.20147 40.2518 4.16675 40.0521 4.16675 39.8438C4.16675 39.6355 4.20147 39.4445 4.27091 39.2709C4.34036 39.0973 4.46189 38.9237 4.6355 38.75L16.3542 27.0313H20.7813L22.7605 25.0521L13.6459 15.9375H10.6772L4.16675 9.42712L9.323 4.27087L15.8334 10.7813V13.75L24.948 22.8646L31.7188 16.0938L28.2292 12.6042L31.1459 9.68754H25.2605L24.323 8.75004L30.9897 2.08337L31.9272 3.02087V8.90629L34.8438 5.98962L43.6459 14.7917C44.1668 15.3125 44.5747 15.9115 44.8699 16.5886C45.165 17.2657 45.3126 17.9862 45.3126 18.75C45.3126 19.4445 45.1997 20.1129 44.974 20.7552C44.7483 21.3976 44.4272 21.9792 44.0105 22.5L39.5834 18.073L36.6668 20.9896L33.9584 18.2813L22.9688 29.2709V33.6459L11.2501 45.3646C11.0765 45.5382 10.9029 45.6598 10.7292 45.7292C10.5556 45.7987 10.3647 45.8334 10.1563 45.8334ZM10.1563 42.0834L20.573 31.6667V29.4271H18.3334L7.91675 39.8438L10.1563 42.0834ZM10.1563 42.0834L7.91675 39.8438L9.06258 40.9375L10.1563 42.0834Z" />
</g>
</svg>
