<svg width="48" height="48" viewBox="0 0 48 48"  xmlns="http://www.w3.org/2000/svg">
<mask id="mask0_70_138" style="mask-type:alpha" maskUnits="userSpaceOnUse" x="0" y="0" width="48" height="48">
<rect width="48" height="48"/>
</mask>
<g mask="url(#mask0_70_138)">
<path d="M15 33.7C15.4 33.7 15.75 33.55 16.05 33.25C16.35 32.95 16.5 32.6 16.5 32.2C16.5 31.8 16.35 31.45 16.05 31.15C15.75 30.85 15.4 30.7 15 30.7C14.6 30.7 14.25 30.85 13.95 31.15C13.65 31.45 13.5 31.8 13.5 32.2C13.5 32.6 13.65 32.95 13.95 33.25C14.25 33.55 14.6 33.7 15 33.7ZM15 25.5C15.4 25.5 15.75 25.35 16.05 25.05C16.35 24.75 16.5 24.4 16.5 24C16.5 23.6 16.35 23.25 16.05 22.95C15.75 22.65 15.4 22.5 15 22.5C14.6 22.5 14.25 22.65 13.95 22.95C13.65 23.25 13.5 23.6 13.5 24C13.5 24.4 13.65 24.75 13.95 25.05C14.25 25.35 14.6 25.5 15 25.5ZM15 17.3C15.4 17.3 15.75 17.15 16.05 16.85C16.35 16.55 16.5 16.2 16.5 15.8C16.5 15.4 16.35 15.05 16.05 14.75C15.75 14.45 15.4 14.3 15 14.3C14.6 14.3 14.25 14.45 13.95 14.75C13.65 15.05 13.5 15.4 13.5 15.8C13.5 16.2 13.65 16.55 13.95 16.85C14.25 17.15 14.6 17.3 15 17.3ZM21.6 33.7H33.8V30.7H21.6V33.7ZM21.6 25.5H33.8V22.5H21.6V25.5ZM21.6 17.3H33.8V14.3H21.6V17.3ZM9 42C8.2 42 7.5 41.7 6.9 41.1C6.3 40.5 6 39.8 6 39V9C6 8.2 6.3 7.5 6.9 6.9C7.5 6.3 8.2 6 9 6H39C39.8 6 40.5 6.3 41.1 6.9C41.7 7.5 42 8.2 42 9V39C42 39.8 41.7 40.5 41.1 41.1C40.5 41.7 39.8 42 39 42H9ZM9 39H39V9H9V39Z" />
</g>
</svg>
