<svg width="24" height="24" viewBox="0 0 24 24" fill="none" xmlns="http://www.w3.org/2000/svg">
<rect x="6" y="7" width="12" height="11" fill="#FAFAFA"/>
<path fill-rule="evenodd" clip-rule="evenodd" d="M12 2C6.47715 2 2 6.47715 2 12C2 17.5228 6.47715 22 12 22C17.5228 22 22 17.5228 22 12C22 6.47715 17.5228 2 12 2ZM12.2658 17.7912L17.1881 8.37769C17.3455 8.07665 16.9184 7.73938 16.6531 7.95158C15.3581 8.98749 13.415 10.3221 11.9999 10.3221C10.5848 10.3221 8.64178 8.98749 7.34673 7.95158C7.08145 7.73938 6.65435 8.07665 6.81176 8.37769L11.7341 17.7912C11.8463 18.0058 12.1535 18.0058 12.2658 17.7912ZM10.9868 12.9692C10.9868 12.4096 11.4404 11.956 12 11.956C12.5596 11.956 13.0132 12.4096 13.0132 12.9692C13.0132 13.5288 12.5596 13.9824 12 13.9824C11.4404 13.9824 10.9868 13.5288 10.9868 12.9692Z" fill="#2196F3"/>
</svg>
