<svg viewBox="0 0 49 10" xmlns="http://www.w3.org/2000/svg">
<path d="M49 14L49 19L45 19.5L24 19.5L24 13.5L45 13.5L49 14Z"/>
<path d="M25 6.5C25.5523 6.5 26 6.94772 26 7.5L26 25.5C26 26.0523 25.5523 26.5 25 26.5L13 26.5L11 24.5L11 8.5L13 6.5L25 6.5Z"/>
<path opacity="0.16" d="M25 6.5C25.5523 6.5 26 6.94772 26 7.5L26 25.5C26 26.0523 25.5523 26.5 25 26.5L23 26.5L23 6.5L25 6.5Z" fill="black"/>
<path opacity="0.16" d="M21 9L23 6.5L13 6.5L11 8.5L11 24.5L13 22.5L13 10.5L14.5 9L21 9Z" fill="black"/>
<path opacity="0.24" d="M21 9L23 6.5L23 26.5L13 26.5L11 24.5L13 22.5L14.5 24L21 24L21 9Z" fill="white"/>
<path d="M15 6.5L16 7.5L20 7.5L21 6.5L15 6.5Z" fill="#555555"/>
<path d="M21 26.5L20 25.5L16 25.5L15 26.5L21 26.5Z" fill="#555555"/>
<path opacity="0.32" d="M11 21.5L12 20.5L12 12.5L11 11.5L11 21.5Z" fill="#222222"/>
<path d="M21.7368 14.5877C21.8663 14.5446 22 14.641 22 14.7775L22 18.2225C22 18.359 21.8663 18.4554 21.7368 18.4123L21.4237 18.3079C20.8119 18.104 20.1712 18 19.5263 18L14.4737 18C13.8288 18 13.1881 18.104 12.5763 18.3079L12.2632 18.4123C12.1337 18.4554 12 18.359 12 18.2225L12 14.7775C12 14.641 12.1337 14.5446 12.2632 14.5877L12.5763 14.6921C13.1881 14.896 13.8288 15 14.4737 15L19.5263 15C20.1712 15 20.8119 14.896 21.4237 14.6921L21.7368 14.5877Z" fill="#222222"/>
<circle cx="17" cy="16.5" r="1.125" transform="rotate(90 17 16.5)" fill="#FF9500" stroke="#444444" stroke-width="0.25"/>
<path d="M19.9825 27.0613C20.055 27.2771 19.893 27.5 19.6636 27.5L16.3364 27.5C16.107 27.5 15.945 27.2771 16.0175 27.0613L16.3364 26C16.3822 25.8639 16.5106 25.7721 16.6553 25.7721L19.3447 25.7721C19.4894 25.7721 19.6178 25.8639 19.6636 26L19.9825 27.0613Z" fill="#222222"/>
<path d="M16.0175 5.93874C15.945 5.7229 16.107 5.5 16.3364 5.5L19.6636 5.5C19.893 5.5 20.055 5.7229 19.9825 5.93874L19.6636 7C19.6178 7.13611 19.4894 7.22792 19.3447 7.22792L16.6553 7.22792C16.5106 7.22792 16.3822 7.13611 16.3364 7L16.0175 5.93874Z" fill="#222222"/>
<path d="M11.5 18.25C11.5 18.9404 10.9404 19.5 10.25 19.5L9 19.5L9 13.5L10.25 13.5C10.9404 13.5 11.5 14.0596 11.5 14.75L11.5 18.25Z" fill="#222222"/>
<rect x="45.5" y="14" width="1" height="0.5" transform="rotate(90 45.5 14)" fill="#222222"/>
<rect x="45.5" y="18" width="1" height="0.5" transform="rotate(90 45.5 18)" fill="#222222"/>
<path d="M0.759712 16.9341C0.423805 16.7422 0.423805 16.2578 0.759713 16.0659L5.83781 13.1641C6.23949 12.9346 6.71064 13.3267 6.55781 13.7634L5.65781 16.3348C5.62038 16.4418 5.62038 16.5582 5.65781 16.6652L6.55781 19.2366C6.71064 19.6733 6.23949 20.0654 5.83781 19.8359L0.759712 16.9341Z"/>
<path opacity="0.16" d="M1.01462 15.9206C0.98403 16.1141 1.06535 16.3232 1.25974 16.4342L6.33786 19.3356C6.41963 19.3823 6.50423 19.4019 6.58591 19.402C6.58895 19.764 6.18776 20.0355 5.83786 19.8356L0.759735 16.9342C0.42385 16.7423 0.423893 16.258 0.759735 16.0661L1.01462 15.9206Z" fill="#222222"/>
<path opacity="0.24" d="M5.83786 13.1638C6.18719 12.9643 6.58772 13.2352 6.58591 13.5964C6.50429 13.5964 6.41957 13.6171 6.33786 13.6638L1.25974 16.5661C1.0653 16.6772 0.983898 16.8861 1.01462 17.0798L0.759735 16.9343C0.423851 16.7423 0.423898 16.2581 0.759735 16.0661L5.83786 13.1638Z" fill="white"/>
</svg>
