<svg width="13" height="14" viewBox="0 0 13 14" fill="none" xmlns="http://www.w3.org/2000/svg">
<path fill-rule="evenodd" clip-rule="evenodd" d="M0.694865 0.0507054L12.7337 6.63829C13.0229 6.79657 13.0229 7.212 12.7337 7.37028L0.694865 13.9579C0.281222 14.1842 -0.199165 13.6012 0.086165 13.2258C1.41659 11.4755 3.0958 8.8923 3.0958 7.00428C3.0958 5.11627 1.41659 2.53308 0.0861629 0.782721C-0.199167 0.407331 0.281222 -0.175638 0.694865 0.0507054ZM5.2069 7.00467C5.2069 7.76123 5.79299 8.37455 6.51596 8.37455C7.23893 8.37455 7.82502 7.76123 7.82502 7.00467C7.82502 6.24811 7.23893 5.63479 6.51596 5.63479C5.79299 5.63479 5.2069 6.24811 5.2069 7.00467Z" fill="black"/>
<rect x="5.11523" y="5.35156" width="3.87595" height="4.05603" fill="black"/>
</svg>
