<svg viewBox="0 0 45 10" xmlns="http://www.w3.org/2000/svg">
<path d="M40 4.5L40 7.5L36 8L15 8L15 4L36 4L40 4.5Z" />
<path d="M40 14.5L40 17.5L36 18L15 18L15 14L36 14L40 14.5Z"/>
<path d="M16 1C16.5523 1 17 1.44772 17 2L17 20C17 20.5523 16.5523 21 16 21L4 21L2 19L2 3L4 0.999999L16 1Z"/>
<path opacity="0.16" d="M16 1C16.5523 1 17 1.44772 17 2L17 20C17 20.5523 16.5523 21 16 21L14 21L14 1L16 1Z" fill="black"/>
<path opacity="0.16" d="M12 3.5L14 1L4 1L2 3L2 19L4 17L4 5L5.5 3.5L12 3.5Z" fill="black"/>
<path opacity="0.24" d="M12 3.5L14 1L14 21L4 21L2 19L4 17L5.5 18.5L12 18.5L12 3.5Z" fill="white"/>
<path d="M6 1L7 2L11 2L12 1L6 1Z" fill="#555555"/>
<path d="M12 21L11 20L7 20L6 21L12 21Z" fill="#555555"/>
<path d="M2 16L3 15L3 7L2 6L2 16Z" fill="#555555"/>
<path d="M12.7368 9.08775C12.8663 9.04458 13 9.14097 13 9.27749L13 12.7225C13 12.859 12.8663 12.9554 12.7368 12.9123L12.4237 12.8079C11.8119 12.604 11.1712 12.5 10.5263 12.5L5.47367 12.5C4.82877 12.5 4.1881 12.604 3.5763 12.8079L3.26325 12.9123C3.13374 12.9554 3 12.859 3 12.7225L3 9.27748C3 9.14097 3.13374 9.04458 3.26325 9.08775L3.5763 9.1921C4.1881 9.39603 4.82877 9.5 5.47367 9.5L10.5263 9.5C11.1712 9.5 11.8119 9.39603 12.4237 9.1921L12.7368 9.08775Z" fill="#222222"/>
<circle cx="8" cy="11" r="1.125" transform="rotate(90 8 11)" fill="#FF9500" stroke="#444444" stroke-width="0.25"/>
<path d="M10.9825 21.5613C11.055 21.7771 10.893 22 10.6636 22L7.33642 22C7.10697 22 6.94495 21.7771 7.01751 21.5613L7.33642 20.5C7.38217 20.3639 7.51063 20.2721 7.65532 20.2721L10.3447 20.2721C10.4894 20.2721 10.6178 20.3639 10.6636 20.5L10.9825 21.5613Z" fill="#222222"/>
<path d="M7.01751 0.438743C6.94495 0.222899 7.10697 1.99905e-07 7.33642 2.1267e-07L10.6636 2.03828e-07C10.893 2.16594e-07 11.055 0.222899 10.9825 0.438743L10.6636 1.5C10.6178 1.63611 10.4894 1.72792 10.3447 1.72792L7.65532 1.72792C7.51063 1.72792 7.38217 1.63611 7.33642 1.5L7.01751 0.438743Z" fill="#222222"/>
<path d="M2.5 12.75C2.5 13.4404 1.94036 14 1.25 14L0 14L1.90719e-07 8L1.25 8C1.94036 8 2.5 8.55964 2.5 9.25L2.5 12.75Z" fill="#222222"/>
<rect x="36" y="4" width="1" height="0.5" transform="rotate(90 36 4)" fill="#222222"/>
<rect x="36" y="14" width="1" height="0.5" transform="rotate(90 36 14)" fill="#222222"/>
<rect x="36" y="7" width="1" height="0.5" transform="rotate(90 36 7)" fill="#222222"/>
<rect x="36" y="17" width="1" height="0.5" transform="rotate(90 36 17)" fill="#222222"/>
</svg>
