<svg viewBox="0 0 49 10" xmlns="http://www.w3.org/2000/svg">
<path d="M49 5L49 8L45 8.5L24 8.5L24 4.5L45 4.5L49 5Z"/>
<path d="M49 15L49 18L45 18.5L24 18.5L24 14.5L45 14.5L49 15Z"/>
<path d="M25 1.5C25.5523 1.5 26 1.94772 26 2.5L26 20.5C26 21.0523 25.5523 21.5 25 21.5L13 21.5L11 19.5L11 3.5L13 1.5L25 1.5Z"/>
<path opacity="0.16" d="M25 1.5C25.5523 1.5 26 1.94772 26 2.5L26 20.5C26 21.0523 25.5523 21.5 25 21.5L23 21.5L23 1.5L25 1.5Z" fill="black"/>
<path opacity="0.16" d="M21 4L23 1.5L13 1.5L11 3.5L11 19.5L13 17.5L13 5.5L14.5 4L21 4Z" fill="black"/>
<path opacity="0.24" d="M21 4L23 1.5L23 21.5L13 21.5L11 19.5L13 17.5L14.5 19L21 19L21 4Z" fill="white"/>
<path d="M15 1.5L16 2.5L20 2.5L21 1.5L15 1.5Z" fill="#555555"/>
<path d="M21 21.5L20 20.5L16 20.5L15 21.5L21 21.5Z" fill="#555555"/>
<path opacity="0.32" d="M11 16.5L12 15.5L12 7.5L11 6.5L11 16.5Z" fill="#222222"/>
<path d="M21.7368 9.58775C21.8663 9.54458 22 9.64097 22 9.77749L22 13.2225C22 13.359 21.8663 13.4554 21.7368 13.4123L21.4237 13.3079C20.8119 13.104 20.1712 13 19.5263 13L14.4737 13C13.8288 13 13.1881 13.104 12.5763 13.3079L12.2632 13.4123C12.1337 13.4554 12 13.359 12 13.2225L12 9.77748C12 9.64097 12.1337 9.54458 12.2632 9.58775L12.5763 9.6921C13.1881 9.89603 13.8288 10 14.4737 10L19.5263 10C20.1712 10 20.8119 9.89603 21.4237 9.6921L21.7368 9.58775Z" fill="#222222"/>
<circle cx="17" cy="11.5" r="1.125" transform="rotate(90 17 11.5)" fill="#FF9500" stroke="#444444" stroke-width="0.25"/>
<path d="M19.9825 22.0613C20.055 22.2771 19.893 22.5 19.6636 22.5L16.3364 22.5C16.107 22.5 15.945 22.2771 16.0175 22.0613L16.3364 21C16.3822 20.8639 16.5106 20.7721 16.6553 20.7721L19.3447 20.7721C19.4894 20.7721 19.6178 20.8639 19.6636 21L19.9825 22.0613Z" fill="#222222"/>
<path d="M16.0175 0.938743C15.945 0.722899 16.107 0.5 16.3364 0.5L19.6636 0.5C19.893 0.5 20.055 0.722899 19.9825 0.938743L19.6636 2C19.6178 2.13611 19.4894 2.22792 19.3447 2.22792L16.6553 2.22792C16.5106 2.22792 16.3822 2.13611 16.3364 2L16.0175 0.938743Z" fill="#222222"/>
<path d="M11.5 13.25C11.5 13.9404 10.9404 14.5 10.25 14.5L9 14.5L9 8.5L10.25 8.5C10.9404 8.5 11.5 9.05964 11.5 9.75L11.5 13.25Z" fill="#222222"/>
<rect x="45" y="4.5" width="1" height="0.5" transform="rotate(90 45 4.5)" fill="#222222"/>
<rect x="45" y="14.5" width="1" height="0.5" transform="rotate(90 45 14.5)" fill="#222222"/>
<rect x="45" y="7.5" width="1" height="0.5" transform="rotate(90 45 7.5)" fill="#222222"/>
<rect x="45" y="17.5" width="1" height="0.5" transform="rotate(90 45 17.5)" fill="#222222"/>
<path d="M0.759712 11.9341C0.423805 11.7422 0.423805 11.2578 0.759713 11.0659L5.83781 8.16411C6.23949 7.93458 6.71064 8.32675 6.55781 8.76341L5.65781 11.3348C5.62038 11.4418 5.62038 11.5582 5.65781 11.6652L6.55781 14.2366C6.71064 14.6733 6.23949 15.0654 5.83781 14.8359L0.759712 11.9341Z"/>
<path opacity="0.16" fill-rule="evenodd" clip-rule="evenodd" d="M1.014 10.9206C0.98346 11.1141 1.06536 11.3231 1.25971 11.4341L6.33781 14.3359C6.42005 14.3829 6.50519 14.4038 6.5873 14.4036C6.58911 14.7648 6.18718 15.0355 5.83781 14.8359L0.759712 11.9341C0.423805 11.7422 0.423805 11.2578 0.759713 11.0659L1.014 10.9206Z" fill="#222222"/>
<path opacity="0.24" fill-rule="evenodd" clip-rule="evenodd" d="M0.759713 11.0659C0.423805 11.2578 0.423805 11.7422 0.759712 11.9341L1.014 12.0795C0.983461 11.8859 1.06536 11.677 1.25971 11.5659L6.33781 8.66413C6.42004 8.61714 6.50519 8.5962 6.5873 8.59638C6.58911 8.23517 6.18718 7.96449 5.83781 8.16413L0.759713 11.0659Z" fill="white"/>
</svg>
