<svg  viewBox="0 0 50 50"  xmlns="http://www.w3.org/2000/svg">
<mask id="mask0_70_147" style="mask-type:alpha" maskUnits="userSpaceOnUse" x="0" y="0" width="50" height="50">
<rect width="50" height="50" fill="#D9D9D9"/>
</mask>
<g mask="url(#mask0_70_147)">
<path d="M24.9999 41.6667C20.3819 41.6667 16.4496 40.0434 13.203 36.7969C9.95652 33.5504 8.33325 29.6181 8.33325 25C8.33325 20.382 9.95652 16.4497 13.203 13.2032C16.4496 9.95664 20.3819 8.33337 24.9999 8.33337C27.9513 8.33337 30.5381 8.93233 32.7603 10.1302C34.9826 11.3282 36.9096 12.9688 38.5416 15.0521V8.33337H41.6666V21.5625H28.4374V18.4375H37.1874C35.868 16.3542 34.1839 14.6702 32.1353 13.3855C30.0867 12.1007 27.7083 11.4584 24.9999 11.4584C21.2152 11.4584 18.0121 12.7691 15.3905 15.3907C12.769 18.0122 11.4583 21.2153 11.4583 25C11.4583 28.7848 12.769 31.9879 15.3905 34.6094C18.0121 37.2309 21.2152 38.5417 24.9999 38.5417C27.8819 38.5417 30.5208 37.7171 32.9166 36.0677C35.3124 34.4184 36.9791 32.2396 37.9166 29.5313H41.1458C40.1388 33.1771 38.1423 36.1112 35.1562 38.3334C32.1701 40.5556 28.7846 41.6667 24.9999 41.6667Z" />
</g>
</svg>
