<svg  viewBox="0 0 30 63"  xmlns="http://www.w3.org/2000/svg">
<path d="M9.16634 16.5L8.33301 15.6666L14.9997 0.666626L21.6663 15.6666L20.833 16.5L14.9997 14L9.16634 16.5Z" />
<g clip-path="url(#clip0_277_7295)">
<g clip-path="url(#clip1_277_7295)">
<path d="M9.26454 56.8684H21.0454L21.0454 23.882H9.26454L9.26454 56.8684Z" fill="white"/>
<path d="M14.2126 20.4137H16.0975C16.1635 20.4137 16.2153 20.3619 16.2153 20.2959V19.1202C16.2153 19.0542 16.1635 19 16.0975 19H14.2126C14.1466 19 14.0948 19.0542 14.0948 19.1202V20.2959C14.0948 20.3619 14.1466 20.4137 14.2126 20.4137Z" />
<path d="M5.84776 43.5961L4.84638 44.9533L4.78041 45.0428C4.66496 45.2007 4.58956 45.3844 4.56364 45.5753C4.55657 45.6295 4.55186 45.686 4.55186 45.7402L4.55186 55.1626C4.55186 55.9919 4.84638 56.8001 5.38359 57.4386L5.39537 57.4528L5.59093 57.6884L7.25911 59.6723C7.70678 60.2071 8.36651 60.5158 9.06393 60.5158H10.9135C11.0431 60.5158 11.1491 60.6195 11.1491 60.7491V62.4007C11.1491 62.5303 11.2552 62.6364 11.3848 62.6364H18.9245C19.0541 62.6364 19.1601 62.5303 19.1601 62.4007V60.7491C19.1601 60.6195 19.2662 60.5158 19.3958 60.5158H21.1134C21.8108 60.5158 22.4706 60.2071 22.9182 59.6723L24.5864 57.6884L24.782 57.4528L24.7938 57.4386C25.331 56.8001 25.6255 55.9919 25.6255 55.1626L25.6255 45.7402C25.6255 45.686 25.6208 45.6295 25.6137 45.5753C25.5878 45.3844 25.5124 45.2007 25.3969 45.0428L25.331 44.9533L24.3296 43.5961C24.1812 43.3935 24.101 43.1484 24.101 42.8987V39.0699C24.101 38.8178 24.1812 38.5751 24.3296 38.3725L25.331 37.0153L25.3969 36.9258C25.5124 36.7655 25.5878 36.5818 25.6137 36.3862C25.6208 36.3344 25.6255 36.2802 25.6255 36.226V24.4616C25.6255 23.6322 25.3333 22.8264 24.7985 22.1902L24.7325 22.1101L24.5322 21.8745L22.8664 19.8883C22.4187 19.3534 21.759 19.0471 21.0616 19.0471H17.1433C17.0137 19.0471 16.9076 19.1508 16.9076 19.2804V20.9321C16.9076 21.0616 16.8016 21.1677 16.672 21.1677H13.609C13.4794 21.1677 13.3734 21.0616 13.3734 20.9321V19.2804C13.3734 19.1508 13.2674 19.0471 13.1378 19.0471H9.11577C8.41834 19.0471 7.75861 19.3534 7.31094 19.8883L5.64512 21.8745L5.44485 22.1101L5.37888 22.1902C4.84403 22.8264 4.55186 23.6322 4.55186 24.4616V36.226C4.55186 36.2802 4.55657 36.3344 4.56364 36.3862C4.58956 36.5818 4.66496 36.7655 4.78041 36.9258L4.84638 37.0153L5.84776 38.3725C5.99619 38.5751 6.0763 38.8178 6.0763 39.0699V42.8987C6.0763 43.1484 5.99619 43.3935 5.84776 43.5961ZM17.9821 61.4135C17.9821 61.5431 17.876 61.6468 17.7464 61.6468H12.5629C12.4333 61.6468 12.3272 61.5431 12.3272 61.4135V60.7043C12.3272 60.5747 12.4333 60.4687 12.5629 60.4687H17.7464C17.876 60.4687 17.9821 60.5747 17.9821 60.7043V61.4135ZM11.1491 35.3801L12.273 24.1176C12.2778 24.0493 12.3508 23.9998 12.438 23.9998H17.9773C18.0645 23.9998 18.1376 24.0493 18.1423 24.1176L19.1601 34.3081L19.1601 47.604L18.1211 56.6328C18.1164 56.6964 18.041 56.7506 17.9561 56.7506H12.4686C12.3814 56.7506 12.3084 56.6964 12.3013 56.6328L11.1491 46.6096L11.1491 35.3801Z" />
<path d="M12.6218 56.0909C12.6289 56.1545 12.6925 56.204 12.7702 56.204H17.6122C17.6876 56.204 17.7535 56.1545 17.7583 56.0909L18.6748 47.3613L18.6748 34.5083L17.7771 24.6572C17.7747 24.5935 17.7088 24.5441 17.631 24.5441H12.742C12.6666 24.5441 12.6029 24.5935 12.5982 24.6572L11.6063 35.545L11.6063 46.4046L12.6218 56.0909ZM15.0887 39.2136C16.0642 39.2136 16.8558 40.0029 16.8558 40.9807C16.8558 41.9585 16.0642 42.7479 15.0887 42.7479C14.1133 42.7479 13.3216 41.9562 13.3216 40.9807C13.3216 40.0053 14.1133 39.2136 15.0887 39.2136Z" />
<path d="M4.84668 45.5753H4.37544C3.98432 45.5753 3.66859 45.2596 3.66859 44.8685L3.66859 37.0931C3.66859 36.702 3.98432 36.3862 4.37544 36.3862H4.84668L4.84668 45.5753Z" />
<path d="M26.038 45.5753H25.3312V36.3862H26.038C26.2972 36.3862 26.5093 36.5983 26.5093 36.8575V45.1041C26.5093 45.3633 26.2972 45.5753 26.038 45.5753Z" />
</g>
</g>
<defs>
<clipPath id="clip0_277_7295">
<rect width="30" height="43.6364" fill="white" transform="matrix(-1 0 0 -1 30 62.6364)"/>
</clipPath>
<clipPath id="clip1_277_7295">
<rect width="22.8408" height="43.6364" fill="white" transform="matrix(-1 0 0 -1 26.5093 62.6364)"/>
</clipPath>
</defs>
</svg>
