<svg viewBox="0 0 36 17" xmlns="http://www.w3.org/2000/svg">
	<path d="M5.21913 0.740743C5.40038 0.585392 5.63121 0.5 5.86992 0.5H30.1301C30.3688 0.5 30.5996 0.585392 30.7809 0.740743L33.6508 3.20068C33.8724 3.39066 34 3.66801 34 3.95993V13.0401C34 13.332 33.8724 13.6093 33.6508 13.7993L30.7809 16.2593C30.5996 16.4146 30.3688 16.5 30.1301 16.5H5.86992C5.63121 16.5 5.40038 16.4146 5.21913 16.2593L2.34921 13.7993C2.12756 13.6093 2 13.332 2 13.0401V3.95994C2 3.66801 2.12756 3.39066 2.34921 3.20068L5.21913 0.740743Z" />
	<path opacity="0.16" d="M3.07589 2.57782L2.34921 3.20069C2.12756 3.39067 2 3.66802 2 3.95995V13.0401C2 13.332 2.12756 13.6094 2.34921 13.7993L5.21913 16.2593C5.40038 16.4146 5.63121 16.5 5.86992 16.5H30.1301C30.3688 16.5 30.5996 16.4146 30.7809 16.2593L33.6508 13.7993C33.7717 13.6957 33.8646 13.566 33.9241 13.4222L31.7809 15.2593C31.5996 15.4146 31.3688 15.5 31.1301 15.5H6.86992C6.63121 15.5 6.40038 15.4146 6.21913 15.2593L3.34921 12.7993C3.12756 12.6094 3 12.332 3 12.0401V2.95995C3 2.82728 3.02634 2.69763 3.07589 2.57782Z" fill="#222222" />
	<path opacity="0.24" d="M5.86996 0.5C5.63125 0.5 5.40041 0.585392 5.21917 0.740743L2.34925 3.20068C2.22833 3.30432 2.13541 3.43397 2.07593 3.57781L4.21917 1.74074C4.40041 1.58539 4.63125 1.5 4.86996 1.5H29.1301C29.3688 1.5 29.5997 1.58539 29.7809 1.74074L32.6508 4.20068C32.8725 4.39066 33 4.66801 33 4.95993V14.0401C33 14.1727 32.9737 14.3024 32.9241 14.4222L33.6508 13.7993C33.8725 13.6093 34 13.332 34 13.0401V3.95993C34 3.66801 33.8725 3.39066 33.6508 3.20068L30.7809 0.740743C30.5997 0.585392 30.3688 0.5 30.1301 0.5H5.86996Z" fill="white" />
	<path opacity="0.16" d="M10 5.5C10 4.94772 10.4477 4.5 11 4.5H25C25.5523 4.5 26 4.94772 26 5.5V11.5C26 12.0523 25.5523 12.5 25 12.5H11C10.4477 12.5 10 12.0523 10 11.5V5.5Z" fill="#222222" />
	<path d="M23.0352 6.00503C23.0118 6.00168 22.9881 6 22.9645 6H13.0355C13.0119 6 12.9882 6.00168 12.9648 6.00503L6.42929 6.93867C6.18296 6.97386 6 7.18482 6 7.43365V9.56635C6 9.81518 6.18296 10.0261 6.42929 10.0613L12.9648 10.995C12.9882 10.9983 13.0119 11 13.0355 11H22.9645C22.9881 11 23.0118 10.9983 23.0352 10.995L29.5707 10.0613C29.817 10.0261 30 9.81518 30 9.56635V7.43365C30 7.18482 29.817 6.97386 29.5707 6.93867L23.0352 6.00503Z" fill="#222222" />
	<path opacity="0.48" d="M21.2764 1.94721C21.107 2.286 20.7607 2.5 20.382 2.5L15.618 2.5C15.2393 2.5 14.893 2.286 14.7236 1.94721L14 0.499999L22 0.5L21.2764 1.94721Z" fill="#222222" />
	<path opacity="0.48" d="M14.7236 15.0528C14.893 14.714 15.2393 14.5 15.618 14.5L20.382 14.5C20.7607 14.5 21.107 14.714 21.2764 15.0528L22 16.5H14L14.7236 15.0528Z" fill="#222222" />
	<circle cx="18" cy="8.5" r="2" fill="#FF9500" />
	<circle cx="18" cy="8.5" r="1.875" stroke="#666666" stroke-width="0.25" />
	<path opacity="0.2" fill-rule="evenodd" clip-rule="evenodd" d="M19.6421 9.64206C19.3183 9.8677 18.9246 10 18.5 10C17.3954 10 16.5 9.10458 16.5 8.00001C16.5 7.57544 16.6323 7.18177 16.8579 6.85797C16.3393 7.21933 16 7.82005 16 8.50002C16 9.60459 16.8954 10.5 18 10.5C18.68 10.5 19.2807 10.1607 19.6421 9.64206Z" fill="#222222" />
	<path d="M32.5 8.5C32.5 9.05228 32.1642 9.5 31.75 9.5C31.3358 9.5 31 9.05228 31 8.5C31 7.94772 31.3358 7.5 31.75 7.5C32.1642 7.5 32.5 7.94772 32.5 8.5Z" fill="#444444" />
	<path fill-rule="evenodd" clip-rule="evenodd" d="M32.1203 9.08711C32.2277 8.94397 32.3 8.73705 32.3 8.5C32.3 8.26295 32.2277 8.05603 32.1203 7.91289C32.013 7.76981 31.88 7.7 31.75 7.7C31.62 7.7 31.487 7.76981 31.3797 7.91289C31.2723 8.05603 31.2 8.26295 31.2 8.5C31.2 8.73705 31.2723 8.94397 31.3797 9.08711C31.487 9.23019 31.62 9.3 31.75 9.3C31.88 9.3 32.013 9.23019 32.1203 9.08711ZM31.75 9.5C32.1642 9.5 32.5 9.05228 32.5 8.5C32.5 7.94772 32.1642 7.5 31.75 7.5C31.3358 7.5 31 7.94772 31 8.5C31 9.05228 31.3358 9.5 31.75 9.5Z" fill="#666666" />
	<path d="M16.7628 15.6709C16.7968 15.5689 16.8923 15.5 16.9999 15.5L19 15.5C19.1076 15.5 19.2032 15.5689 19.2372 15.6709L19.4743 16.6709C19.5283 16.8328 19.4078 17 19.2372 17L16.7628 17C16.5921 17 16.4716 16.8328 16.5256 16.6709L16.7628 15.6709Z" fill="#444444" />
	<path d="M0 6.75C0 6.05964 0.559644 5.5 1.25 5.5H2V11.5H1.25C0.559644 11.5 0 10.9404 0 10.25V6.75Z" fill="#444444" />
	<path d="M16.5256 0.329057C16.4716 0.167174 16.5921 7.27325e-08 16.7628 7.27325e-08L19.2372 -7.27325e-08C19.4078 -7.27325e-08 19.5283 0.167174 19.4743 0.329057L19.2372 1.32906C19.2031 1.43114 19.1076 1.5 19 1.5L16.9999 1.5C16.8923 1.5 16.7968 1.43114 16.7628 1.32906L16.5256 0.329057Z" fill="#444444" />
	<path fill-rule="evenodd" clip-rule="evenodd" d="M34 5.5H35.3333L36 6.16667V10.8333L35.3333 11.5H34V5.5ZM35.3333 6.5C35.3333 6.68409 35.1841 6.83333 35 6.83333C34.8159 6.83333 34.6667 6.68409 34.6667 6.5C34.6667 6.31591 34.8159 6.16667 35 6.16667C35.1841 6.16667 35.3333 6.31591 35.3333 6.5ZM35 10.8333C35.1841 10.8333 35.3333 10.6841 35.3333 10.5C35.3333 10.3159 35.1841 10.1667 35 10.1667C34.8159 10.1667 34.6667 10.3159 34.6667 10.5C34.6667 10.6841 34.8159 10.8333 35 10.8333Z" fill="#444444" />
</svg>
