<svg xmlns="http://www.w3.org/2000/svg" viewBox="0 0 32 32"><defs><style></style></defs><g id="Layer_2" data-name="Layer 2"><g id="Layer_1-2" data-name="Layer 1"><rect class="cls-1" x="9.92" y="30.28" width="2" height="1.72"/><path class="cls-1" d="M1.4,2.83A2,2,0,0,0,1,4V15.88h.5a1.5,1.5,0,1,1,0,3H1V30a1.93,1.93,0,0,0,.22.9c2.45-3,4.11-8.3,4.11-14.14S3.75,5.91,1.4,2.83Z"/><path class="cls-1" d="M0,16.88v1a1,1,0,0,0,1,1v-3A1,1,0,0,0,0,16.88Z"/><path class="cls-1" d="M16.55,17.35A10,10,0,0,1,21,14.46V4a2,2,0,0,0-.47-1.28c-2.39,3.08-4,8.27-4,14C16.53,17,16.55,17.15,16.55,17.35Z"/><path class="cls-1" d="M14,24a10,10,0,0,1,1.23-4.79c-.07-.8-.1-1.62-.1-2.45,0-6,1.65-11.37,4.19-14.71A1.73,1.73,0,0,0,19,2H13.42V1a1,1,0,0,0-1-1h-3a1,1,0,0,0-1,1V2H3a2.12,2.12,0,0,0-.44,0c2.53,3.34,4.17,8.67,4.17,14.69C6.73,23,5,28.55,2.25,31.85A1.86,1.86,0,0,0,3,32H8.92V30.28a1,1,0,0,1,1-1h2a1,1,0,0,1,1,1V32H18A10,10,0,0,1,14,24Zm-3.06-6a1,1,0,1,1,1-1A1,1,0,0,1,10.94,18ZM12,2H9.82V1.2H12Z"/><path class="cls-1" d="M24,16a8,8,0,1,0,8,8A8,8,0,0,0,24,16Zm3.8,12.14a.68.68,0,0,1-.94,0L23.53,24.8a.63.63,0,0,1-.2-.47V20a.67.67,0,0,1,1.34,0v4.06L27.8,27.2A.65.65,0,0,1,27.8,28.14Z"/></g></g></svg>