<svg viewBox="0 0 45 10" xmlns="http://www.w3.org/2000/svg">
	<path d="M-2.18557e-08 17.5L-1.5299e-07 14.5L4 14L25 14L25 18L4 18L-2.18557e-08 17.5Z" fill="#333333" />
	<path d="M-2.18557e-08 7.5L-1.5299e-07 4.5L4 4L25 4L25 8L4 8L-2.18557e-08 7.5Z" fill="#333333" />
	<path d="M24 21C23.4477 21 23 20.5523 23 20L23 2C23 1.44772 23.4477 1 24 1L36 0.999999L38 3L38 19L36 21L24 21Z" />
	<path opacity="0.16" d="M24 21C23.4477 21 23 20.5523 23 20L23 2C23 1.44772 23.4477 1 24 1L26 1L26 21L24 21Z" fill="black" />
	<path opacity="0.16" d="M28 18.5L26 21L36 21L38 19L38 3L36 5L36 17L34.5 18.5L28 18.5Z" fill="black" />
	<path opacity="0.24" d="M28 18.5L26 21L26 1L36 1L38 3L36 5L34.5 3.5L28 3.5L28 18.5Z" fill="white" />
	<path d="M34 21L33 20L29 20L28 21L34 21Z" fill="#555555" />
	<path d="M28 1L29 2L33 2L34 0.999999L28 1Z" fill="#555555" />
	<path d="M38 6L37 7V15L38 16V6Z" fill="#555555" />
	<path d="M27.2632 12.9123C27.1337 12.9554 27 12.859 27 12.7225L27 9.27749C27 9.14097 27.1337 9.04458 27.2632 9.08775L27.5763 9.1921C28.1881 9.39603 28.8288 9.5 29.4737 9.5L34.5263 9.5C35.1712 9.5 35.8119 9.39603 36.4237 9.1921L36.7368 9.08775C36.8663 9.04458 37 9.14097 37 9.27748L37 12.7225C37 12.859 36.8663 12.9554 36.7368 12.9123L36.4237 12.8079C35.8119 12.604 35.1712 12.5 34.5263 12.5L29.4737 12.5C28.8288 12.5 28.1881 12.604 27.5763 12.8079L27.2632 12.9123Z" fill="#222222" />
	<circle cx="32" cy="11" r="1.125" transform="rotate(-90 32 11)" fill="#FF9500" stroke="#444444" stroke-width="0.25" />
	<path d="M29.0175 0.438743C28.945 0.222899 29.107 1.93953e-07 29.3364 1.93953e-07L32.6636 0C32.893 0 33.055 0.222899 32.9825 0.438743L32.6636 1.5C32.6178 1.63611 32.4894 1.72792 32.3447 1.72792L29.6553 1.72792C29.5106 1.72792 29.3822 1.63611 29.3364 1.5L29.0175 0.438743Z" fill="#222222" />
	<path d="M32.9825 21.5613C33.055 21.7771 32.893 22 32.6636 22L29.3364 22C29.107 22 28.945 21.7771 29.0175 21.5613L29.3364 20.5C29.3822 20.3639 29.5106 20.2721 29.6553 20.2721L32.3447 20.2721C32.4894 20.2721 32.6178 20.3639 32.6636 20.5L32.9825 21.5613Z" fill="#222222" />
	<path d="M37.5 9.25C37.5 8.55964 38.0596 8 38.75 8L40 8L40 14L38.75 14C38.0596 14 37.5 13.4404 37.5 12.75L37.5 9.25Z" fill="#222222" />
	<rect x="4" y="18" width="1" height="0.5" transform="rotate(-90 4 18)" fill="#222222" />
	<rect x="4" y="8" width="1" height="0.5" transform="rotate(-90 4 8)" fill="#222222" />
	<rect x="4" y="15" width="1" height="0.5" transform="rotate(-90 4 15)" fill="#222222" />
	<rect x="4" y="5" width="1" height="0.5" transform="rotate(-90 4 5)" fill="#222222" />
</svg>
