<svg viewBox="0 0 35 15" xmlns="http://www.w3.org/2000/svg">
		<path fill-rule="evenodd" clip-rule="evenodd" d="M36 8H37.3333L38 8.66667V13.3333L37.3333 14H36V8ZM37.3333 9C37.3333 9.18409 37.1841 9.33333 37 9.33333C36.8159 9.33333 36.6667 9.18409 36.6667 9C36.6667 8.81591 36.8159 8.66667 37 8.66667C37.1841 8.66667 37.3333 8.81591 37.3333 9ZM37 13.3333C37.1841 13.3333 37.3333 13.1841 37.3333 13C37.3333 12.8159 37.1841 12.6667 37 12.6667C36.8159 12.6667 36.6667 12.8159 36.6667 13C36.6667 13.1841 36.8159 13.3333 37 13.3333Z" fill="#444444" />
		<rect x="2" y="1" width="28" height="2" fill="#222222" />
		<rect x="2" y="19" width="28" height="2" fill="#222222" />
		<path d="M2 21.0909C2 21.0407 2.07036 21 2.15714 21H12.8429C12.9296 21 13 21.0407 13 21.0909V21.9091C13 21.9593 12.9296 22 12.8429 22H2.15714C2.07035 22 2 21.9593 2 21.9091V21.0909Z" fill="#444444" />
		<mask id="mask0_1092_10419" style="mask-type:alpha" maskUnits="userSpaceOnUse" x="2" y="21" width="11" height="1">
			<path d="M2 21.0909C2 21.0407 2.07036 21 2.15714 21H12.8429C12.9296 21 13 21.0407 13 21.0909V21.9091C13 21.9593 12.9296 22 12.8429 22H2.15714C2.07035 22 2 21.9593 2 21.9091V21.0909Z" fill="#444444" />
		</mask>
		<g mask="url(#mask0_1092_10419)">
			<path d="M1 20L4 23" stroke="#222222" stroke-width="0.5" />
			<path d="M3 20L6 23" stroke="#222222" stroke-width="0.5" />
			<path d="M5 20L8 23" stroke="#222222" stroke-width="0.5" />
			<path d="M7 20L10 23" stroke="#222222" stroke-width="0.5" />
			<path d="M9 20L12 23" stroke="#222222" stroke-width="0.5" />
			<path d="M11 20L14 23" stroke="#222222" stroke-width="0.5" />
		</g>
		<path d="M19.9999 21.0909C19.9999 21.0407 20.0703 21 20.1571 21H30.8428C30.9296 21 30.9999 21.0407 30.9999 21.0909V21.9091C30.9999 21.9593 30.9296 22 30.8428 22H20.1571C20.0703 22 19.9999 21.9593 19.9999 21.9091V21.0909Z" fill="#444444" />
		<mask id="mask1_1092_10419" style="mask-type:alpha" maskUnits="userSpaceOnUse" x="20" y="21" width="11" height="1">
			<path d="M19.9999 21.0909C19.9999 21.0407 20.0703 21 20.1571 21H30.8428C30.9296 21 30.9999 21.0407 30.9999 21.0909V21.9091C30.9999 21.9593 30.9296 22 30.8428 22H20.1571C20.0703 22 19.9999 21.9593 19.9999 21.9091V21.0909Z" fill="#444444" />
		</mask>
		<g mask="url(#mask1_1092_10419)">
			<path d="M18.9999 20L21.9999 23" stroke="#222222" stroke-width="0.5" />
			<path d="M20.9999 20L23.9999 23" stroke="#222222" stroke-width="0.5" />
			<path d="M22.9999 20L25.9999 23" stroke="#222222" stroke-width="0.5" />
			<path d="M24.9999 20L27.9999 23" stroke="#222222" stroke-width="0.5" />
			<path d="M26.9999 20L29.9999 23" stroke="#222222" stroke-width="0.5" />
			<path d="M28.9999 20L31.9999 23" stroke="#222222" stroke-width="0.5" />
		</g>
		<path d="M2 3H33L36 6V16L33 19H2V3Z"/>
		<path opacity="0.16" fill-rule="evenodd" clip-rule="evenodd" d="M35 6.41421L32.5858 4H3V18H32.5858L35 15.5858V6.41421ZM36 16V6L33 3H2V19H33L36 16Z" fill="#222222" />
		<rect opacity="0.16" x="8" y="8" width="23" height="6" fill="#222222" />
		<path d="M5.99992 9.95264C5.99992 9.6957 6.19465 9.48059 6.45032 9.4551L11.0158 9H27.9841L32.5495 9.4551C32.8052 9.48059 32.9999 9.6957 32.9999 9.95264V12.0474C32.9999 12.3043 32.8052 12.5194 32.5495 12.5449L27.9841 13H11.0158L6.45032 12.5449C6.19465 12.5194 5.99992 12.3043 5.99992 12.0474V9.95264Z" fill="#222222" />
		<path d="M9.5 11C9.5 11.5523 9.16421 12 8.75 12C8.33579 12 8 11.5523 8 11C8 10.4477 8.33579 10 8.75 10C9.16421 10 9.5 10.4477 9.5 11Z" fill="#343434" />
		<path fill-rule="evenodd" clip-rule="evenodd" d="M9.12033 11.5871C9.22769 11.444 9.3 11.2371 9.3 11C9.3 10.7629 9.22769 10.556 9.12033 10.4129C9.01302 10.2698 8.88004 10.2 8.75 10.2C8.61996 10.2 8.48698 10.2698 8.37967 10.4129C8.27231 10.556 8.2 10.7629 8.2 11C8.2 11.2371 8.27231 11.444 8.37967 11.5871C8.48698 11.7302 8.61996 11.8 8.75 11.8C8.88004 11.8 9.01302 11.7302 9.12033 11.5871ZM8.75 12C9.16421 12 9.5 11.5523 9.5 11C9.5 10.4477 9.16421 10 8.75 10C8.33579 10 8 10.4477 8 11C8 11.5523 8.33579 12 8.75 12Z" fill="#444444" />
		<path d="M17.0175 2.43874C16.945 2.2229 17.107 2 17.3364 2L20.6636 2C20.893 2 21.055 2.2229 20.9825 2.43874L20.6636 3.77208C20.6178 3.90819 20.4894 4 20.3447 4L17.6553 4C17.5106 4 17.3822 3.90819 17.3364 3.77208L17.0175 2.43874Z" fill="#444444" />
		<path d="M20.9825 19.5613C21.055 19.7771 20.893 20 20.6636 20L17.3364 20C17.107 20 16.945 19.7771 17.0175 19.5613L17.3364 18.2279C17.3822 18.0918 17.5106 18 17.6553 18L20.3447 18C20.4894 18 20.6178 18.0918 20.6636 18.2279L20.9825 19.5613Z" fill="#444444" />
		<path d="M1.99992 0.909091C1.99992 0.959299 2.07027 1 2.15706 1H12.8428C12.9296 1 12.9999 0.959299 12.9999 0.909091V0.0909091C12.9999 0.0407014 12.9296 0 12.8428 0H2.15706C2.07027 0 1.99992 0.0407014 1.99992 0.0909091V0.909091Z" fill="#444444" />
		<mask id="mask2_1092_10419" style="mask-type:alpha" maskUnits="userSpaceOnUse" x="2" y="0" width="11" height="1">
			<path d="M1.99992 0.909091C1.99992 0.959299 2.07027 1 2.15706 1H12.8428C12.9296 1 12.9999 0.959299 12.9999 0.909091V0.0909091C12.9999 0.0407014 12.9296 0 12.8428 0H2.15706C2.07027 0 1.99992 0.0407014 1.99992 0.0909091V0.909091Z" fill="#444444" />
		</mask>
		<g mask="url(#mask2_1092_10419)">
			<path d="M0.999916 2L3.99992 -1" stroke="#222222" stroke-width="0.5" />
			<path d="M2.99992 2L5.99992 -1" stroke="#222222" stroke-width="0.5" />
			<path d="M4.99992 2L7.99992 -1" stroke="#222222" stroke-width="0.5" />
			<path d="M6.99992 2L9.99992 -1" stroke="#222222" stroke-width="0.5" />
			<path d="M8.99992 2L11.9999 -1" stroke="#222222" stroke-width="0.5" />
			<path d="M10.9999 2L13.9999 -1" stroke="#222222" stroke-width="0.5" />
		</g>
		<path d="M19.9999 0.909091C19.9999 0.959299 20.0703 1 20.1571 1H30.8428C30.9296 1 30.9999 0.959299 30.9999 0.909091V0.0909091C30.9999 0.0407014 30.9296 0 30.8428 0H20.1571C20.0703 0 19.9999 0.0407014 19.9999 0.0909091V0.909091Z" fill="#444444" />
		<mask id="mask3_1092_10419" style="mask-type:alpha" maskUnits="userSpaceOnUse" x="20" y="0" width="11" height="1">
			<path d="M19.9999 0.909091C19.9999 0.959299 20.0703 1 20.1571 1H30.8428C30.9296 1 30.9999 0.959299 30.9999 0.909091V0.0909091C30.9999 0.0407014 30.9296 0 30.8428 0H20.1571C20.0703 0 19.9999 0.0407014 19.9999 0.0909091V0.909091Z" fill="#444444" />
		</mask>
		<g mask="url(#mask3_1092_10419)">
			<path d="M18.9999 2L21.9999 -1" stroke="#222222" stroke-width="0.5" />
			<path d="M20.9999 2L23.9999 -1" stroke="#222222" stroke-width="0.5" />
			<path d="M22.9999 2L25.9999 -1" stroke="#222222" stroke-width="0.5" />
			<path d="M24.9999 2L27.9999 -1" stroke="#222222" stroke-width="0.5" />
			<path d="M26.9999 2L29.9999 -1" stroke="#222222" stroke-width="0.5" />
			<path d="M28.9999 2L31.9999 -1" stroke="#222222" stroke-width="0.5" />
		</g>
		<path d="M2.99992 12.75C2.99992 13.4404 2.44027 14 1.74992 14L-8.39233e-05 14L-8.33988e-05 8L1.74992 8C2.44027 8 2.99992 8.55964 2.99992 9.25L2.99992 12.75Z" fill="#444444" />
		<circle cx="14.9999" cy="11" r="1.125" fill="#FF9500" stroke="#444444" stroke-width="0.25" />
</svg>
