<svg viewBox="0 0 44 24" xmlns="http://www.w3.org/2000/svg">
<path d="M44 3L44 21L41 24L36 24L36 22L16 22L16 24L11 24L8 21L8 3L11 -1.44248e-06L16 -1.22392e-06L16 2L36 2L36 -3.49691e-07L41 -1.31134e-07L44 3Z"/>
<path d="M13.25 21L12.6005 20.625L12.6005 19.875L13.25 19.5L13.8995 19.875L13.8995 20.625L13.25 21Z" fill="#222222"/>
<path d="M38.75 21L38.1005 20.625L38.1005 19.875L38.75 19.5L39.3995 19.875L39.3995 20.625L38.75 21Z" fill="#222222"/>
<path d="M13.25 4.5L12.6005 4.125L12.6005 3.375L13.25 3L13.8995 3.375L13.8995 4.125L13.25 4.5Z" fill="#222222"/>
<path d="M38.75 4.5L38.1005 4.125L38.1005 3.375L38.75 3L39.3995 3.375L39.3995 4.125L38.75 4.5Z" fill="#222222"/>
<rect x="18" y="11" width="2" height="2" transform="rotate(90 18 11)" fill="#222222"/>
<rect x="36" y="11" width="2" height="2" transform="rotate(90 36 11)" fill="#222222"/>
<rect x="29" y="11" width="2" height="2" transform="rotate(90 29 11)" fill="#222222"/>
<rect x="25" y="11" width="2" height="2" transform="rotate(90 25 11)" fill="#222222"/>
<path d="M12 6L12 18L8 18L8 6L12 6Z" fill="#333333"/>
<path opacity="0.16" d="M44 6L44 18L40 18L40 6L44 6Z" fill="black"/>
<circle cx="24.5" cy="4.5" r="0.5" transform="rotate(90 24.5 4.5)" fill="#222222"/>
<circle cx="24.5" cy="19.5" r="0.5" transform="rotate(90 24.5 19.5)" fill="#222222"/>
<circle cx="27.5" cy="4.5" r="0.5" transform="rotate(90 27.5 4.5)" fill="#222222"/>
<circle cx="27.5" cy="19.5" r="0.5" transform="rotate(90 27.5 19.5)" fill="#222222"/>
<circle cx="35.5" cy="4.5" r="0.5" transform="rotate(90 35.5 4.5)" fill="#222222"/>
<circle cx="35.5" cy="19.5" r="0.5" transform="rotate(90 35.5 19.5)" fill="#222222"/>
<circle cx="16.5" cy="4.5" r="0.5" transform="rotate(90 16.5 4.5)" fill="#222222"/>
<circle cx="16.5" cy="19.5" r="0.5" transform="rotate(90 16.5 19.5)" fill="#222222"/>
<rect x="11" y="9" width="6" height="3" transform="rotate(90 11 9)" fill="#444444"/>
<path d="M10.5 9.5L10.5 14.5L8.5 14.5L8.5 9.5L10.5 9.5Z" fill="#777777"/>
<rect x="15.5" y="3.5" width="21" height="17" fill="#444444" stroke="#222222"/>
<path opacity="0.24" d="M35 19L36 20L36 4L16 4L17 5L35 5L35 19Z" fill="black"/>
<path opacity="0.08" d="M17 5L16 4L16 20L36 20L35 19L17 19L17 5Z" fill="white"/>
<path d="M0.759712 12.9341C0.423805 12.7422 0.423805 12.2578 0.759713 12.0659L5.83781 9.16411C6.23949 8.93458 6.71064 9.32675 6.55781 9.76341L5.65781 12.3348C5.62038 12.4418 5.62038 12.5582 5.65781 12.6652L6.55781 15.2366C6.71064 15.6733 6.23949 16.0654 5.83781 15.8359L0.759712 12.9341Z"/>
<path opacity="0.16" fill-rule="evenodd" clip-rule="evenodd" d="M1.014 11.9206C0.98346 12.1141 1.06536 12.3231 1.25971 12.4341L6.33781 15.3359C6.42005 15.3829 6.50519 15.4038 6.5873 15.4036C6.58911 15.7648 6.18718 16.0355 5.83781 15.8359L0.759712 12.9341C0.423805 12.7422 0.423805 12.2578 0.759713 12.0659L1.014 11.9206Z" fill="#222222"/>
<path opacity="0.24" fill-rule="evenodd" clip-rule="evenodd" d="M0.759713 12.0659C0.423805 12.2578 0.423805 12.7422 0.759712 12.9341L1.014 13.0795C0.983461 12.8859 1.06536 12.677 1.25971 12.5659L6.33781 9.66413C6.42004 9.61714 6.50519 9.5962 6.5873 9.59638C6.58911 9.23517 6.18718 8.96449 5.83781 9.16413L0.759713 12.0659Z" fill="white"/>
</svg>
