<svg  viewBox="0 0 35 50"  xmlns="http://www.w3.org/2000/svg">
<g clip-path="url(#clip0_70_161)">
<path d="M23.7597 6.60913H10.2607V44.4061H23.7597V6.60913Z" fill="white"/>
<path d="M18.0902 48.3801H15.9304C15.8548 48.3801 15.7954 48.4395 15.7954 48.5151V49.8623C15.7954 49.9379 15.8548 50 15.9304 50H18.0902C18.1658 50 18.2252 49.9379 18.2252 49.8623V48.5151C18.2252 48.4395 18.1658 48.3801 18.0902 48.3801Z" />
<path d="M27.6744 21.817L28.8218 20.2619L28.8974 20.1593C29.0297 19.9784 29.1161 19.7678 29.1458 19.5491C29.1539 19.487 29.1593 19.4222 29.1593 19.3602V8.56371C29.1593 7.61339 28.8218 6.68737 28.2063 5.95572L28.1928 5.93952L27.9687 5.66955L26.0573 3.39633C25.5443 2.78348 24.7884 2.42981 23.9892 2.42981H21.8699C21.7214 2.42981 21.5999 2.31102 21.5999 2.16253V0.269978C21.5999 0.12149 21.4784 0 21.3299 0H12.6906C12.5421 0 12.4207 0.12149 12.4207 0.269978V2.16253C12.4207 2.31102 12.2992 2.42981 12.1507 2.42981H10.1825C9.3834 2.42981 8.62746 2.78348 8.1145 3.39633L6.20306 5.66955L5.97897 5.93952L5.96548 5.95572C5.34992 6.68737 5.01245 7.61339 5.01245 8.56371V19.3602C5.01245 19.4222 5.01785 19.487 5.02595 19.5491C5.05565 19.7678 5.14204 19.9784 5.27433 20.1593L5.34992 20.2619L6.49733 21.817C6.66742 22.0491 6.75921 22.3299 6.75921 22.6161V27.0032C6.75921 27.2921 6.66742 27.5702 6.49733 27.8024L5.34992 29.3575L5.27433 29.46C5.14204 29.6436 5.05565 29.8542 5.02595 30.0783C5.01785 30.1377 5.01245 30.1998 5.01245 30.2619V43.7419C5.01245 44.6922 5.34722 45.6156 5.96008 46.3445L6.03567 46.4363L6.26515 46.7063L8.1739 48.9822C8.68686 49.595 9.4428 49.946 10.2419 49.946H14.7317C14.8802 49.946 15.0017 49.8272 15.0017 49.6787V47.7862C15.0017 47.6377 15.1231 47.5162 15.2716 47.5162H18.7814C18.9298 47.5162 19.0513 47.6377 19.0513 47.7862V49.6787C19.0513 49.8272 19.1728 49.946 19.3213 49.946H23.9298C24.729 49.946 25.4849 49.595 25.9979 48.9822L27.9066 46.7063L28.1361 46.4363L28.2117 46.3445C28.8245 45.6156 29.1593 44.6922 29.1593 43.7419V30.2619C29.1593 30.1998 29.1539 30.1377 29.1458 30.0783C29.1161 29.8542 29.0297 29.6436 28.8974 29.46L28.8218 29.3575L27.6744 27.8024C27.5044 27.5702 27.4126 27.2921 27.4126 27.0032V22.6161C27.4126 22.3299 27.5044 22.0491 27.6744 21.817ZM13.7705 1.40119C13.7705 1.2527 13.892 1.13391 14.0405 1.13391H19.9801C20.1285 1.13391 20.25 1.2527 20.25 1.40119V2.21382C20.25 2.36231 20.1285 2.4838 19.9801 2.4838H14.0405C13.892 2.4838 13.7705 2.36231 13.7705 2.21382V1.40119ZM21.5999 31.2311L20.3121 44.1361C20.3067 44.2144 20.223 44.2711 20.1231 44.2711H13.7759C13.6761 44.2711 13.5924 44.2144 13.587 44.1361L12.4207 32.4595V17.2246L13.6113 6.87905C13.6167 6.80616 13.7031 6.74406 13.8002 6.74406H20.088C20.1879 6.74406 20.2716 6.80616 20.2797 6.87905L21.5999 18.3639V31.2311Z" />
<path d="M19.9126 7.49995C19.9045 7.42706 19.8316 7.37036 19.7425 7.37036H14.1944C14.108 7.37036 14.0324 7.42706 14.027 7.49995L12.9768 17.5027V32.23L14.0054 43.5178C14.0081 43.5907 14.0837 43.6474 14.1728 43.6474H19.7749C19.8613 43.6474 19.9342 43.5907 19.9395 43.5178L21.0762 31.0421V18.5988L19.9126 7.49995ZM17.0859 26.8385C15.9682 26.8385 15.061 25.9341 15.061 24.8137C15.061 23.6933 15.9682 22.7888 17.0859 22.7888C18.2036 22.7888 19.1107 23.696 19.1107 24.8137C19.1107 25.9314 18.2036 26.8385 17.0859 26.8385Z" />
<path d="M28.8218 19.5492H29.3617C29.8099 19.5492 30.1717 19.911 30.1717 20.3591V29.2684C30.1717 29.7166 29.8099 30.0784 29.3617 30.0784H28.8218V19.5492Z" />
<path d="M4.53996 19.5492H5.34989V30.0784H4.53996C4.24298 30.0784 4 29.8354 4 29.5384V20.0892C4 19.7922 4.24298 19.5492 4.53996 19.5492Z" />
</g>
<defs>
<clipPath id="clip0_70_161">
<rect width="26.1717" height="50" fill="white" transform="translate(4)"/>
</clipPath>
</defs>
</svg>
