<svg viewBox="0 0 35 25" xmlns="http://www.w3.org/2000/svg">
<rect x="11" y="0.5" width="24" height="24" rx="0.5"/>
<mask id="mask0_3825_13869" style="mask-type:alpha" maskUnits="userSpaceOnUse" x="11" y="0" width="24" height="25">
<path fill-rule="evenodd" clip-rule="evenodd" d="M11.5 0.5C11.2239 0.5 11 0.723857 11 1V24C11 24.2761 11.2239 24.5 11.5 24.5H34.5C34.7761 24.5 35 24.2761 35 24V1C35 0.723858 34.7761 0.5 34.5 0.5H11.5ZM34 1.5H12V23.5H34V1.5Z" fill="#D1D1D1"/>
</mask>
<g mask="url(#mask0_3825_13869)">
<path opacity="0.16" d="M13 2.5L11 0.5V24.5H35L33 22.5H13V2.5Z" fill="#222222"/>
<path opacity="0.32" d="M33 22.5L35 24.5L35 0.499969L11 0.499967L13 2.49997L33 2.49997L33 22.5Z" fill="white"/>
</g>
<circle cx="28" cy="21.5" r="0.875" fill="#222222" stroke="#444444" stroke-width="0.25"/>
<circle cx="28" cy="3.5" r="0.875" fill="#222222" stroke="#444444" stroke-width="0.25"/>
<circle cx="18" cy="21.5" r="0.875" fill="#222222" stroke="#444444" stroke-width="0.25"/>
<circle cx="18" cy="3.5" r="0.875" fill="#222222" stroke="#444444" stroke-width="0.25"/>
<mask id="path-9-inside-1_3825_13869" fill="white">
<path d="M12 7.5H14V17.5H12V7.5Z"/>
</mask>
<path d="M12 7.5H14V17.5H12V7.5Z" fill="url(#paint0_linear_3825_13869)"/>
<path d="M13.9 7.5V17.5H14.1V7.5H13.9Z" fill="#444444" mask="url(#path-9-inside-1_3825_13869)"/>
<mask id="path-11-inside-2_3825_13869" fill="white">
<path d="M14 7.5H16V17.5H14V7.5Z"/>
</mask>
<path d="M14 7.5H16V17.5H14V7.5Z" fill="url(#paint1_linear_3825_13869)"/>
<path d="M15.9 7.5V17.5H16.1V7.5H15.9ZM14.1 17.5V7.5H13.9V17.5H14.1Z" fill="#444444" mask="url(#path-11-inside-2_3825_13869)"/>
<mask id="path-13-inside-3_3825_13869" fill="white">
<path d="M16 7.5H18V17.5H16V7.5Z"/>
</mask>
<path d="M16 7.5H18V17.5H16V7.5Z" fill="url(#paint2_linear_3825_13869)"/>
<path d="M17.9 7.5V17.5H18.1V7.5H17.9ZM16.1 17.5V7.5H15.9V17.5H16.1Z" fill="#444444" mask="url(#path-13-inside-3_3825_13869)"/>
<mask id="path-15-inside-4_3825_13869" fill="white">
<path d="M18 7.5H20V17.5H18V7.5Z"/>
</mask>
<path d="M18 7.5H20V17.5H18V7.5Z" fill="url(#paint3_linear_3825_13869)"/>
<path d="M19.9 7.5V17.5H20.1V7.5H19.9ZM18.1 17.5V7.5H17.9V17.5H18.1Z" fill="#444444" mask="url(#path-15-inside-4_3825_13869)"/>
<mask id="path-17-inside-5_3825_13869" fill="white">
<path d="M20 7.5H22V17.5H20V7.5Z"/>
</mask>
<path d="M20 7.5H22V17.5H20V7.5Z" fill="url(#paint4_linear_3825_13869)"/>
<path d="M21.9 7.5V17.5H22.1V7.5H21.9ZM20.1 17.5V7.5H19.9V17.5H20.1Z" fill="#444444" mask="url(#path-17-inside-5_3825_13869)"/>
<mask id="path-19-inside-6_3825_13869" fill="white">
<path d="M22 7.5H24V17.5H22V7.5Z"/>
</mask>
<path d="M22 7.5H24V17.5H22V7.5Z" fill="url(#paint5_linear_3825_13869)"/>
<path d="M23.9 7.5V17.5H24.1V7.5H23.9ZM22.1 17.5V7.5H21.9V17.5H22.1Z" fill="#444444" mask="url(#path-19-inside-6_3825_13869)"/>
<mask id="path-21-inside-7_3825_13869" fill="white">
<path d="M24 7.5H26V17.5H24V7.5Z"/>
</mask>
<path d="M24 7.5H26V17.5H24V7.5Z" fill="url(#paint6_linear_3825_13869)"/>
<path d="M25.9 7.5V17.5H26.1V7.5H25.9ZM24.1 17.5V7.5H23.9V17.5H24.1Z" fill="#444444" mask="url(#path-21-inside-7_3825_13869)"/>
<mask id="path-23-inside-8_3825_13869" fill="white">
<path d="M26 7.5H28V17.5H26V7.5Z"/>
</mask>
<path d="M26 7.5H28V17.5H26V7.5Z" fill="url(#paint7_linear_3825_13869)"/>
<path d="M27.9 7.5V17.5H28.1V7.5H27.9ZM26.1 17.5V7.5H25.9V17.5H26.1Z" fill="#444444" mask="url(#path-23-inside-8_3825_13869)"/>
<mask id="path-25-inside-9_3825_13869" fill="white">
<path d="M28 7.5H30V17.5H28V7.5Z"/>
</mask>
<path d="M28 7.5H30V17.5H28V7.5Z" fill="url(#paint8_linear_3825_13869)"/>
<path d="M29.9 7.5V17.5H30.1V7.5H29.9ZM28.1 17.5V7.5H27.9V17.5H28.1Z" fill="#444444" mask="url(#path-25-inside-9_3825_13869)"/>
<mask id="path-27-inside-10_3825_13869" fill="white">
<path d="M30 7.5H32V17.5H30V7.5Z"/>
</mask>
<path d="M30 7.5H32V17.5H30V7.5Z" fill="url(#paint9_linear_3825_13869)"/>
<path d="M31.9 7.5V17.5H32.1V7.5H31.9ZM30.1 17.5V7.5H29.9V17.5H30.1Z" fill="#444444" mask="url(#path-27-inside-10_3825_13869)"/>
<mask id="path-29-inside-11_3825_13869" fill="white">
<path d="M32 7.5H34V17.5H32V7.5Z"/>
</mask>
<path d="M32 7.5H34V17.5H32V7.5Z" fill="url(#paint10_linear_3825_13869)"/>
<path d="M32.1 17.5V7.5H31.9V17.5H32.1Z" fill="#444444" mask="url(#path-29-inside-11_3825_13869)"/>
<path d="M33.75 6.5C33.8881 6.5 34 6.61193 34 6.75L34 7.5L12 7.5L12 6.75C12 6.61193 12.1119 6.5 12.25 6.5L33.75 6.5Z" fill="#444444"/>
<path d="M34 17.5L34 18.25C34 18.3881 33.8881 18.5 33.75 18.5L12.25 18.5C12.1119 18.5 12 18.3881 12 18.25L12 17.5L34 17.5Z" fill="#444444"/>
<rect x="20.125" y="2.625" width="5.75" height="1.75" fill="#666666" stroke="#444444" stroke-width="0.25"/>
<path d="M22.5 2.5H23.5V3H22.5V2.5Z" fill="#444444"/>
<path d="M22.5 4H23.5V4.5H22.5V4Z" fill="#444444"/>
<rect x="20.125" y="20.625" width="5.75" height="1.75" fill="#666666" stroke="#444444" stroke-width="0.25"/>
<path d="M22.5 20.5H23.5V21H22.5V20.5Z" fill="#444444"/>
<path d="M22.5 22H23.5V22.5H22.5V22Z" fill="#444444"/>
<path fill-rule="evenodd" clip-rule="evenodd" d="M34 18.5L8 18.5L8.5 19.5L34 19.5L34 18.5ZM8.5 18L8 18.5L12 18.5L11.5 18L8.5 18Z" fill="#222222"/>
<path fill-rule="evenodd" clip-rule="evenodd" d="M8 6.5L8.5 7L11.5 7L12 6.5L34 6.5L34 5.5L8.5 5.5L8 6.5Z" fill="#222222"/>
<mask id="path-41-inside-12_3825_13869" fill="white">
<path d="M19 5.5L20 4.5L26 4.5L27 5.5L19 5.5Z"/>
</mask>
<path d="M19 5.5L20 4.5L26 4.5L27 5.5L19 5.5Z" fill="#666666"/>
<path d="M19 5.5L18.2929 4.79289L16.5858 6.5L19 6.5L19 5.5ZM20 4.5L20 3.5L19.5858 3.5L19.2929 3.79289L20 4.5ZM26 4.5L26.7071 3.79289L26.4142 3.5L26 3.5L26 4.5ZM27 5.5L27 6.5L29.4142 6.5L27.7071 4.79289L27 5.5ZM19.7071 6.20711L20.7071 5.20711L19.2929 3.79289L18.2929 4.79289L19.7071 6.20711ZM20 5.5L26 5.5L26 3.5L20 3.5L20 5.5ZM25.2929 5.20711L26.2929 6.20711L27.7071 4.79289L26.7071 3.79289L25.2929 5.20711ZM27 4.5L19 4.5L19 6.5L27 6.5L27 4.5Z" fill="#444444" mask="url(#path-41-inside-12_3825_13869)"/>
<mask id="path-43-inside-13_3825_13869" fill="white">
<path d="M27 19.5L26 20.5L20 20.5L19 19.5L27 19.5Z"/>
</mask>
<path d="M27 19.5L26 20.5L20 20.5L19 19.5L27 19.5Z" fill="#666666"/>
<path d="M27 19.5L27.7071 20.2071L29.4142 18.5L27 18.5L27 19.5ZM26 20.5L26 21.5L26.4142 21.5L26.7071 21.2071L26 20.5ZM20 20.5L19.2929 21.2071L19.5858 21.5L20 21.5L20 20.5ZM19 19.5L19 18.5L16.5858 18.5L18.2929 20.2071L19 19.5ZM26.2929 18.7929L25.2929 19.7929L26.7071 21.2071L27.7071 20.2071L26.2929 18.7929ZM26 19.5L20 19.5L20 21.5L26 21.5L26 19.5ZM20.7071 19.7929L19.7071 18.7929L18.2929 20.2071L19.2929 21.2071L20.7071 19.7929ZM19 20.5L27 20.5L27 18.5L19 18.5L19 20.5Z" fill="#444444" mask="url(#path-43-inside-13_3825_13869)"/>
<rect x="32" y="20.2626" width="1.75" height="1.75" transform="rotate(45 32 20.2626)" fill="#222222" stroke="#444444" stroke-width="0.25"/>
<path d="M0.759712 12.9341C0.423805 12.7422 0.423805 12.2578 0.759713 12.0659L5.83781 9.16411C6.23949 8.93458 6.71064 9.32675 6.55781 9.76341L5.65781 12.3348C5.62038 12.4418 5.62038 12.5582 5.65781 12.6652L6.55781 15.2366C6.71064 15.6733 6.23949 16.0654 5.83781 15.8359L0.759712 12.9341Z"/>
<path opacity="0.16" fill-rule="evenodd" clip-rule="evenodd" d="M1.014 11.9206C0.98346 12.1141 1.06536 12.3231 1.25971 12.4341L6.33781 15.3359C6.42005 15.3829 6.50519 15.4038 6.5873 15.4036C6.58911 15.7648 6.18718 16.0355 5.83781 15.8359L0.759712 12.9341C0.423805 12.7422 0.423805 12.2578 0.759713 12.0659L1.014 11.9206Z" fill="#222222"/>
<path opacity="0.24" fill-rule="evenodd" clip-rule="evenodd" d="M0.759713 12.0659C0.423805 12.2578 0.423805 12.7422 0.759712 12.9341L1.014 13.0794C0.983461 12.8859 1.06536 12.6769 1.25971 12.5659L6.33781 9.66411C6.42004 9.61712 6.50519 9.59619 6.5873 9.59636C6.58911 9.23516 6.18718 8.96447 5.83781 9.16411L0.759713 12.0659Z" fill="white"/>
<defs>
<linearGradient id="paint0_linear_3825_13869" x1="14" y1="12.5" x2="12" y2="12.5" gradientUnits="userSpaceOnUse">
<stop stop-color="#111111"/>
<stop offset="0.2" stop-color="#555555"/>
<stop offset="0.4" stop-color="#777777"/>
<stop offset="0.6" stop-color="#666666"/>
<stop offset="0.8" stop-color="#444444"/>
<stop offset="1" stop-color="#666666"/>
</linearGradient>
<linearGradient id="paint1_linear_3825_13869" x1="16" y1="12.5" x2="14" y2="12.5" gradientUnits="userSpaceOnUse">
<stop stop-color="#111111"/>
<stop offset="0.2" stop-color="#555555"/>
<stop offset="0.4" stop-color="#777777"/>
<stop offset="0.6" stop-color="#666666"/>
<stop offset="0.8" stop-color="#444444"/>
<stop offset="1" stop-color="#666666"/>
</linearGradient>
<linearGradient id="paint2_linear_3825_13869" x1="18" y1="12.5" x2="16" y2="12.5" gradientUnits="userSpaceOnUse">
<stop stop-color="#111111"/>
<stop offset="0.2" stop-color="#555555"/>
<stop offset="0.4" stop-color="#777777"/>
<stop offset="0.6" stop-color="#666666"/>
<stop offset="0.8" stop-color="#444444"/>
<stop offset="1" stop-color="#666666"/>
</linearGradient>
<linearGradient id="paint3_linear_3825_13869" x1="20" y1="12.5" x2="18" y2="12.5" gradientUnits="userSpaceOnUse">
<stop stop-color="#111111"/>
<stop offset="0.2" stop-color="#555555"/>
<stop offset="0.4" stop-color="#777777"/>
<stop offset="0.6" stop-color="#666666"/>
<stop offset="0.8" stop-color="#444444"/>
<stop offset="1" stop-color="#666666"/>
</linearGradient>
<linearGradient id="paint4_linear_3825_13869" x1="22" y1="12.5" x2="20" y2="12.5" gradientUnits="userSpaceOnUse">
<stop stop-color="#111111"/>
<stop offset="0.2" stop-color="#555555"/>
<stop offset="0.4" stop-color="#777777"/>
<stop offset="0.6" stop-color="#666666"/>
<stop offset="0.8" stop-color="#444444"/>
<stop offset="1" stop-color="#666666"/>
</linearGradient>
<linearGradient id="paint5_linear_3825_13869" x1="24" y1="12.5" x2="22" y2="12.5" gradientUnits="userSpaceOnUse">
<stop stop-color="#111111"/>
<stop offset="0.2" stop-color="#555555"/>
<stop offset="0.4" stop-color="#777777"/>
<stop offset="0.6" stop-color="#666666"/>
<stop offset="0.8" stop-color="#444444"/>
<stop offset="1" stop-color="#666666"/>
</linearGradient>
<linearGradient id="paint6_linear_3825_13869" x1="26" y1="12.5" x2="24" y2="12.5" gradientUnits="userSpaceOnUse">
<stop stop-color="#111111"/>
<stop offset="0.2" stop-color="#555555"/>
<stop offset="0.4" stop-color="#777777"/>
<stop offset="0.6" stop-color="#666666"/>
<stop offset="0.8" stop-color="#444444"/>
<stop offset="1" stop-color="#666666"/>
</linearGradient>
<linearGradient id="paint7_linear_3825_13869" x1="28" y1="12.5" x2="26" y2="12.5" gradientUnits="userSpaceOnUse">
<stop stop-color="#111111"/>
<stop offset="0.2" stop-color="#555555"/>
<stop offset="0.4" stop-color="#777777"/>
<stop offset="0.6" stop-color="#666666"/>
<stop offset="0.8" stop-color="#444444"/>
<stop offset="1" stop-color="#666666"/>
</linearGradient>
<linearGradient id="paint8_linear_3825_13869" x1="30" y1="12.5" x2="28" y2="12.5" gradientUnits="userSpaceOnUse">
<stop stop-color="#111111"/>
<stop offset="0.2" stop-color="#555555"/>
<stop offset="0.4" stop-color="#777777"/>
<stop offset="0.6" stop-color="#666666"/>
<stop offset="0.8" stop-color="#444444"/>
<stop offset="1" stop-color="#666666"/>
</linearGradient>
<linearGradient id="paint9_linear_3825_13869" x1="32" y1="12.5" x2="30" y2="12.5" gradientUnits="userSpaceOnUse">
<stop stop-color="#111111"/>
<stop offset="0.2" stop-color="#555555"/>
<stop offset="0.4" stop-color="#777777"/>
<stop offset="0.6" stop-color="#666666"/>
<stop offset="0.8" stop-color="#444444"/>
<stop offset="1" stop-color="#666666"/>
</linearGradient>
<linearGradient id="paint10_linear_3825_13869" x1="34" y1="12.5" x2="32" y2="12.5" gradientUnits="userSpaceOnUse">
<stop stop-color="#111111"/>
<stop offset="0.2" stop-color="#555555"/>
<stop offset="0.4" stop-color="#777777"/>
<stop offset="0.6" stop-color="#666666"/>
<stop offset="0.8" stop-color="#444444"/>
<stop offset="1" stop-color="#666666"/>
</linearGradient>
</defs>
</svg>
