<svg viewBox="0 0 46 19" xmlns="http://www.w3.org/2000/svg">
<path d="M14.2928 15.7929C14.1053 15.6054 13.9999 15.351 13.9999 15.0858L13.9999 3.91426C13.9999 3.64904 14.1053 3.39469 14.2928 3.20715L15.707 1.79294C15.8946 1.6054 16.1489 1.50005 16.4141 1.50005L27.5857 1.50005C27.8509 1.50005 28.1053 1.6054 28.2928 1.79294L29.707 3.20715C29.8946 3.39469 29.9999 3.64904 29.9999 3.91426V15.0858C29.9999 15.351 29.8946 15.6054 29.707 15.7929L28.2928 17.2072C28.1053 17.3947 27.8509 17.5 27.5857 17.5H16.4141C16.1489 17.5 15.8946 17.3947 15.707 17.2072L14.2928 15.7929Z"/>
<path opacity="0.32" d="M14.2929 15.7929C14.1054 15.6054 14 15.351 14 15.0858L14 3.91421C14 3.649 14.1054 3.39464 14.2929 3.20711L15.7071 1.79289C15.8946 1.60536 16.149 1.5 16.4142 1.5L27.5858 1.5C27.851 1.5 28.1054 1.60536 28.2929 1.79289L29.7071 3.20711C29.8946 3.39464 30 3.649 30 3.91421V15.0858C30 15.351 29.8946 15.6054 29.7071 15.7929L28.2929 17.2071C28.1054 17.3946 27.851 17.5 27.5858 17.5H16.4142C16.149 17.5 15.8946 17.3946 15.7071 17.2071L14.2929 15.7929Z" fill="#222222"/>
<path d="M26.3597 12.7999C26.1317 12.6099 25.9999 12.3285 25.9999 12.0317L25.9999 6.96842C25.9999 6.67164 26.1317 6.39019 26.3597 6.2002L31.7218 1.73182C31.9015 1.58206 32.128 1.50005 32.362 1.50005L42.5857 1.50005C42.8509 1.50005 43.1053 1.6054 43.2928 1.79294L45.707 4.20715C45.8946 4.39469 45.9999 4.64904 45.9999 4.91426V14.0858C45.9999 14.351 45.8946 14.6054 45.707 14.7929L43.2928 17.2072C43.1053 17.3947 42.8509 17.5 42.5857 17.5H32.362C32.128 17.5 31.9015 17.418 31.7218 17.2683L26.3597 12.7999Z" fill="#444444"/>
<path d="M9.2928 15.7929C9.10527 15.6054 8.99991 15.351 8.99991 15.0858L8.99991 3.91426C8.99991 3.64904 9.10527 3.39469 9.2928 3.20715L10.707 1.79294C10.8946 1.6054 11.1489 1.50005 11.4141 1.50005L22.5857 1.50005C22.8509 1.50005 23.1053 1.6054 23.2928 1.79294L24.707 3.20715C24.8946 3.39469 24.9999 3.64904 24.9999 3.91426V15.0858C24.9999 15.351 24.8946 15.6054 24.707 15.7929L23.2928 17.2072C23.1053 17.3947 22.8509 17.5 22.5857 17.5H11.4141C11.1489 17.5 10.8946 17.3947 10.707 17.2072L9.2928 15.7929Z"/>
<path opacity="0.24" d="M24 16.5L24.7071 15.7929C24.8946 15.6054 25 15.351 25 15.0858L25 3.91426C25 3.64904 24.8946 3.39469 24.7071 3.20715L23.2929 1.79294C23.1053 1.6054 22.851 1.50005 22.5858 1.50005L11.4142 1.50005C11.149 1.50005 10.8946 1.6054 10.7071 1.79294L9.99997 2.50004L11.2929 3.79294C11.4738 3.61197 11.7238 3.50005 12 3.50005L22 3.50005C22.5523 3.50005 23 3.94776 23 4.50005L23 14.5C23 14.7762 22.888 15.0262 22.7071 15.2072L24 16.5Z" fill="white"/>
<path opacity="0.16" d="M8.99997 3.91423C8.99997 3.64909 9.10544 3.3947 9.29294 3.2072L9.99997 2.50005L11.2929 3.79294C11.112 3.97377 11.0001 4.22352 11 4.49941L11 14.5C11 15.0523 11.4477 15.5 12 15.5L22 15.5C22.2759 15.4999 22.5262 15.388 22.7071 15.2072L24 16.5L23.2929 17.2072C23.1054 17.3947 22.851 17.5 22.5857 17.5L11.4143 17.5C11.1489 17.5 10.8945 17.3947 10.707 17.2072L9.29294 15.7929C9.21139 15.7115 9.14548 15.6175 9.09689 15.5154C9.03366 15.3824 8.99997 15.2359 8.99997 15.0859L8.99997 3.91423Z" fill="#222222"/>
<path opacity="0.48" d="M15.2237 16.5528C15.3931 16.214 15.7393 16 16.1181 16L17.882 16C18.2607 16 18.607 16.214 18.7764 16.5528L19 17.5L15.0001 17.5L15.2237 16.5528Z" fill="#222222"/>
<path opacity="0.48" d="M15.2236 2.44721C15.393 2.786 15.7393 3 16.118 3L17.882 3C18.2607 3 18.607 2.786 18.7764 2.44721L19 1.5L15 1.5L15.2236 2.44721Z" fill="#222222"/>
<path d="M9.34334 11.0491C9.14628 11.021 8.99991 10.8522 8.99991 10.6531L8.99991 8.34696C8.99991 8.1479 9.14628 7.97914 9.34334 7.95098L12.4296 7.5101C12.4764 7.5034 12.5237 7.50005 12.571 7.50005L21.4288 7.50005C21.4762 7.50005 21.5234 7.5034 21.5703 7.5101L24.6565 7.95098C24.8535 7.97914 24.9999 8.1479 24.9999 8.34696V10.6531C24.9999 10.8522 24.8535 11.021 24.6565 11.0491L21.5703 11.49C21.5234 11.4967 21.4762 11.5 21.4288 11.5L12.571 11.5C12.5237 11.5 12.4764 11.4967 12.4296 11.49L9.34334 11.0491Z" fill="#222222"/>
<path d="M12 9.5C12 9.77614 11.7761 10 11.5 10C11.2239 10 11 9.77614 11 9.5C11 9.22386 11.2239 9 11.5 9C11.7761 9 12 9.22386 12 9.5Z" fill="#343434"/>
<path fill-rule="evenodd" clip-rule="evenodd" d="M11.7469 9.79355C11.8185 9.72198 11.8667 9.61853 11.8667 9.5C11.8667 9.38147 11.8185 9.27802 11.7469 9.20645C11.6753 9.13491 11.5867 9.1 11.5 9.1C11.4133 9.1 11.3247 9.13491 11.2531 9.20645C11.1815 9.27802 11.1333 9.38147 11.1333 9.5C11.1333 9.61853 11.1815 9.72198 11.2531 9.79355C11.3247 9.86509 11.4133 9.9 11.5 9.9C11.5867 9.9 11.6753 9.86509 11.7469 9.79355ZM11.5 10C11.7761 10 12 9.77614 12 9.5C12 9.22386 11.7761 9 11.5 9C11.2239 9 11 9.22386 11 9.5C11 9.77614 11.2239 10 11.5 10Z" fill="#444444"/>
<rect x="19" y="11.5" width="4" height="1" transform="rotate(-90 19 11.5)" fill="url(#paint0_linear_3825_13767)"/>
<rect x="15" y="7.5" width="4" height="1" transform="rotate(90 15 7.5)" fill="url(#paint1_linear_3825_13767)"/>
<path d="M15.4999 12C15.2238 12 14.9999 11.7762 14.9999 11.5L14.9999 7.50005C14.9999 7.2239 15.2238 7.00005 15.4999 7.00005L18.4999 7.00005C18.7761 7.00005 18.9999 7.2239 18.9999 7.50005V11.5C18.9999 11.7762 18.7761 12 18.4999 12H15.4999Z" fill="#222222"/>
<mask id="mask0_3825_13767" style="mask-type:alpha" maskUnits="userSpaceOnUse" x="15" y="7" width="4" height="5">
<path d="M15.5 12C15.2239 12 15 11.7761 15 11.5L15 7.5C15 7.22386 15.2239 7 15.5 7L18.5 7C18.7761 7 19 7.22386 19 7.5L19 11.5C19 11.7761 18.7761 12 18.5 12L15.5 12Z" fill="#222222"/>
</mask>
<g mask="url(#mask0_3825_13767)">
<path fill-rule="evenodd" clip-rule="evenodd" d="M16.0706 11.0708L15.0706 12.0708L14.9292 11.9293L15.9292 10.9293L16.0706 11.0708Z" fill="#444444"/>
<path fill-rule="evenodd" clip-rule="evenodd" d="M16.0706 7.92934L15.0706 6.92934L14.9292 7.07076L15.9292 8.07076L16.0706 7.92934Z" fill="#444444"/>
<path fill-rule="evenodd" clip-rule="evenodd" d="M18.0706 10.9293L19.0706 11.9293L18.9292 12.0708L17.9292 11.0708L18.0706 10.9293Z" fill="#444444"/>
<path fill-rule="evenodd" clip-rule="evenodd" d="M18.0706 8.07076L19.0706 7.07076L18.9292 6.92934L17.9292 7.92934L18.0706 8.07076Z" fill="#444444"/>
</g>
<circle cx="17" cy="9.5" r="1.125" transform="rotate(-90 17 9.5)" fill="#FF9500" stroke="#444444" stroke-width="0.25"/>
<circle cx="17" cy="6" r="0.625" transform="rotate(-90 17 6)" fill="#A0451B" stroke="#333333" stroke-width="0.25"/>
<circle cx="17" cy="13" r="0.625" transform="rotate(-90 17 13)" fill="#A0451B" stroke="#333333" stroke-width="0.25"/>
<path d="M15.9999 18.5L15.9999 17.5C15.9999 16.9478 16.4476 16.5 16.9999 16.5C17.5522 16.5 17.9999 16.9478 17.9999 17.5V18.5H15.9999Z" fill="#444444"/>
<path d="M15.9999 0.500046L15.9999 1.50005C15.9999 2.05233 16.4476 2.50005 16.9999 2.50005C17.5522 2.50005 17.9999 2.05233 17.9999 1.50005V0.500046L15.9999 0.500046Z" fill="#444444"/>
<path d="M8.49991 7.50005C8.22377 7.50005 7.99991 7.7239 7.99991 8.00005L7.99991 11C7.99991 11.2762 8.22377 11.5 8.49991 11.5H8.99991L8.99991 7.50005L8.49991 7.50005Z" fill="#444444"/>
<circle cx="33.5" cy="3" r="0.5" fill="#222222"/>
<circle cx="41.5" cy="3" r="0.5" fill="#222222"/>
<circle cx="0.5" cy="0.5" r="0.5" transform="matrix(-1 0 0 1 45 12.5)" fill="#222222"/>
<circle cx="44.5" cy="6" r="0.5" fill="#222222"/>
<circle cx="0.5" cy="0.5" r="0.5" transform="matrix(-1 0 0 1 42 15.5)" fill="#222222"/>
<circle cx="33.5" cy="16" r="0.5" fill="#222222"/>
<circle cx="29.5" cy="6" r="0.5" fill="#222222"/>
<circle cx="29.5" cy="13" r="0.5" fill="#222222"/>
<path d="M0.759712 9.93412C0.423805 9.74217 0.423805 9.25783 0.759713 9.06588L5.83781 6.16411C6.23949 5.93458 6.71064 6.32675 6.55781 6.76341L5.65781 9.33481C5.62038 9.44175 5.62038 9.55823 5.65781 9.66516L6.55781 12.2366C6.71064 12.6733 6.23949 13.0654 5.83781 12.8359L0.759712 9.93412Z"/>
<path opacity="0.16" fill-rule="evenodd" clip-rule="evenodd" d="M1.014 8.92056C0.98346 9.11412 1.06536 9.32306 1.25971 9.43412L6.33781 12.3359C6.42005 12.3829 6.50519 12.4038 6.5873 12.4036C6.58911 12.7648 6.18718 13.0355 5.83781 12.8359L0.759712 9.93412C0.423805 9.74217 0.423805 9.25782 0.759713 9.06587L1.014 8.92056Z" fill="#222222"/>
<path opacity="0.24" fill-rule="evenodd" clip-rule="evenodd" d="M0.759713 9.06588C0.423805 9.25783 0.423805 9.74218 0.759712 9.93413L1.014 10.0794C0.983461 9.88588 1.06536 9.67694 1.25971 9.56588L6.33781 6.66411C6.42004 6.61712 6.50519 6.59619 6.5873 6.59636C6.58911 6.23516 6.18718 5.96447 5.83781 6.16411L0.759713 9.06588Z" fill="white"/>
<defs>
<linearGradient id="paint0_linear_3825_13767" x1="21" y1="11.5" x2="21" y2="12.5" gradientUnits="userSpaceOnUse">
<stop stop-color="#111111"/>
<stop offset="1" stop-color="#222222"/>
</linearGradient>
<linearGradient id="paint1_linear_3825_13767" x1="17" y1="7.5" x2="17" y2="8.5" gradientUnits="userSpaceOnUse">
<stop stop-color="#111111"/>
<stop offset="1" stop-color="#222222"/>
</linearGradient>
</defs>
</svg>
