<svg viewBox="0 0 46 23" xmlns="http://www.w3.org/2000/svg">
<path fill-rule="evenodd" clip-rule="evenodd" d="M44 8.5H45.3333L46 9.16667V13.8333L45.3333 14.5H44V8.5ZM45.3333 9.5C45.3333 9.68409 45.1841 9.83333 45 9.83333C44.8159 9.83333 44.6667 9.68409 44.6667 9.5C44.6667 9.31591 44.8159 9.16667 45 9.16667C45.1841 9.16667 45.3333 9.31591 45.3333 9.5ZM45 13.8333C45.1841 13.8333 45.3333 13.6841 45.3333 13.5C45.3333 13.3159 45.1841 13.1667 45 13.1667C44.8159 13.1667 44.6667 13.3159 44.6667 13.5C44.6667 13.6841 44.8159 13.8333 45 13.8333Z" fill="#444444"/>
<rect x="10" y="1.5" width="28" height="2" fill="#222222"/>
<rect x="10" y="19.5" width="28" height="2" fill="#222222"/>
<path d="M10 21.5909C10 21.5407 10.0704 21.5 10.1571 21.5H20.8429C20.9296 21.5 21 21.5407 21 21.5909V22.4091C21 22.4593 20.9296 22.5 20.8429 22.5H10.1571C10.0704 22.5 10 22.4593 10 22.4091V21.5909Z" fill="#444444"/>
<mask id="mask0_3825_13678" style="mask-type:alpha" maskUnits="userSpaceOnUse" x="10" y="21" width="11" height="2">
<path d="M10 21.5909C10 21.5407 10.0704 21.5 10.1571 21.5H20.8429C20.9296 21.5 21 21.5407 21 21.5909V22.4091C21 22.4593 20.9296 22.5 20.8429 22.5H10.1571C10.0704 22.5 10 22.4593 10 22.4091V21.5909Z" fill="#444444"/>
</mask>
<g mask="url(#mask0_3825_13678)">
<path d="M9 20.5L12 23.5" stroke="#222222" stroke-width="0.5"/>
<path d="M11 20.5L14 23.5" stroke="#222222" stroke-width="0.5"/>
<path d="M13 20.5L16 23.5" stroke="#222222" stroke-width="0.5"/>
<path d="M15 20.5L18 23.5" stroke="#222222" stroke-width="0.5"/>
<path d="M17 20.5L20 23.5" stroke="#222222" stroke-width="0.5"/>
<path d="M19 20.5L22 23.5" stroke="#222222" stroke-width="0.5"/>
</g>
<path d="M27.9999 21.5909C27.9999 21.5407 28.0703 21.5 28.1571 21.5H38.8428C38.9296 21.5 38.9999 21.5407 38.9999 21.5909V22.4091C38.9999 22.4593 38.9296 22.5 38.8428 22.5H28.1571C28.0703 22.5 27.9999 22.4593 27.9999 22.4091V21.5909Z" fill="#444444"/>
<mask id="mask1_3825_13678" style="mask-type:alpha" maskUnits="userSpaceOnUse" x="28" y="21" width="11" height="2">
<path d="M27.9999 21.5909C27.9999 21.5407 28.0703 21.5 28.1571 21.5H38.8428C38.9296 21.5 38.9999 21.5407 38.9999 21.5909V22.4091C38.9999 22.4593 38.9296 22.5 38.8428 22.5H28.1571C28.0703 22.5 27.9999 22.4593 27.9999 22.4091V21.5909Z" fill="#444444"/>
</mask>
<g mask="url(#mask1_3825_13678)">
<path d="M26.9999 20.5L29.9999 23.5" stroke="#222222" stroke-width="0.5"/>
<path d="M28.9999 20.5L31.9999 23.5" stroke="#222222" stroke-width="0.5"/>
<path d="M30.9999 20.5L33.9999 23.5" stroke="#222222" stroke-width="0.5"/>
<path d="M32.9999 20.5L35.9999 23.5" stroke="#222222" stroke-width="0.5"/>
<path d="M34.9999 20.5L37.9999 23.5" stroke="#222222" stroke-width="0.5"/>
<path d="M36.9999 20.5L39.9999 23.5" stroke="#222222" stroke-width="0.5"/>
</g>
<path d="M10 3.5H41L44 6.5V16.5L41 19.5H10V3.5Z"/>
<path opacity="0.16" fill-rule="evenodd" clip-rule="evenodd" d="M43 6.91421L40.5858 4.5H11V18.5H40.5858L43 16.0858V6.91421ZM44 16.5V6.5L41 3.5H10V19.5H41L44 16.5Z" fill="#222222"/>
<rect opacity="0.16" x="16" y="8.5" width="23" height="6" fill="#222222"/>
<path d="M13.9999 10.4526C13.9999 10.1957 14.1946 9.98059 14.4503 9.9551L19.0158 9.5H35.9841L40.5495 9.9551C40.8052 9.98059 40.9999 10.1957 40.9999 10.4526V12.5474C40.9999 12.8043 40.8052 13.0194 40.5495 13.0449L35.9841 13.5H19.0158L14.4503 13.0449C14.1946 13.0194 13.9999 12.8043 13.9999 12.5474V10.4526Z" fill="#222222"/>
<path d="M17.5 11.5C17.5 12.0523 17.1642 12.5 16.75 12.5C16.3358 12.5 16 12.0523 16 11.5C16 10.9477 16.3358 10.5 16.75 10.5C17.1642 10.5 17.5 10.9477 17.5 11.5Z" fill="#343434"/>
<path fill-rule="evenodd" clip-rule="evenodd" d="M17.1203 12.0871C17.2277 11.944 17.3 11.7371 17.3 11.5C17.3 11.2629 17.2277 11.056 17.1203 10.9129C17.013 10.7698 16.88 10.7 16.75 10.7C16.62 10.7 16.487 10.7698 16.3797 10.9129C16.2723 11.056 16.2 11.2629 16.2 11.5C16.2 11.7371 16.2723 11.944 16.3797 12.0871C16.487 12.2302 16.62 12.3 16.75 12.3C16.88 12.3 17.013 12.2302 17.1203 12.0871ZM16.75 12.5C17.1642 12.5 17.5 12.0523 17.5 11.5C17.5 10.9477 17.1642 10.5 16.75 10.5C16.3358 10.5 16 10.9477 16 11.5C16 12.0523 16.3358 12.5 16.75 12.5Z" fill="#444444"/>
<path d="M25.0175 2.93874C24.945 2.7229 25.107 2.5 25.3364 2.5L28.6636 2.5C28.893 2.5 29.055 2.7229 28.9825 2.93874L28.6636 4.27208C28.6178 4.40819 28.4894 4.5 28.3447 4.5L25.6553 4.5C25.5106 4.5 25.3822 4.40819 25.3364 4.27208L25.0175 2.93874Z" fill="#444444"/>
<path d="M28.9825 20.0613C29.055 20.2771 28.893 20.5 28.6636 20.5L25.3364 20.5C25.107 20.5 24.945 20.2771 25.0175 20.0613L25.3364 18.7279C25.3822 18.5918 25.5106 18.5 25.6553 18.5L28.3447 18.5C28.4894 18.5 28.6178 18.5918 28.6636 18.7279L28.9825 20.0613Z" fill="#444444"/>
<path d="M9.99991 1.40909C9.99991 1.4593 10.0703 1.5 10.1571 1.5H20.8428C20.9296 1.5 20.9999 1.4593 20.9999 1.40909V0.590909C20.9999 0.540701 20.9296 0.5 20.8428 0.5H10.1571C10.0703 0.5 9.99991 0.540701 9.99991 0.590909V1.40909Z" fill="#444444"/>
<mask id="mask2_3825_13678" style="mask-type:alpha" maskUnits="userSpaceOnUse" x="10" y="0" width="11" height="2">
<path d="M9.99991 1.40909C9.99991 1.4593 10.0703 1.5 10.1571 1.5H20.8428C20.9296 1.5 20.9999 1.4593 20.9999 1.40909V0.590909C20.9999 0.540701 20.9296 0.5 20.8428 0.5H10.1571C10.0703 0.5 9.99991 0.540701 9.99991 0.590909V1.40909Z" fill="#444444"/>
</mask>
<g mask="url(#mask2_3825_13678)">
<path d="M8.99991 2.5L11.9999 -0.5" stroke="#222222" stroke-width="0.5"/>
<path d="M10.9999 2.5L13.9999 -0.5" stroke="#222222" stroke-width="0.5"/>
<path d="M12.9999 2.5L15.9999 -0.5" stroke="#222222" stroke-width="0.5"/>
<path d="M14.9999 2.5L17.9999 -0.5" stroke="#222222" stroke-width="0.5"/>
<path d="M16.9999 2.5L19.9999 -0.5" stroke="#222222" stroke-width="0.5"/>
<path d="M18.9999 2.5L21.9999 -0.5" stroke="#222222" stroke-width="0.5"/>
</g>
<path d="M27.9999 1.40909C27.9999 1.4593 28.0703 1.5 28.1571 1.5H38.8428C38.9296 1.5 38.9999 1.4593 38.9999 1.40909V0.590909C38.9999 0.540701 38.9296 0.5 38.8428 0.5H28.1571C28.0703 0.5 27.9999 0.540701 27.9999 0.590909V1.40909Z" fill="#444444"/>
<mask id="mask3_3825_13678" style="mask-type:alpha" maskUnits="userSpaceOnUse" x="28" y="0" width="11" height="2">
<path d="M27.9999 1.40909C27.9999 1.4593 28.0703 1.5 28.1571 1.5H38.8428C38.9296 1.5 38.9999 1.4593 38.9999 1.40909V0.590909C38.9999 0.540701 38.9296 0.5 38.8428 0.5H28.1571C28.0703 0.5 27.9999 0.540701 27.9999 0.590909V1.40909Z" fill="#444444"/>
</mask>
<g mask="url(#mask3_3825_13678)">
<path d="M26.9999 2.5L29.9999 -0.5" stroke="#222222" stroke-width="0.5"/>
<path d="M28.9999 2.5L31.9999 -0.5" stroke="#222222" stroke-width="0.5"/>
<path d="M30.9999 2.5L33.9999 -0.5" stroke="#222222" stroke-width="0.5"/>
<path d="M32.9999 2.5L35.9999 -0.5" stroke="#222222" stroke-width="0.5"/>
<path d="M34.9999 2.5L37.9999 -0.5" stroke="#222222" stroke-width="0.5"/>
<path d="M36.9999 2.5L39.9999 -0.5" stroke="#222222" stroke-width="0.5"/>
</g>
<path d="M10.9999 13.25C10.9999 13.9404 10.4403 14.5 9.74991 14.5L7.99991 14.5L7.99991 8.5L9.74991 8.5C10.4403 8.5 10.9999 9.05964 10.9999 9.75L10.9999 13.25Z" fill="#444444"/>
<circle cx="22.9999" cy="11.5" r="1.125" fill="#FF9500" stroke="#444444" stroke-width="0.25"/>
<path d="M0.759712 11.9341C0.423805 11.7422 0.423805 11.2578 0.759713 11.0659L5.83781 8.16411C6.23949 7.93458 6.71064 8.32675 6.55781 8.76341L5.65781 11.3348C5.62038 11.4418 5.62038 11.5582 5.65781 11.6652L6.55781 14.2366C6.71064 14.6733 6.23949 15.0654 5.83781 14.8359L0.759712 11.9341Z"/>
<path opacity="0.16" fill-rule="evenodd" clip-rule="evenodd" d="M1.014 10.9206C0.98346 11.1141 1.06536 11.3231 1.25971 11.4341L6.33781 14.3359C6.42005 14.3829 6.50519 14.4038 6.5873 14.4036C6.58911 14.7648 6.18718 15.0355 5.83781 14.8359L0.759712 11.9341C0.423805 11.7422 0.423805 11.2578 0.759713 11.0659L1.014 10.9206Z" fill="#222222"/>
<path opacity="0.24" fill-rule="evenodd" clip-rule="evenodd" d="M0.759713 11.0659C0.423805 11.2578 0.423805 11.7422 0.759712 11.9341L1.014 12.0794C0.983461 11.8859 1.06536 11.6769 1.25971 11.5659L6.33781 8.66411C6.42004 8.61712 6.50519 8.59619 6.5873 8.59636C6.58911 8.23516 6.18718 7.96447 5.83781 8.16411L0.759713 11.0659Z" fill="white"/>
</svg>
