<svg viewBox="0 0 45 10" xmlns="http://www.w3.org/2000/svg">
<rect width="30" height="16" rx="1"/>
<path opacity="0.16" d="M11.5 5.5L2 2V14L11.5 10.5V5.5Z" fill="black"/>
<path opacity="0.4" d="M18.5 5.5L28 2V14L18.5 10.5V5.5Z" fill="white"/>
<path opacity="0.32" d="M2 14L11.5 10.5H18.5L28 14H2Z" fill="black"/>
<path opacity="0.24" d="M2 2L11.5 5.5H18.5L28 2H2Z" fill="white"/>
<path d="M12.4142 11C12.149 11 11.8946 10.8946 11.7071 10.7071L11.2929 10.2929C11.1054 10.1054 11 9.851 11 9.58579L11 6.41421C11 6.149 11.1054 5.89464 11.2929 5.70711L11.7071 5.29289C11.8946 5.10536 12.149 5 12.4142 5L17.5858 5C17.851 5 18.1054 5.10536 18.2929 5.29289L18.7071 5.70711C18.8946 5.89464 19 6.149 19 6.41421V9.58579C19 9.851 18.8946 10.1054 18.7071 10.2929L18.2929 10.7071C18.1054 10.8946 17.851 11 17.5858 11H12.4142Z" fill="#444444"/>
<path opacity="0.16" fill-rule="evenodd" clip-rule="evenodd" d="M11.7071 10.7071C11.8946 10.8946 12.149 11 12.4142 11H13.4142C13.149 11 12.8946 10.8946 12.7071 10.7071L12.2929 10.2929C12.1054 10.1054 12 9.851 12 9.58579V6.41421C12 6.149 12.1054 5.89464 12.2929 5.70711L12.7071 5.29289C12.8946 5.10536 13.149 5 13.4142 5H12.4142C12.149 5 11.8946 5.10536 11.7071 5.29289L11.2929 5.70711C11.1054 5.89464 11 6.149 11 6.41421V9.58579C11 9.851 11.1054 10.1054 11.2929 10.2929L11.7071 10.7071Z" fill="black"/>
<path opacity="0.08" fill-rule="evenodd" clip-rule="evenodd" d="M18.2929 5.29289C18.1054 5.10536 17.851 5 17.5858 5L16.5858 5C16.851 5 17.1054 5.10536 17.2929 5.29289L17.7071 5.70711C17.8946 5.89464 18 6.149 18 6.41421L18 9.58579C18 9.851 17.8946 10.1054 17.7071 10.2929L17.2929 10.7071C17.1054 10.8946 16.851 11 16.5858 11L17.5858 11C17.851 11 18.1054 10.8946 18.2929 10.7071L18.7071 10.2929C18.8946 10.1054 19 9.851 19 9.58579L19 6.41421C19 6.149 18.8946 5.89464 18.7071 5.70711L18.2929 5.29289Z" fill="white"/>
<path d="M22.5 8C22.5 8.55228 22.1642 9 21.75 9C21.3358 9 21 8.55228 21 8C21 7.44772 21.3358 7 21.75 7C22.1642 7 22.5 7.44772 22.5 8Z" fill="#444444"/>
<path fill-rule="evenodd" clip-rule="evenodd" d="M22.1203 8.58711C22.2277 8.44397 22.3 8.23705 22.3 8C22.3 7.76295 22.2277 7.55603 22.1203 7.41289C22.013 7.26981 21.88 7.2 21.75 7.2C21.62 7.2 21.487 7.26981 21.3797 7.41289C21.2723 7.55603 21.2 7.76295 21.2 8C21.2 8.23705 21.2723 8.44397 21.3797 8.58711C21.487 8.73019 21.62 8.8 21.75 8.8C21.88 8.8 22.013 8.73019 22.1203 8.58711ZM21.75 9C22.1642 9 22.5 8.55228 22.5 8C22.5 7.44772 22.1642 7 21.75 7C21.3358 7 21 7.44772 21 8C21 8.55228 21.3358 9 21.75 9Z" fill="#666666"/>
<circle cx="27.5" cy="14.5" r="0.5" fill="#222222"/>
<circle cx="2.5" cy="14.5" r="0.5" fill="#222222"/>
<circle cx="27.5" cy="1.5" r="0.5" fill="#222222"/>
<circle cx="2.5" cy="1.5" r="0.5" fill="#222222"/>
<path d="M4.12008 7.31584C4.04238 7.52929 4 7.75969 4 8C4 8.24031 4.04238 8.47072 4.12008 8.68416V7.31584Z" fill="#222222"/>
<path d="M4.52008 9.34532C4.42969 9.24595 4.34917 9.13743 4.28008 9.02133V6.97867C4.34917 6.86257 4.42969 6.75405 4.52008 6.65468V9.34532Z" fill="#222222"/>
<path d="M4.92008 9.68367C4.8355 9.62931 4.75529 9.56875 4.68008 9.50263V6.49737C4.75529 6.43125 4.8355 6.37069 4.92008 6.31633V9.68367Z" fill="#222222"/>
<path d="M5.32008 9.88146C5.23741 9.85158 5.15727 9.8164 5.08008 9.77635V6.22365C5.15727 6.1836 5.23741 6.14842 5.32008 6.11854V9.88146Z" fill="#222222"/>
<path d="M5.72008 9.98057C5.63839 9.96913 5.55829 9.95275 5.48008 9.93175V6.06825C5.55829 6.04725 5.63839 6.03087 5.72008 6.01943V9.98057Z" fill="#222222"/>
<path d="M6.12008 9.99645C6.08035 9.99881 6.04032 10 6 10C5.95974 10 5.91975 9.99881 5.88008 9.99646V6.00354C5.91975 6.00119 5.95974 6 6 6C6.04032 6 6.08035 6.00119 6.12008 6.00355V9.99645Z" fill="#222222"/>
<path d="M6.52008 9.93171C6.44187 9.95272 6.36176 9.9691 6.28008 9.98054V6.01946C6.36176 6.0309 6.44187 6.04728 6.52008 6.06829V9.93171Z" fill="#222222"/>
<path d="M6.92008 9.77626C6.84288 9.81633 6.76275 9.85151 6.68008 9.8814V6.1186C6.76275 6.14849 6.84288 6.18367 6.92008 6.22374V9.77626Z" fill="#222222"/>
<path d="M7.32008 9.5025C7.24487 9.56863 7.16466 9.6292 7.08008 9.68357V6.31643C7.16466 6.3708 7.24487 6.43137 7.32008 6.4975V9.5025Z" fill="#222222"/>
<path d="M7.72008 9.02106C7.65099 9.1372 7.57047 9.24575 7.48008 9.34515V6.65485C7.57047 6.75425 7.65099 6.8628 7.72008 6.97894V9.02106Z" fill="#222222"/>
<path d="M7.88008 7.31627C7.95768 7.52959 8 7.75985 8 8C8 8.24015 7.95768 8.47041 7.88008 8.68373V7.31627Z" fill="#222222"/>
</svg>

