<svg xmlns="http://www.w3.org/2000/svg" viewBox="0 0 32 32"><defs><style></style></defs><g id="Layer_2" data-name="Layer 2"><g id="Layer_1-2" data-name="Layer 1"><rect class="cls-1" x="9.92" y="30.28" width="2" height="1.72"/><path class="cls-1" d="M1.4,2.83A2,2,0,0,0,1,4V15.88h.5a1.5,1.5,0,1,1,0,3H1V30a1.93,1.93,0,0,0,.22.9c2.45-3,4.11-8.3,4.11-14.14S3.75,5.91,1.4,2.83Z"/><path class="cls-1" d="M0,16.88v1a1,1,0,0,0,1,1v-3A1,1,0,0,0,0,16.88Z"/><path class="cls-1" d="M21,4a2,2,0,0,0-.47-1.28c-2.39,3.08-4,8.27-4,14a29.58,29.58,0,0,0,.8,6.82V19.33A3.83,3.83,0,0,1,21,15.52Z"/><path class="cls-1" d="M17.33,28a28.28,28.28,0,0,1-2.2-11.26c0-6,1.65-11.37,4.19-14.71A1.73,1.73,0,0,0,19,2H13.42V1a1,1,0,0,0-1-1h-3a1,1,0,0,0-1,1V2H3a2.12,2.12,0,0,0-.44,0c2.53,3.34,4.17,8.67,4.17,14.69C6.73,23,5,28.55,2.25,31.85A1.86,1.86,0,0,0,3,32H8.92V30.28a1,1,0,0,1,1-1h2a1,1,0,0,1,1,1V32h4.9a3.82,3.82,0,0,1-.49-1.83ZM10.94,18a1,1,0,1,1,1-1A1,1,0,0,1,10.94,18ZM12,2H9.82V1.2H12Z"/><path class="cls-1" d="M30.17,17.5h-9a1.84,1.84,0,0,0-1.84,1.83V30.17A1.84,1.84,0,0,0,21.17,32h9A1.83,1.83,0,0,0,32,30.17V19.33A1.83,1.83,0,0,0,30.17,17.5Zm-7.5,3.83H26a.67.67,0,0,1,0,1.34H22.67a.67.67,0,0,1,0-1.34ZM29.33,28H22.67a.67.67,0,1,1,0-1.33h6.66a.67.67,0,1,1,0,1.33Zm0-2.67H22.67a.67.67,0,1,1,0-1.33h6.66a.67.67,0,1,1,0,1.33Z"/></g></g></svg>