<svg viewBox="0 0 44 17" xmlns="http://www.w3.org/2000/svg">
<path d="M13.2191 0.740743C13.4004 0.585392 13.6312 0.5 13.8699 0.5H38.1301C38.3688 0.5 38.5996 0.585392 38.7809 0.740743L41.6508 3.20068C41.8724 3.39066 42 3.66801 42 3.95993V13.0401C42 13.332 41.8724 13.6093 41.6508 13.7993L38.7809 16.2593C38.5996 16.4146 38.3688 16.5 38.1301 16.5H13.8699C13.6312 16.5 13.4004 16.4146 13.2191 16.2593L10.3492 13.7993C10.1276 13.6093 10 13.332 10 13.0401V3.95994C10 3.66801 10.1276 3.39066 10.3492 3.20068L13.2191 0.740743Z"/>
<path opacity="0.16" d="M11.0759 2.57782L10.3492 3.20069C10.1276 3.39067 10 3.66802 10 3.95995V13.0401C10 13.332 10.1276 13.6094 10.3492 13.7993L13.2191 16.2593C13.4004 16.4146 13.6312 16.5 13.8699 16.5H38.1301C38.3688 16.5 38.5996 16.4146 38.7809 16.2593L41.6508 13.7993C41.7717 13.6957 41.8646 13.566 41.9241 13.4222L39.7809 15.2593C39.5996 15.4146 39.3688 15.5 39.1301 15.5H14.8699C14.6312 15.5 14.4004 15.4146 14.2191 15.2593L11.3492 12.7993C11.1276 12.6094 11 12.332 11 12.0401V2.95995C11 2.82728 11.0263 2.69763 11.0759 2.57782Z" fill="#222222"/>
<path opacity="0.24" d="M13.87 0.5C13.6313 0.5 13.4004 0.585392 13.2192 0.740743L10.3492 3.20068C10.2283 3.30432 10.1354 3.43397 10.0759 3.57781L12.2192 1.74074C12.4004 1.58539 12.6313 1.5 12.87 1.5H37.1301C37.3688 1.5 37.5997 1.58539 37.7809 1.74074L40.6508 4.20068C40.8725 4.39066 41 4.66801 41 4.95993V14.0401C41 14.1727 40.9737 14.3024 40.9241 14.4222L41.6508 13.7993C41.8725 13.6093 42 13.332 42 13.0401V3.95993C42 3.66801 41.8725 3.39066 41.6508 3.20068L38.7809 0.740743C38.5997 0.585392 38.3688 0.5 38.1301 0.5H13.87Z" fill="white"/>
<path opacity="0.16" d="M18 5.5C18 4.94772 18.4477 4.5 19 4.5H33C33.5523 4.5 34 4.94772 34 5.5V11.5C34 12.0523 33.5523 12.5 33 12.5H19C18.4477 12.5 18 12.0523 18 11.5V5.5Z" fill="#222222"/>
<path d="M31.0352 6.00503C31.0118 6.00168 30.9881 6 30.9645 6H21.0355C21.0119 6 20.9882 6.00168 20.9648 6.00503L14.4293 6.93867C14.183 6.97386 14 7.18482 14 7.43365V9.56635C14 9.81518 14.183 10.0261 14.4293 10.0613L20.9648 10.995C20.9882 10.9983 21.0119 11 21.0355 11H30.9645C30.9881 11 31.0118 10.9983 31.0352 10.995L37.5707 10.0613C37.817 10.0261 38 9.81518 38 9.56635V7.43365C38 7.18482 37.817 6.97386 37.5707 6.93867L31.0352 6.00503Z" fill="#222222"/>
<path opacity="0.48" d="M29.2764 1.94721C29.107 2.286 28.7607 2.5 28.382 2.5L23.618 2.5C23.2393 2.5 22.893 2.286 22.7236 1.94721L22 0.499999L30 0.5L29.2764 1.94721Z" fill="#222222"/>
<path opacity="0.48" d="M22.7236 15.0528C22.893 14.714 23.2393 14.5 23.618 14.5L28.382 14.5C28.7607 14.5 29.107 14.714 29.2764 15.0528L30 16.5H22L22.7236 15.0528Z" fill="#222222"/>
<circle cx="26" cy="8.5" r="2" fill="#FF9500"/>
<circle cx="26" cy="8.5" r="1.875" stroke="#666666" stroke-width="0.25"/>
<path opacity="0.2" fill-rule="evenodd" clip-rule="evenodd" d="M27.6421 9.64206C27.3183 9.8677 26.9246 10 26.5 10C25.3954 10 24.5 9.10458 24.5 8.00001C24.5 7.57544 24.6323 7.18177 24.8579 6.85797C24.3393 7.21933 24 7.82005 24 8.50002C24 9.60459 24.8954 10.5 26 10.5C26.68 10.5 27.2807 10.1607 27.6421 9.64206Z" fill="#222222"/>
<path d="M40.5 8.5C40.5 9.05228 40.1642 9.5 39.75 9.5C39.3358 9.5 39 9.05228 39 8.5C39 7.94772 39.3358 7.5 39.75 7.5C40.1642 7.5 40.5 7.94772 40.5 8.5Z" fill="#444444"/>
<path fill-rule="evenodd" clip-rule="evenodd" d="M40.1203 9.08711C40.2277 8.94397 40.3 8.73705 40.3 8.5C40.3 8.26295 40.2277 8.05603 40.1203 7.91289C40.013 7.76981 39.88 7.7 39.75 7.7C39.62 7.7 39.487 7.76981 39.3797 7.91289C39.2723 8.05603 39.2 8.26295 39.2 8.5C39.2 8.73705 39.2723 8.94397 39.3797 9.08711C39.487 9.23019 39.62 9.3 39.75 9.3C39.88 9.3 40.013 9.23019 40.1203 9.08711ZM39.75 9.5C40.1642 9.5 40.5 9.05228 40.5 8.5C40.5 7.94772 40.1642 7.5 39.75 7.5C39.3358 7.5 39 7.94772 39 8.5C39 9.05228 39.3358 9.5 39.75 9.5Z" fill="#666666"/>
<path d="M24.7628 15.6709C24.7968 15.5689 24.8923 15.5 24.9999 15.5L27 15.5C27.1076 15.5 27.2031 15.5689 27.2372 15.6709L27.4743 16.6709C27.5283 16.8328 27.4078 17 27.2372 17L24.7628 17C24.5921 17 24.4716 16.8328 24.5256 16.6709L24.7628 15.6709Z" fill="#444444"/>
<path d="M8 6.75C8 6.05964 8.55964 5.5 9.25 5.5H10V11.5H9.25C8.55964 11.5 8 10.9404 8 10.25V6.75Z" fill="#444444"/>
<path d="M24.5256 0.329057C24.4716 0.167174 24.5921 7.27325e-08 24.7628 7.27325e-08L27.2372 -7.27325e-08C27.4078 -7.27325e-08 27.5283 0.167174 27.4743 0.329057L27.2372 1.32906C27.2031 1.43114 27.1076 1.5 27 1.5L24.9999 1.5C24.8923 1.5 24.7968 1.43114 24.7628 1.32906L24.5256 0.329057Z" fill="#444444"/>
<path fill-rule="evenodd" clip-rule="evenodd" d="M42 5.5H43.3333L44 6.16667V10.8333L43.3333 11.5H42V5.5ZM43.3333 6.5C43.3333 6.68409 43.1841 6.83333 43 6.83333C42.8159 6.83333 42.6667 6.68409 42.6667 6.5C42.6667 6.31591 42.8159 6.16667 43 6.16667C43.1841 6.16667 43.3333 6.31591 43.3333 6.5ZM43 10.8333C43.1841 10.8333 43.3333 10.6841 43.3333 10.5C43.3333 10.3159 43.1841 10.1667 43 10.1667C42.8159 10.1667 42.6667 10.3159 42.6667 10.5C42.6667 10.6841 42.8159 10.8333 43 10.8333Z" fill="#444444"/>
<path d="M0.759712 8.93412C0.423805 8.74217 0.423805 8.25783 0.759713 8.06588L5.83781 5.16411C6.23949 4.93458 6.71064 5.32675 6.55781 5.76341L5.65781 8.33481C5.62038 8.44175 5.62038 8.55823 5.65781 8.66516L6.55781 11.2366C6.71064 11.6733 6.23949 12.0654 5.83781 11.8359L0.759712 8.93412Z"/>
<path opacity="0.16" fill-rule="evenodd" clip-rule="evenodd" d="M1.01401 7.92056C0.983459 8.11412 1.06536 8.32306 1.25971 8.43413L6.33781 11.3359C6.42004 11.3829 6.50519 11.4038 6.5873 11.4036C6.5891 11.7648 6.18718 12.0355 5.83781 11.8359L0.759712 8.93413C0.423805 8.74217 0.423805 8.25783 0.759712 8.06587L1.01401 7.92056Z" fill="#222222"/>
<path opacity="0.24" fill-rule="evenodd" clip-rule="evenodd" d="M0.759713 8.06588C0.423805 8.25783 0.423805 8.74218 0.759712 8.93413L1.014 9.07944C0.98346 8.88588 1.06536 8.67694 1.25971 8.56588L6.33781 5.66411C6.42004 5.61712 6.50519 5.59619 6.5873 5.59636C6.58911 5.23516 6.18718 4.96447 5.83781 5.16411L0.759713 8.06588Z" fill="white"/>
</svg>