<svg viewBox="0 0 63 36" xmlns="http://www.w3.org/2000/svg">
		<path d="M6.29282 15.2929C6.10528 15.1054 5.99992 14.851 5.99992 14.5858L5.99992 3.41426C5.99992 3.14904 6.10528 2.89469 6.29282 2.70715L7.70703 1.29294C7.89457 1.1054 8.14892 1.00005 8.41414 1.00005L19.5857 1.00005C19.8509 1.00005 20.1053 1.1054 20.2928 1.29294L21.707 2.70715C21.8946 2.89469 21.9999 3.14904 21.9999 3.41426V14.5858C21.9999 14.851 21.8946 15.1054 21.707 15.2929L20.2928 16.7072C20.1053 16.8947 19.8509 17 19.5857 17H8.41414C8.14892 17 7.89457 16.8947 7.70703 16.7072L6.29282 15.2929Z" fill="" />
		<path opacity="0.32" d="M6.29289 15.2929C6.10536 15.1054 6 14.851 6 14.5858L6 3.41421C6 3.149 6.10536 2.89464 6.29289 2.70711L7.70711 1.29289C7.89464 1.10536 8.149 1 8.41421 1L19.5858 1C19.851 1 20.1054 1.10536 20.2929 1.29289L21.7071 2.70711C21.8946 2.89464 22 3.149 22 3.41421V14.5858C22 14.851 21.8946 15.1054 21.7071 15.2929L20.2929 16.7071C20.1054 16.8946 19.851 17 19.5858 17H8.41421C8.149 17 7.89464 16.8946 7.70711 16.7071L6.29289 15.2929Z" fill="#222222" />
		<path d="M18.3597 12.2999C18.1317 12.1099 17.9999 11.8285 17.9999 11.5317L17.9999 6.46842C17.9999 6.17164 18.1317 5.89019 18.3597 5.7002L23.7218 1.23182C23.9015 1.08206 24.128 1.00005 24.362 1.00005L34.5857 1.00005C34.8509 1.00005 35.1053 1.1054 35.2928 1.29294L37.707 3.70715C37.8946 3.89469 37.9999 4.14904 37.9999 4.41426V13.5858C37.9999 13.851 37.8946 14.1054 37.707 14.2929L35.2928 16.7072C35.1053 16.8947 34.8509 17 34.5857 17H24.362C24.128 17 23.9015 16.918 23.7218 16.7683L18.3597 12.2999Z" fill="#444444" />
		<path d="M1.29282 15.2929C1.10528 15.1054 0.999924 14.851 0.999924 14.5858L0.999924 3.41426C0.999924 3.14904 1.10528 2.89469 1.29282 2.70715L2.70703 1.29294C2.89457 1.1054 3.14892 1.00005 3.41414 1.00005L14.5857 1.00005C14.8509 1.00005 15.1053 1.1054 15.2928 1.29294L16.707 2.70715C16.8946 2.89469 16.9999 3.14904 16.9999 3.41426V14.5858C16.9999 14.851 16.8946 15.1054 16.707 15.2929L15.2928 16.7072C15.1053 16.8947 14.8509 17 14.5857 17H3.41414C3.14892 17 2.89457 16.8947 2.70703 16.7072L1.29282 15.2929Z" fill="" />
		<path opacity="0.24" d="M16 16L16.7071 15.2929C16.8946 15.1054 17 14.851 17 14.5858L17 3.41426C17 3.14904 16.8946 2.89469 16.7071 2.70715L15.2929 1.29294C15.1053 1.1054 14.851 1.00005 14.5858 1.00005L3.41419 1.00005C3.14897 1.00005 2.89462 1.1054 2.70708 1.29294L1.99998 2.00004L3.29287 3.29294C3.47383 3.11197 3.72383 3.00005 3.99998 3.00005L14 3.00005C14.5523 3.00005 15 3.44776 15 4.00005L15 14C15 14.2762 14.888 14.5262 14.7071 14.7072L16 16Z" fill="white" />
		<path opacity="0.16" d="M0.999977 3.41423C0.999977 3.14909 1.10544 2.8947 1.29294 2.7072L1.99998 2.00005L3.29287 3.29294C3.11204 3.47377 3.00015 3.72352 2.99998 3.99941L2.99998 14C2.99998 14.5523 3.44773 15 3.99998 15L14 15C14.276 14.9999 14.5262 14.888 14.7071 14.7072L16 16L15.2929 16.7072C15.1054 16.8947 14.8511 17 14.5857 17L3.41428 17C3.1489 17 2.89451 16.8947 2.70701 16.7072L1.29295 15.2929C1.2114 15.2115 1.14548 15.1175 1.0969 15.0154C1.03367 14.8824 0.999977 14.7359 0.999977 14.5859L0.999977 3.41423Z" fill="#222222" />
		<path opacity="0.48" d="M7.22368 16.0528C7.39307 15.714 7.73933 15.5 8.1181 15.5L9.88197 15.5C10.2607 15.5 10.607 15.714 10.7764 16.0528L11 17L7.00007 17L7.22368 16.0528Z" fill="#222222" />
		<path opacity="0.48" d="M7.22361 1.94721C7.39301 2.286 7.73927 2.5 8.11804 2.5L9.88197 2.5C10.2607 2.5 10.607 2.286 10.7764 1.94721L11 0.999999L7.00001 1L7.22361 1.94721Z" fill="#222222" />
		<path d="M1.34335 10.5491C1.1463 10.521 0.999924 10.3522 0.999924 10.1531L0.999924 7.84696C0.999924 7.6479 1.1463 7.47914 1.34336 7.45098L4.42957 7.0101C4.47641 7.0034 4.52367 7.00005 4.57099 7.00005L13.4289 7.00005C13.4762 7.00005 13.5234 7.0034 13.5703 7.0101L16.6565 7.45098C16.8536 7.47914 16.9999 7.6479 16.9999 7.84696V10.1531C16.9999 10.3522 16.8536 10.521 16.6565 10.5491L13.5703 10.99C13.5234 10.9967 13.4762 11 13.4289 11L4.57099 11C4.52367 11 4.47641 10.9967 4.42957 10.99L1.34335 10.5491Z" fill="#222222" />
		<path d="M4 9C4 9.27614 3.77614 9.5 3.5 9.5C3.22386 9.5 3 9.27614 3 9C3 8.72386 3.22386 8.5 3.5 8.5C3.77614 8.5 4 8.72386 4 9Z" fill="#343434" />
		<path fill-rule="evenodd" clip-rule="evenodd" d="M3.74689 9.29355C3.81846 9.22198 3.86667 9.11853 3.86667 9C3.86667 8.88147 3.81846 8.77802 3.74689 8.70645C3.67535 8.63491 3.58669 8.6 3.5 8.6C3.41331 8.6 3.32465 8.63491 3.25311 8.70645C3.18154 8.77802 3.13333 8.88147 3.13333 9C3.13333 9.11853 3.18154 9.22198 3.25311 9.29355C3.32465 9.36509 3.41331 9.4 3.5 9.4C3.58669 9.4 3.67535 9.36509 3.74689 9.29355ZM3.5 9.5C3.77614 9.5 4 9.27614 4 9C4 8.72386 3.77614 8.5 3.5 8.5C3.22386 8.5 3 8.72386 3 9C3 9.27614 3.22386 9.5 3.5 9.5Z" fill="#444444" />
		<rect x="11" y="11" width="4" height="1" transform="rotate(-90 11 11)" fill="url(#paint0_linear_1092_10475)" />
		<rect x="7" y="7" width="4" height="1" transform="rotate(90 7 7)" fill="url(#paint1_linear_1092_10475)" />
		<path d="M7.49992 11.5C7.22378 11.5 6.99992 11.2762 6.99992 11L6.99992 7.00005C6.99992 6.7239 7.22378 6.50005 7.49992 6.50005L10.4999 6.50005C10.7761 6.50005 10.9999 6.7239 10.9999 7.00005V11C10.9999 11.2762 10.7761 11.5 10.4999 11.5H7.49992Z" fill="#222222" />
		<mask id="mask0_1092_10475" style="mask-type:alpha" maskUnits="userSpaceOnUse" x="7" y="6" width="4" height="6">
			<path d="M7.5 11.5C7.22386 11.5 7 11.2761 7 11L7 7C7 6.72386 7.22386 6.5 7.5 6.5L10.5 6.5C10.7761 6.5 11 6.72386 11 7L11 11C11 11.2761 10.7761 11.5 10.5 11.5L7.5 11.5Z" fill="#222222" />
		</mask>
		<g mask="url(#mask0_1092_10475)">
			<path fill-rule="evenodd" clip-rule="evenodd" d="M8.07064 10.5708L7.07064 11.5708L6.92921 11.4293L7.92921 10.4293L8.07064 10.5708Z" fill="#444444" />
			<path fill-rule="evenodd" clip-rule="evenodd" d="M8.07064 7.42934L7.07064 6.42934L6.92921 6.57076L7.92921 7.57076L8.07064 7.42934Z" fill="#444444" />
			<path fill-rule="evenodd" clip-rule="evenodd" d="M10.0706 10.4293L11.0706 11.4293L10.9292 11.5708L9.92921 10.5708L10.0706 10.4293Z" fill="#444444" />
			<path fill-rule="evenodd" clip-rule="evenodd" d="M10.0706 7.57076L11.0706 6.57076L10.9292 6.42934L9.92921 7.42934L10.0706 7.57076Z" fill="#444444" />
		</g>
		<circle cx="9" cy="9" r="1.125" transform="rotate(-90 9 9)" fill="#FF9500" stroke="#444444" stroke-width="0.25" />
		<circle cx="9" cy="5.5" r="0.625" transform="rotate(-90 9 5.5)" fill="#A0451B" stroke="#333333" stroke-width="0.25" />
		<circle cx="9" cy="12.5" r="0.625" transform="rotate(-90 9 12.5)" fill="#A0451B" stroke="#333333" stroke-width="0.25" />
		<path d="M7.99992 18L7.99992 17C7.99992 16.4478 8.44764 16 8.99992 16C9.55221 16 9.99992 16.4478 9.99992 17V18H7.99992Z" fill="#444444" />
		<path d="M7.99992 4.58638e-05L7.99992 1.00005C7.99992 1.55233 8.44764 2.00005 8.99992 2.00005C9.55221 2.00005 9.99992 1.55233 9.99992 1.00005V4.57764e-05L7.99992 4.58638e-05Z" fill="#444444" />
		<path d="M0.499924 7.00005C0.223781 7.00005 -7.6306e-05 7.2239 -7.62939e-05 7.50005L-7.61628e-05 10.5C-7.61507e-05 10.7762 0.223782 11 0.499924 11H0.999924L0.999924 7.00005L0.499924 7.00005Z" fill="#444444" />
		<circle cx="25.5" cy="2.5" r="0.5" fill="#222222" />
		<circle cx="33.5" cy="2.5" r="0.5" fill="#222222" />
		<circle cx="0.5" cy="0.5" r="0.5" transform="matrix(-1 0 0 1 37 12)" fill="#222222" />
		<circle cx="36.5" cy="5.5" r="0.5" fill="#222222" />
		<circle cx="0.5" cy="0.5" r="0.5" transform="matrix(-1 0 0 1 34 15)" fill="#222222" />
		<circle cx="25.5" cy="15.5" r="0.5" fill="#222222" />
		<circle cx="21.5" cy="5.5" r="0.5" fill="#222222" />
		<circle cx="21.5" cy="12.5" r="0.5" fill="#222222" />
		<defs>
			<linearGradient id="paint0_linear_1092_10475" x1="13" y1="11" x2="13" y2="12" gradientUnits="userSpaceOnUse">
				<stop stop-color="#111111" />
				<stop offset="1" stop-color="#222222" />
			</linearGradient>
			<linearGradient id="paint1_linear_1092_10475" x1="9" y1="7" x2="9" y2="8" gradientUnits="userSpaceOnUse">
				<stop stop-color="#111111" />
				<stop offset="1" stop-color="#222222" />
			</linearGradient>
		</defs>
</svg>
