<svg viewBox="0 0 39 16" xmlns="http://www.w3.org/2000/svg">
<rect x="9" width="30" height="16" rx="1"/>
<path opacity="0.16" d="M20.5 5.5L11 2V14L20.5 10.5V5.5Z" fill="black"/>
<path opacity="0.4" d="M27.5 5.5L37 2V14L27.5 10.5V5.5Z" fill="white"/>
<path opacity="0.32" d="M11 14L20.5 10.5H27.5L37 14H11Z" fill="black"/>
<path opacity="0.24" d="M11 2L20.5 5.5H27.5L37 2H11Z" fill="white"/>
<path d="M21.4142 11C21.149 11 20.8946 10.8946 20.7071 10.7071L20.2929 10.2929C20.1054 10.1054 20 9.851 20 9.58579L20 6.41421C20 6.149 20.1054 5.89464 20.2929 5.70711L20.7071 5.29289C20.8946 5.10536 21.149 5 21.4142 5L26.5858 5C26.851 5 27.1054 5.10536 27.2929 5.29289L27.7071 5.70711C27.8946 5.89464 28 6.149 28 6.41421V9.58579C28 9.851 27.8946 10.1054 27.7071 10.2929L27.2929 10.7071C27.1054 10.8946 26.851 11 26.5858 11H21.4142Z" fill="#444444"/>
<path opacity="0.16" fill-rule="evenodd" clip-rule="evenodd" d="M20.7071 10.7071C20.8946 10.8946 21.149 11 21.4142 11H22.4142C22.149 11 21.8946 10.8946 21.7071 10.7071L21.2929 10.2929C21.1054 10.1054 21 9.851 21 9.58579V6.41421C21 6.149 21.1054 5.89464 21.2929 5.70711L21.7071 5.29289C21.8946 5.10536 22.149 5 22.4142 5H21.4142C21.149 5 20.8946 5.10536 20.7071 5.29289L20.2929 5.70711C20.1054 5.89464 20 6.149 20 6.41421V9.58579C20 9.851 20.1054 10.1054 20.2929 10.2929L20.7071 10.7071Z" fill="black"/>
<path opacity="0.08" fill-rule="evenodd" clip-rule="evenodd" d="M27.2929 5.29289C27.1054 5.10536 26.851 5 26.5858 5L25.5858 5C25.851 5 26.1054 5.10536 26.2929 5.29289L26.7071 5.70711C26.8946 5.89464 27 6.149 27 6.41421L27 9.58579C27 9.851 26.8946 10.1054 26.7071 10.2929L26.2929 10.7071C26.1054 10.8946 25.851 11 25.5858 11L26.5858 11C26.851 11 27.1054 10.8946 27.2929 10.7071L27.7071 10.2929C27.8946 10.1054 28 9.851 28 9.58579L28 6.41421C28 6.149 27.8946 5.89464 27.7071 5.70711L27.2929 5.29289Z" fill="white"/>
<path d="M31.5 8C31.5 8.55228 31.1642 9 30.75 9C30.3358 9 30 8.55228 30 8C30 7.44772 30.3358 7 30.75 7C31.1642 7 31.5 7.44772 31.5 8Z" fill="#444444"/>
<path fill-rule="evenodd" clip-rule="evenodd" d="M31.1203 8.58711C31.2277 8.44397 31.3 8.23705 31.3 8C31.3 7.76295 31.2277 7.55603 31.1203 7.41289C31.013 7.26981 30.88 7.2 30.75 7.2C30.62 7.2 30.487 7.26981 30.3797 7.41289C30.2723 7.55603 30.2 7.76295 30.2 8C30.2 8.23705 30.2723 8.44397 30.3797 8.58711C30.487 8.73019 30.62 8.8 30.75 8.8C30.88 8.8 31.013 8.73019 31.1203 8.58711ZM30.75 9C31.1642 9 31.5 8.55228 31.5 8C31.5 7.44772 31.1642 7 30.75 7C30.3358 7 30 7.44772 30 8C30 8.55228 30.3358 9 30.75 9Z" fill="#666666"/>
<circle cx="36.5" cy="14.5" r="0.5" fill="#222222"/>
<circle cx="11.5" cy="14.5" r="0.5" fill="#222222"/>
<circle cx="36.5" cy="1.5" r="0.5" fill="#222222"/>
<circle cx="11.5" cy="1.5" r="0.5" fill="#222222"/>
<path d="M13.1201 7.31584C13.0424 7.52929 13 7.75969 13 8C13 8.24031 13.0424 8.47072 13.1201 8.68416V7.31584Z" fill="#222222"/>
<path d="M13.5201 9.34532C13.4297 9.24595 13.3492 9.13743 13.2801 9.02133V6.97867C13.3492 6.86257 13.4297 6.75405 13.5201 6.65468V9.34532Z" fill="#222222"/>
<path d="M13.9201 9.68367C13.8355 9.62931 13.7553 9.56875 13.6801 9.50263V6.49737C13.7553 6.43125 13.8355 6.37069 13.9201 6.31633V9.68367Z" fill="#222222"/>
<path d="M14.3201 9.88146C14.2374 9.85158 14.1573 9.8164 14.0801 9.77635V6.22365C14.1573 6.1836 14.2374 6.14842 14.3201 6.11854V9.88146Z" fill="#222222"/>
<path d="M14.7201 9.98057C14.6384 9.96913 14.5583 9.95275 14.4801 9.93175V6.06825C14.5583 6.04725 14.6384 6.03087 14.7201 6.01943V9.98057Z" fill="#222222"/>
<path d="M15.1201 9.99645C15.0804 9.99881 15.0403 10 15 10C14.9597 10 14.9198 9.99881 14.8801 9.99646V6.00354C14.9198 6.00119 14.9597 6 15 6C15.0403 6 15.0804 6.00119 15.1201 6.00355V9.99645Z" fill="#222222"/>
<path d="M15.5201 9.93171C15.4419 9.95272 15.3618 9.9691 15.2801 9.98054V6.01946C15.3618 6.0309 15.4419 6.04728 15.5201 6.06829V9.93171Z" fill="#222222"/>
<path d="M15.9201 9.77626C15.8429 9.81633 15.7627 9.85151 15.6801 9.8814V6.1186C15.7627 6.14849 15.8429 6.18367 15.9201 6.22374V9.77626Z" fill="#222222"/>
<path d="M16.3201 9.5025C16.2449 9.56863 16.1647 9.6292 16.0801 9.68357V6.31643C16.1647 6.3708 16.2449 6.43137 16.3201 6.4975V9.5025Z" fill="#222222"/>
<path d="M16.7201 9.02106C16.651 9.1372 16.5705 9.24575 16.4801 9.34515V6.65485C16.5705 6.75425 16.651 6.8628 16.7201 6.97894V9.02106Z" fill="#222222"/>
<path d="M16.8801 7.31627C16.9577 7.52959 17 7.75985 17 8C17 8.24015 16.9577 8.47041 16.8801 8.68373V7.31627Z" fill="#222222"/>
<path d="M0.759712 7.93412C0.423805 7.74217 0.423805 7.25783 0.759713 7.06588L5.83781 4.16411C6.23949 3.93458 6.71064 4.32675 6.55781 4.76341L5.65781 7.33481C5.62038 7.44175 5.62038 7.55823 5.65781 7.66516L6.55781 10.2366C6.71064 10.6733 6.23949 11.0654 5.83781 10.8359L0.759712 7.93412Z"/>
<path opacity="0.16" fill-rule="evenodd" clip-rule="evenodd" d="M1.014 6.92056C0.98346 7.11412 1.06536 7.32306 1.25971 7.43412L6.33781 10.3359C6.42005 10.3829 6.50519 10.4038 6.5873 10.4036C6.58911 10.7648 6.18718 11.0355 5.83781 10.8359L0.759712 7.93412C0.423805 7.74217 0.423805 7.25782 0.759713 7.06587L1.014 6.92056Z" fill="#222222"/>
<path opacity="0.24" fill-rule="evenodd" clip-rule="evenodd" d="M0.759713 7.06588C0.423805 7.25783 0.423805 7.74218 0.759712 7.93413L1.014 8.07944C0.983461 7.88588 1.06536 7.67694 1.25971 7.56588L6.33781 4.66411C6.42004 4.61712 6.50519 4.59619 6.5873 4.59636C6.58911 4.23516 6.18718 3.96447 5.83781 4.16411L0.759713 7.06588Z" fill="white"/>
</svg>
