<svg  viewBox="0 0 45 10" xmlns="http://www.w3.org/2000/svg">
<rect x="3" width="24" height="24" rx="0.5"/>
<mask id="mask0_1092_10510" style="mask-type:alpha" maskUnits="userSpaceOnUse" x="3" y="0" width="24" height="24">
<path fill-rule="evenodd" clip-rule="evenodd" d="M3.5 0C3.22386 0 3 0.223857 3 0.5V23.5C3 23.7761 3.22386 24 3.5 24H26.5C26.7761 24 27 23.7761 27 23.5V0.5C27 0.223858 26.7761 0 26.5 0H3.5ZM26 1H4V23H26V1Z" fill="#D1D1D1"/>
</mask>
<g mask="url(#mask0_1092_10510)">
<path opacity="0.16" d="M5 2L3 0V24H27L25 22H5V2Z" fill="#222222"/>
<path opacity="0.32" d="M25 22L27 24L27 -3.05176e-05L3 -3.26157e-05L5 1.99997L25 1.99997L25 22Z" fill="white"/>
</g>
<circle cx="20" cy="21" r="0.875" fill="#222222" stroke="#444444" stroke-width="0.25"/>
<circle cx="20" cy="3" r="0.875" fill="#222222" stroke="#444444" stroke-width="0.25"/>
<circle cx="10" cy="21" r="0.875" fill="#222222" stroke="#444444" stroke-width="0.25"/>
<circle cx="10" cy="3" r="0.875" fill="#222222" stroke="#444444" stroke-width="0.25"/>
<mask id="path-9-inside-1_1092_10510" fill="white">
<path d="M4 7H6V17H4V7Z"/>
</mask>
<path d="M4 7H6V17H4V7Z" fill="url(#paint0_linear_1092_10510)"/>
<path d="M5.9 7V17H6.1V7H5.9Z" fill="#444444" mask="url(#path-9-inside-1_1092_10510)"/>
<mask id="path-11-inside-2_1092_10510" fill="white">
<path d="M6 7H8V17H6V7Z"/>
</mask>
<path d="M6 7H8V17H6V7Z" fill="url(#paint1_linear_1092_10510)"/>
<path d="M7.9 7V17H8.1V7H7.9ZM6.1 17V7H5.9V17H6.1Z" fill="#444444" mask="url(#path-11-inside-2_1092_10510)"/>
<mask id="path-13-inside-3_1092_10510" fill="white">
<path d="M8 7H10V17H8V7Z"/>
</mask>
<path d="M8 7H10V17H8V7Z" fill="url(#paint2_linear_1092_10510)"/>
<path d="M9.9 7V17H10.1V7H9.9ZM8.1 17V7H7.9V17H8.1Z" fill="#444444" mask="url(#path-13-inside-3_1092_10510)"/>
<mask id="path-15-inside-4_1092_10510" fill="white">
<path d="M10 7H12V17H10V7Z"/>
</mask>
<path d="M10 7H12V17H10V7Z" fill="url(#paint3_linear_1092_10510)"/>
<path d="M11.9 7V17H12.1V7H11.9ZM10.1 17V7H9.9V17H10.1Z" fill="#444444" mask="url(#path-15-inside-4_1092_10510)"/>
<mask id="path-17-inside-5_1092_10510" fill="white">
<path d="M12 7H14V17H12V7Z"/>
</mask>
<path d="M12 7H14V17H12V7Z" fill="url(#paint4_linear_1092_10510)"/>
<path d="M13.9 7V17H14.1V7H13.9ZM12.1 17V7H11.9V17H12.1Z" fill="#444444" mask="url(#path-17-inside-5_1092_10510)"/>
<mask id="path-19-inside-6_1092_10510" fill="white">
<path d="M14 7H16V17H14V7Z"/>
</mask>
<path d="M14 7H16V17H14V7Z" fill="url(#paint5_linear_1092_10510)"/>
<path d="M15.9 7V17H16.1V7H15.9ZM14.1 17V7H13.9V17H14.1Z" fill="#444444" mask="url(#path-19-inside-6_1092_10510)"/>
<mask id="path-21-inside-7_1092_10510" fill="white">
<path d="M16 7H18V17H16V7Z"/>
</mask>
<path d="M16 7H18V17H16V7Z" fill="url(#paint6_linear_1092_10510)"/>
<path d="M17.9 7V17H18.1V7H17.9ZM16.1 17V7H15.9V17H16.1Z" fill="#444444" mask="url(#path-21-inside-7_1092_10510)"/>
<mask id="path-23-inside-8_1092_10510" fill="white">
<path d="M18 7H20V17H18V7Z"/>
</mask>
<path d="M18 7H20V17H18V7Z" fill="url(#paint7_linear_1092_10510)"/>
<path d="M19.9 7V17H20.1V7H19.9ZM18.1 17V7H17.9V17H18.1Z" fill="#444444" mask="url(#path-23-inside-8_1092_10510)"/>
<mask id="path-25-inside-9_1092_10510" fill="white">
<path d="M20 7H22V17H20V7Z"/>
</mask>
<path d="M20 7H22V17H20V7Z" fill="url(#paint8_linear_1092_10510)"/>
<path d="M21.9 7V17H22.1V7H21.9ZM20.1 17V7H19.9V17H20.1Z" fill="#444444" mask="url(#path-25-inside-9_1092_10510)"/>
<mask id="path-27-inside-10_1092_10510" fill="white">
<path d="M22 7H24V17H22V7Z"/>
</mask>
<path d="M22 7H24V17H22V7Z" fill="url(#paint9_linear_1092_10510)"/>
<path d="M23.9 7V17H24.1V7H23.9ZM22.1 17V7H21.9V17H22.1Z" fill="#444444" mask="url(#path-27-inside-10_1092_10510)"/>
<mask id="path-29-inside-11_1092_10510" fill="white">
<path d="M24 7H26V17H24V7Z"/>
</mask>
<path d="M24 7H26V17H24V7Z" fill="url(#paint10_linear_1092_10510)"/>
<path d="M24.1 17V7H23.9V17H24.1Z" fill="#444444" mask="url(#path-29-inside-11_1092_10510)"/>
<path d="M25.75 6C25.8881 6 26 6.11193 26 6.25L26 7L4 7L4 6.25C4 6.11193 4.11193 6 4.25 6L25.75 6Z" fill="#444444"/>
<path d="M26 17L26 17.75C26 17.8881 25.8881 18 25.75 18L4.25 18C4.11193 18 4 17.8881 4 17.75L4 17L26 17Z" fill="#444444"/>
<rect x="12.125" y="2.125" width="5.75" height="1.75" fill="#666666" stroke="#444444" stroke-width="0.25"/>
<path d="M14.5 2H15.5V2.5H14.5V2Z" fill="#444444"/>
<path d="M14.5 3.5H15.5V4H14.5V3.5Z" fill="#444444"/>
<rect x="12.125" y="20.125" width="5.75" height="1.75" fill="#666666" stroke="#444444" stroke-width="0.25"/>
<path d="M14.5 20H15.5V20.5H14.5V20Z" fill="#444444"/>
<path d="M14.5 21.5H15.5V22H14.5V21.5Z" fill="#444444"/>
<path fill-rule="evenodd" clip-rule="evenodd" d="M26 18L-4.37114e-08 18L0.5 19L26 19L26 18ZM0.5 17.5L-4.37114e-08 18L4 18L3.5 17.5L0.5 17.5Z" fill="#222222"/>
<path fill-rule="evenodd" clip-rule="evenodd" d="M-2.18557e-08 6L0.5 6.5L3.5 6.5L4 6L26 6L26 5L0.5 5L-2.18557e-08 6Z" fill="#222222"/>
<mask id="path-41-inside-12_1092_10510" fill="white">
<path d="M11 5L12 4L18 4L19 5L11 5Z"/>
</mask>
<path d="M11 5L12 4L18 4L19 5L11 5Z" fill="#666666"/>
<path d="M11 5L10.2929 4.29289L8.58579 6L11 6L11 5ZM12 4L12 3L11.5858 3L11.2929 3.29289L12 4ZM18 4L18.7071 3.29289L18.4142 3L18 3L18 4ZM19 5L19 6L21.4142 6L19.7071 4.29289L19 5ZM11.7071 5.70711L12.7071 4.70711L11.2929 3.29289L10.2929 4.29289L11.7071 5.70711ZM12 5L18 5L18 3L12 3L12 5ZM17.2929 4.70711L18.2929 5.70711L19.7071 4.29289L18.7071 3.29289L17.2929 4.70711ZM19 4L11 4L11 6L19 6L19 4Z" fill="#444444" mask="url(#path-41-inside-12_1092_10510)"/>
<mask id="path-43-inside-13_1092_10510" fill="white">
<path d="M19 19L18 20L12 20L11 19L19 19Z"/>
</mask>
<path d="M19 19L18 20L12 20L11 19L19 19Z" fill="#666666"/>
<path d="M19 19L19.7071 19.7071L21.4142 18L19 18L19 19ZM18 20L18 21L18.4142 21L18.7071 20.7071L18 20ZM12 20L11.2929 20.7071L11.5858 21L12 21L12 20ZM11 19L11 18L8.58579 18L10.2929 19.7071L11 19ZM18.2929 18.2929L17.2929 19.2929L18.7071 20.7071L19.7071 19.7071L18.2929 18.2929ZM18 19L12 19L12 21L18 21L18 19ZM12.7071 19.2929L11.7071 18.2929L10.2929 19.7071L11.2929 20.7071L12.7071 19.2929ZM11 20L19 20L19 18L11 18L11 20Z" fill="#444444" mask="url(#path-43-inside-13_1092_10510)"/>
<defs>
<linearGradient id="paint0_linear_1092_10510" x1="6" y1="12" x2="4" y2="12" gradientUnits="userSpaceOnUse">
<stop stop-color="#111111"/>
<stop offset="0.2" stop-color="#555555"/>
<stop offset="0.4" stop-color="#777777"/>
<stop offset="0.6" stop-color="#666666"/>
<stop offset="0.8" stop-color="#444444"/>
<stop offset="1" stop-color="#666666"/>
</linearGradient>
<linearGradient id="paint1_linear_1092_10510" x1="8" y1="12" x2="6" y2="12" gradientUnits="userSpaceOnUse">
<stop stop-color="#111111"/>
<stop offset="0.2" stop-color="#555555"/>
<stop offset="0.4" stop-color="#777777"/>
<stop offset="0.6" stop-color="#666666"/>
<stop offset="0.8" stop-color="#444444"/>
<stop offset="1" stop-color="#666666"/>
</linearGradient>
<linearGradient id="paint2_linear_1092_10510" x1="10" y1="12" x2="8" y2="12" gradientUnits="userSpaceOnUse">
<stop stop-color="#111111"/>
<stop offset="0.2" stop-color="#555555"/>
<stop offset="0.4" stop-color="#777777"/>
<stop offset="0.6" stop-color="#666666"/>
<stop offset="0.8" stop-color="#444444"/>
<stop offset="1" stop-color="#666666"/>
</linearGradient>
<linearGradient id="paint3_linear_1092_10510" x1="12" y1="12" x2="10" y2="12" gradientUnits="userSpaceOnUse">
<stop stop-color="#111111"/>
<stop offset="0.2" stop-color="#555555"/>
<stop offset="0.4" stop-color="#777777"/>
<stop offset="0.6" stop-color="#666666"/>
<stop offset="0.8" stop-color="#444444"/>
<stop offset="1" stop-color="#666666"/>
</linearGradient>
<linearGradient id="paint4_linear_1092_10510" x1="14" y1="12" x2="12" y2="12" gradientUnits="userSpaceOnUse">
<stop stop-color="#111111"/>
<stop offset="0.2" stop-color="#555555"/>
<stop offset="0.4" stop-color="#777777"/>
<stop offset="0.6" stop-color="#666666"/>
<stop offset="0.8" stop-color="#444444"/>
<stop offset="1" stop-color="#666666"/>
</linearGradient>
<linearGradient id="paint5_linear_1092_10510" x1="16" y1="12" x2="14" y2="12" gradientUnits="userSpaceOnUse">
<stop stop-color="#111111"/>
<stop offset="0.2" stop-color="#555555"/>
<stop offset="0.4" stop-color="#777777"/>
<stop offset="0.6" stop-color="#666666"/>
<stop offset="0.8" stop-color="#444444"/>
<stop offset="1" stop-color="#666666"/>
</linearGradient>
<linearGradient id="paint6_linear_1092_10510" x1="18" y1="12" x2="16" y2="12" gradientUnits="userSpaceOnUse">
<stop stop-color="#111111"/>
<stop offset="0.2" stop-color="#555555"/>
<stop offset="0.4" stop-color="#777777"/>
<stop offset="0.6" stop-color="#666666"/>
<stop offset="0.8" stop-color="#444444"/>
<stop offset="1" stop-color="#666666"/>
</linearGradient>
<linearGradient id="paint7_linear_1092_10510" x1="20" y1="12" x2="18" y2="12" gradientUnits="userSpaceOnUse">
<stop stop-color="#111111"/>
<stop offset="0.2" stop-color="#555555"/>
<stop offset="0.4" stop-color="#777777"/>
<stop offset="0.6" stop-color="#666666"/>
<stop offset="0.8" stop-color="#444444"/>
<stop offset="1" stop-color="#666666"/>
</linearGradient>
<linearGradient id="paint8_linear_1092_10510" x1="22" y1="12" x2="20" y2="12" gradientUnits="userSpaceOnUse">
<stop stop-color="#111111"/>
<stop offset="0.2" stop-color="#555555"/>
<stop offset="0.4" stop-color="#777777"/>
<stop offset="0.6" stop-color="#666666"/>
<stop offset="0.8" stop-color="#444444"/>
<stop offset="1" stop-color="#666666"/>
</linearGradient>
<linearGradient id="paint9_linear_1092_10510" x1="24" y1="12" x2="22" y2="12" gradientUnits="userSpaceOnUse">
<stop stop-color="#111111"/>
<stop offset="0.2" stop-color="#555555"/>
<stop offset="0.4" stop-color="#777777"/>
<stop offset="0.6" stop-color="#666666"/>
<stop offset="0.8" stop-color="#444444"/>
<stop offset="1" stop-color="#666666"/>
</linearGradient>
<linearGradient id="paint10_linear_1092_10510" x1="26" y1="12" x2="24" y2="12" gradientUnits="userSpaceOnUse">
<stop stop-color="#111111"/>
<stop offset="0.2" stop-color="#555555"/>
<stop offset="0.4" stop-color="#777777"/>
<stop offset="0.6" stop-color="#666666"/>
<stop offset="0.8" stop-color="#444444"/>
<stop offset="1" stop-color="#666666"/>
</linearGradient>
</defs>
</svg>
