<svg width="24" height="24" viewBox="0 0 24 24" fill="none" xmlns="http://www.w3.org/2000/svg">
<rect x="17" y="6" width="12" height="11" transform="rotate(90 17 6)" fill="#FAFAFA"/>
<path fill-rule="evenodd" clip-rule="evenodd" d="M22 12C22 6.47715 17.5228 2 12 2C6.47715 2 2 6.47715 2 12C2 17.5228 6.47715 22 12 22C17.5228 22 22 17.5228 22 12ZM6.20884 12.2658L15.6223 17.1881C15.9233 17.3455 16.2606 16.9184 16.0484 16.6531C15.0125 15.3581 13.6779 13.415 13.6779 11.9999C13.6779 10.5848 15.0125 8.64177 16.0484 7.34673C16.2606 7.08145 15.9233 6.65435 15.6223 6.81176L6.20884 11.7341C5.99419 11.8463 5.99419 12.1535 6.20884 12.2658ZM11.0308 10.9868C11.5904 10.9868 12.044 11.4404 12.044 12C12.044 12.5596 11.5904 13.0132 11.0308 13.0132C10.4712 13.0132 10.0176 12.5596 10.0176 12C10.0176 11.4404 10.4712 10.9868 11.0308 10.9868Z" fill="#D32F2F"/>
</svg>
