<svg viewBox="0 0 90 90"  xmlns="http://www.w3.org/2000/svg">
<rect x="12" y="32" width="24" height="18" fill="#FAFAFA"/>
<path d="M24 66L4.08141 46.5H43.9186L24 66Z" fill="#FAFAFA"/>
<circle cx="24" cy="24" r="24" fill="#FAFAFA"/>
<mask id="mask0_425_55826" style="mask-type:alpha" maskUnits="userSpaceOnUse" x="0" y="0" width="48" height="48">
<rect width="48" height="48" fill="#D9D9D9"/>
</mask>
<g mask="url(#mask0_425_55826)">
<path d="M24 44C21.2333 44 18.6333 43.475 16.2 42.425C13.7667 41.375 11.65 39.95 9.85 38.15C8.05 36.35 6.625 34.2333 5.575 31.8C4.525 29.3667 4 26.7667 4 24C4 21.2333 4.525 18.6333 5.575 16.2C6.625 13.7667 8.05 11.65 9.85 9.85C11.65 8.05 13.7667 6.625 16.2 5.575C18.6333 4.525 21.2333 4 24 4C26.7667 4 29.3667 4.525 31.8 5.575C34.2333 6.625 36.35 8.05 38.15 9.85C39.95 11.65 41.375 13.7667 42.425 16.2C43.475 18.6333 44 21.2333 44 24C44 26.7667 43.475 29.3667 42.425 31.8C41.375 34.2333 39.95 36.35 38.15 38.15C36.35 39.95 34.2333 41.375 31.8 42.425C29.3667 43.475 26.7667 44 24 44ZM24 36.65C27.5333 36.65 30.525 35.425 32.975 32.975C35.425 30.525 36.65 27.5333 36.65 24C36.65 20.4667 35.425 17.475 32.975 15.025C30.525 12.575 27.5333 11.35 24 11.35C20.4667 11.35 17.475 12.575 15.025 15.025C12.575 17.475 11.35 20.4667 11.35 24C11.35 27.5333 12.575 30.525 15.025 32.975C17.475 35.425 20.4667 36.65 24 36.65Z" />
</g>
<mask id="mask1_425_55826" style="mask-type:alpha" maskUnits="userSpaceOnUse" x="10" y="40" width="28" height="28">
<rect x="38" y="40" width="28" height="28" transform="rotate(90 38 40)" fill="#D9D9D9"/>
</mask>
<g mask="url(#mask1_425_55826)">
<path d="M14.404 44.4631L9.50488 49.3625L24 63.8575L38.495 49.3625L33.5958 44.4631L24 54.0591L14.404 44.4631ZM14.4041 47.2916L24 56.8875L24 56.8875L14.4041 47.2916L14.4041 47.2916ZM35.6666 49.3625L35.6666 49.3625L33.5958 47.2916L33.5958 47.2916L35.6666 49.3625Z"/>
</g>
</svg>
