<svg width="90" height="90" viewBox="0 0 90 90" fill="none" xmlns="http://www.w3.org/2000/svg">
<g clip-path="url(#clip0_13_31)">
<rect x="10.4167" y="14.4167" width="35" height="34" fill="#FAFAFA"/>
<path fill-rule="evenodd" clip-rule="evenodd" d="M27.9167 5.18884e-06C12.4987 3.84096e-06 1.14178e-05 12.4987 1.00699e-05 27.9167C8.72207e-06 43.3346 12.4987 55.8333 27.9167 55.8333C43.3346 55.8333 55.8333 43.3346 55.8333 27.9167C55.8333 12.4987 43.3346 6.53672e-06 27.9167 5.18884e-06ZM28.6586 44.0837L42.4001 17.8044C42.8395 16.964 41.6472 16.0225 40.9066 16.6149C37.2913 19.5068 31.8669 23.2326 27.9164 23.2326C23.966 23.2326 18.5416 19.5068 14.9263 16.6148C14.1857 16.0225 12.9934 16.964 13.4328 17.8044L27.1743 44.0837C27.4876 44.6829 28.3453 44.6829 28.6586 44.0837ZM25.088 30.6223C25.088 29.0601 26.3544 27.7937 27.9166 27.7937C29.4788 27.7937 30.7452 29.0601 30.7452 30.6223C30.7452 32.1845 29.4788 33.4509 27.9166 33.4509C26.3544 33.4509 25.088 32.1845 25.088 30.6223Z" fill="black"/>
</g>
<defs>
<clipPath id="clip0_13_31">
<rect width="90" height="90" fill="white"/>
</clipPath>
</defs>
</svg>
