<svg width="49" height="20" viewBox="0 0 49 20" fill="none" xmlns="http://www.w3.org/2000/svg">
<path fill-rule="evenodd" clip-rule="evenodd" d="M40.6217 9.99993L39.0888 14.6153L48.2861 9.99994L39.0888 5.38455L40.6217 9.99993ZM36.023 12.3076L37.5559 13.0769L37.5559 16.1538L32.9572 19.2307L23.7598 19.2307L22.2269 17.6922L16.0953 17.6922L14.5624 19.2307L5.36508 19.2307L0.766395 16.1538L0.766395 13.0769L2.29929 12.3076L2.29929 7.69224L0.766395 6.92301L0.766395 3.84609L5.36508 0.769163L14.5625 0.769164L16.0953 2.30763L22.2269 2.30763L23.7598 0.769164L32.9572 0.769164L37.5559 3.84609L37.5559 6.92301L36.023 7.69224L36.023 12.3076ZM33.7238 12.9383L25.3687 14.6154L12.9538 14.6154L4.59875 12.9383L4.59875 7.06166L12.9538 5.38458L25.3687 5.38458L33.7238 7.06166L33.7238 12.9383ZM32.1909 8.32289L25.2169 6.92304L13.1056 6.92304L6.13164 8.32289L6.13164 11.677L13.1056 13.0769L25.2169 13.0769L32.1909 11.677L32.1909 8.32289ZM19.1612 12.3076C17.8913 12.3076 16.8619 11.2745 16.8619 9.99995C16.8619 8.72545 17.8913 7.69226 19.1612 7.69226C20.4311 7.69226 21.4605 8.72545 21.4605 9.99995C21.4605 11.2745 20.4311 12.3076 19.1612 12.3076Z" fill="#2E7D32"/>
</svg>
