<svg viewBox="0 0 48 48" fill="none" xmlns="http://www.w3.org/2000/svg">
<mask id="mask0_3812_27459" style="mask-type:alpha" maskUnits="userSpaceOnUse" x="0" y="0" width="48" height="48">
<rect width="48" height="48" fill="#D9D9D9"/>
</mask>
<g mask="url(#mask0_3812_27459)">
<path d="M42 24L33.55 35.95C33.1167 36.55 32.6 37.0417 32 37.425C31.4 37.8083 30.7333 38 30 38H9C8.175 38 7.46875 37.7062 6.88125 37.1187C6.29375 36.5312 6 35.825 6 35V13C6 12.175 6.29375 11.4688 6.88125 10.8813C7.46875 10.2937 8.175 10 9 10H30C30.7333 10 31.4 10.1917 32 10.575C32.6 10.9583 33.1167 11.45 33.55 12.05L42 24ZM38.25 24L30.55 13H9V35H30.55L38.25 24Z" fill="#1C1B1F"/>
</g>
</svg>
