<svg width="48" height="48" viewBox="0 0 48 48" xmlns="http://www.w3.org/2000/svg">
<mask id="mask0_2120_60483" style="mask-type:alpha" maskUnits="userSpaceOnUse" x="0" y="0" width="48" height="48">
<rect width="48" height="48"/>
</mask>
<g mask="url(#mask0_2120_60483)">
<path d="M24 36.3C24.8 36.3 25.4833 36.0167 26.05 35.45C26.6167 34.8833 26.9 34.2 26.9 33.4C26.9 32.6 26.6167 31.9167 26.05 31.35C25.4833 30.7833 24.8 30.5 24 30.5C23.2 30.5 22.5167 30.7833 21.95 31.35C21.3833 31.9167 21.1 32.6 21.1 33.4C21.1 34.2 21.3833 34.8833 21.95 35.45C22.5167 36.0167 23.2 36.3 24 36.3ZM24 26.9C24.8 26.9 25.4833 26.6167 26.05 26.05C26.6167 25.4833 26.9 24.8 26.9 24C26.9 23.2 26.6167 22.5167 26.05 21.95C25.4833 21.3833 24.8 21.1 24 21.1C23.2 21.1 22.5167 21.3833 21.95 21.95C21.3833 22.5167 21.1 23.2 21.1 24C21.1 24.8 21.3833 25.4833 21.95 26.05C22.5167 26.6167 23.2 26.9 24 26.9ZM24 17.5C24.8 17.5 25.4833 17.2167 26.05 16.65C26.6167 16.0833 26.9 15.4 26.9 14.6C26.9 13.8 26.6167 13.1167 26.05 12.55C25.4833 11.9833 24.8 11.7 24 11.7C23.2 11.7 22.5167 11.9833 21.95 12.55C21.3833 13.1167 21.1 13.8 21.1 14.6C21.1 15.4 21.3833 16.0833 21.95 16.65C22.5167 17.2167 23.2 17.5 24 17.5ZM13.75 30.65V26.65C12.05 26.2833 10.6667 25.4917 9.6 24.275C8.53333 23.0583 8 21.7333 8 20.3H13.75V16.45C12.05 16.0833 10.6667 15.3 9.6 14.1C8.53333 12.9 8 11.5833 8 10.15H13.75V8.95C13.75 8.08333 14.0333 7.375 14.6 6.825C15.1667 6.275 15.8833 6 16.75 6H31.25C32.1167 6 32.8333 6.275 33.4 6.825C33.9667 7.375 34.25 8.08333 34.25 8.95V10.15H40C40 11.5833 39.4667 12.9 38.4 14.1C37.3333 15.3 35.95 16.0833 34.25 16.45V20.3H40C40 21.7333 39.4667 23.0583 38.4 24.275C37.3333 25.4917 35.95 26.2833 34.25 26.65V30.65H40C40 32.15 39.4667 33.4833 38.4 34.65C37.3333 35.8167 35.95 36.5833 34.25 36.95V39C34.25 39.8667 33.9667 40.5833 33.4 41.15C32.8333 41.7167 32.1167 42 31.25 42H16.75C15.8833 42 15.1667 41.7167 14.6 41.15C14.0333 40.5833 13.75 39.8667 13.75 39V36.95C12.05 36.5833 10.6667 35.8167 9.6 34.65C8.53333 33.4833 8 32.15 8 30.65H13.75ZM16.75 39H31.25V9H16.75V39Z"/>
</g>
</svg>