<svg  viewBox="0 0 48 48" fill="none" xmlns="http://www.w3.org/2000/svg">
<mask id="mask0_73_240" style="mask-type:alpha" maskUnits="userSpaceOnUse" x="0" y="0" width="48" height="48">
<rect width="48" height="48" fill="#D9D9D9"/>
</mask>
<g mask="url(#mask0_73_240)">
<path d="M9.8 31.45C9.13333 30.25 8.66667 29.0417 8.4 27.825C8.13333 26.6084 8 25.3667 8 24.1C8 19.7334 9.575 15.975 12.725 12.825C15.875 9.67502 19.6333 8.10003 24 8.10003H26.15L22.15 4.10002L24.1 2.15002L31.55 9.60003L24.1 17.05L22.1 15.05L26.05 11.1H24C20.4333 11.1 17.375 12.375 14.825 14.925C12.275 17.475 11 20.5334 11 24.1C11 25.0667 11.0917 25.9834 11.275 26.85C11.4583 27.7167 11.6833 28.5334 11.95 29.3L9.8 31.45ZM23.8 46L16.35 38.55L23.8 31.1L25.75 33.05L21.75 37.05H24C27.5667 37.05 30.625 35.775 33.175 33.225C35.725 30.675 37 27.6167 37 24.05C37 23.0834 36.9167 22.1667 36.75 21.3C36.5833 20.4334 36.3333 19.6167 36 18.85L38.15 16.7C38.8167 17.9 39.2917 19.1084 39.575 20.325C39.8583 21.5417 40 22.7834 40 24.05C40 28.4167 38.425 32.175 35.275 35.325C32.125 38.475 28.3667 40.05 24 40.05H21.75L25.75 44.05L23.8 46Z" fill="#0A0A0A"/>
</g>
</svg>
